{
DisplayStrings = (
w,
"ononj/quotedblleft nj/quoteright on\012non:noq:nb\012n.b!\U00A1u!nn?snanbun\U00BFn?n.bn\012HH?H\U00BFHbn  n{n}n.anon(n)\012nn./quotedblleft v/quoteright .v\U00BFvn\U00BFz\012nk.nnk:nk\U00BFx\U00BFn\012nnt.nr.nf/quoteleft nf!n\012nopenr\U00BFe\U00BFsanng:non/quoteright \U00F0?o:n\012nn{n}n\012HHN!H.\012HU\U00BFUH?HR.H\012HP.HP?H\U00BFS\U00BFH\012H.W.H.A.HW?\012HZ?HR\U00BFHS\012G!HC!HL\U00BFJH/quotedblleft A?\012nnq-n-bn-as-n\012n-z-nt-ne-n-o-\012H-S-HB-H-A-H\012H-X-K-HR-H\012HG-HO-HL-8-\012HH7-H24-H\012nnq_nn_y_v\012n_o_g_n\012nnq//non\012nnu//n//u\012n//bn//an//s\012nk//nn//an//s\012n///backslash// g//no//o\012H/backslash U//HP//S\012R//S//A/backslash H\012HF//HD///backslash O///backslash H\012H//7//2//H\012nnou/backslash n//\012q/backslash ns/backslash nf/backslash n\012ng/backslash no/backslash \012HN/backslash H\012HU//U/backslash A//W/backslash 7/backslash H\012HHK/backslash HX/backslash \012HUHT/backslash JH//T\012q@nk@bg@g\012nr@ne\U00F0neon\012nonssnon\012nonsznon\012nonsxnon\012nonxanon\012nonxsnon\012nonstnon\012nontanon\012nonranon\012nonrsnon\012noneanon\012nonesnon\012nonvzvnon\012nonwwnon\012nonzznon\012nonxxnon\012nonkfnon\012nonktnon\012nonwfnon\012nonwtnon\012nonvsnon\012nonztnon\012nonxsnon\012noncznon\012nontznon\012nonfvnon\012nonfznon\012nonfxnon\012nonrznon\012nonrxnon\012noneznon\012nonexnon\012nonttnon\012nonftnon\012nonesnon\012HOHM\U00DE\U00D0HMDOHNI\U00DE",
"\U00ABn\U00BB/guilsinglleft n/guilsinglright",
"@\U00A9LKqRO\U00AEOT@U@zbn4H",
"nonundbnon\012nonubnuanunbnbonqbn\012nuonojonjn\012nonig\012nouan\012nqanonaznon \012nonjsnsnon\012|\U00F0|o|nslnsbnon\012nonjx\012nonrbno\012nonkunon\012nonklnon\012kh\012knhnvbnon\012noinlnhnnozn\012nonutnonqtnononjsnaonsoa\012noncbnon\012npntunon\012nonflunon\012nonpdoon\012nongvnovon\012nonoznon\012nongznon\012nnkonon\012nonzdnon\012nonotnon\012nonoanon\012nonconon\012nonronon",
"HSHnzf\012nngF\U00A7HnunsaHSH",
"HftkgRPW\012HZSF7\U00B6HH"
);
classes = (
{
automatic = 1;

glyphs = (
{
glyphname = A;
lastChange = "2015-11-25 16:40:29 +0000";
layers = (
{
anchors = (
{
name = bottom;
position = "{513, 0}";
},
{
name = hook;
position = "{603, 585}";
},
{
name = ogonek;
position = "{1029, 0}";
},
{
name = top;
position = "{512, 520}";
}
);
layerId = "B29C398E-974A-40D0-A0A0-00935056D4B4";
name = "Light Extended";
paths = (
{
closed = 1;
nodes = (
"179 13 LINE",
"514 502 LINE",
"511 502 LINE",
"846 13 LINE",
"875 13 LINE",
"531 510 LINE SMOOTH",
"493 510 LINE",
"150 13 LINE"
);
},
{
closed = 1;
nodes = (
"334 0 LINE",
"334 23 LINE",
"-5 23 LINE",
"-5 0 LINE"
);
},
{
closed = 1;
nodes = (
"731 199 LINE",
"714 222 LINE",
"308 222 LINE",
"290 199 LINE"
);
},
{
closed = 1;
nodes = (
"1029 0 LINE",
"1029 23 LINE",
"691 23 LINE",
"691 0 LINE"
);
},
{
closed = 1;
nodes = (
"700 497 LINE",
"700 520 LINE",
"324 520 LINE",
"324 497 LINE"
);
}
);
width = 1024;
},
{
anchors = (
{
name = bottom;
position = "{334, 0}";
},
{
name = hook;
position = "{410, 580}";
},
{
name = ogonek;
position = "{573, 13}";
},
{
name = top;
position = "{335, 520}";
}
);
layerId = "543F9737-16F7-428D-9F96-2EBD9FC8D3B6";
name = Light;
paths = (
{
closed = 1;
nodes = (
"125 13 LINE",
"335 502 LINE",
"335 502 LINE",
"545 13 LINE",
"573 13 LINE",
"355 510 LINE SMOOTH",
"315 510 LINE",
"100 13 LINE"
);
},
{
closed = 1;
nodes = (
"229 0 LINE",
"229 23 LINE",
"0 23 LINE",
"0 0 LINE"
);
},
{
closed = 1;
nodes = (
"485 198 LINE",
"468 221 LINE",
"202 221 LINE",
"184 198 LINE"
);
},
{
closed = 1;
nodes = (
"672 0 LINE",
"672 23 LINE",
"444 23 LINE",
"444 0 LINE"
);
},
{
closed = 1;
nodes = (
"468 497 LINE",
"468 520 LINE",
"202 520 LINE",
"202 497 LINE"
);
}
);
width = 672;
},
{
anchors = (
{
name = bottom;
position = "{304, 0}";
},
{
name = hook;
position = "{373, 638}";
},
{
name = ogonek;
position = "{621, 9}";
},
{
name = top;
position = "{302, 520}";
}
);
layerId = "EB38A4D2-CD30-49BA-8E45-1F04A566FFE8";
name = Bold;
paths = (
{
closed = 1;
nodes = (
"144 13 LINE",
"319 473 LINE",
"279 473 LINE",
"453 13 LINE",
"583 13 LINE",
"388 471 LINE SMOOTH",
"220 471 LINE",
"27 13 LINE"
);
},
{
closed = 1;
nodes = (
"260 0 LINE",
"260 96 LINE",
"0 96 LINE",
"0 0 LINE"
);
},
{
closed = 1;
nodes = (
"431 172 LINE",
"414 257 LINE",
"188 257 LINE",
"170 172 LINE"
);
},
{
closed = 1;
nodes = (
"611 0 LINE",
"611 96 LINE",
"346 96 LINE",
"346 0 LINE"
);
},
{
closed = 1;
nodes = (
"461 424 LINE",
"461 520 LINE",
"147 520 LINE",
"147 424 LINE"
);
}
);
width = 611;
},
{
anchors = (
{
name = bottom;
position = "{514, 0}";
},
{
name = hook;
position = "{597, 643}";
},
{
name = ogonek;
position = "{1019, 0}";
},
{
name = top;
position = "{511, 520}";
}
);
layerId = "C70E3B11-AF58-44B6-92D7-58C9185F522D";
name = "Bold Extended";
paths = (
{
closed = 1;
nodes = (
"217 13 LINE",
"537 463 LINE",
"483 463 LINE",
"802 13 LINE",
"941 13 LINE",
"595 461 LINE SMOOTH",
"424 461 LINE",
"78 13 LINE"
);
},
{
closed = 1;
nodes = (
"376 0 LINE",
"376 96 LINE",
"0 96 LINE",
"0 0 LINE"
);
},
{
closed = 1;
nodes = (
"708 173 LINE",
"691 260 LINE",
"325 260 LINE",
"307 173 LINE"
);
},
{
closed = 1;
nodes = (
"1019 0 LINE",
"1019 96 LINE",
"644 96 LINE",
"644 0 LINE"
);
},
{
closed = 1;
nodes = (
"724 424 LINE",
"724 520 LINE",
"294 520 LINE",
"294 424 LINE"
);
}
);
width = 1019;
}
);
leftKerningGroup = A;
rightKerningGroup = A;
unicode = 0041;
},
{
glyphname = A.alt;
lastChange = "2015-11-25 15:15:11 +0000";
layers = (
{
anchors = (
{
name = bottom;
position = "{513, 0}";
},
{
name = hook;
position = "{603, 595}";
},
{
name = ogonek;
position = "{1029, 0}";
},
{
name = top;
position = "{512, 530}";
}
);
background = {
paths = (
{
closed = 1;
nodes = (
"133 0 LINE",
"376 347 LINE",
"622 0 LINE",
"631 18 LINE",
"376 376 LINE",
"124 18 LINE"
);
},
{
closed = 1;
nodes = (
"522 151 LINE",
"228 151 LINE",
"215 133 LINE",
"535 133 LINE"
);
},
{
closed = 1;
nodes = (
"249 -1 LINE",
"249 18 LINE",
"0 18 LINE",
"0 -1 LINE"
);
},
{
closed = 1;
nodes = (
"506 18 LINE",
"506 -1 LINE",
"752 -1 LINE",
"753 18 LINE"
);
}
);
};
layerId = "B29C398E-974A-40D0-A0A0-00935056D4B4";
name = "Light Extended";
paths = (
{
closed = 1;
nodes = (
"512 530 LINE",
"155 13 LINE",
"184 13 LINE",
"521 498 LINE",
"509 498 LINE",
"845 13 LINE",
"874 13 LINE",
"518 530 LINE"
);
},
{
closed = 1;
nodes = (
"1028 0 LINE",
"1028 23 LINE",
"691 23 LINE",
"691 0 LINE"
);
},
{
closed = 1;
nodes = (
"337 0 LINE",
"337 23 LINE",
"0 23 LINE",
"0 0 LINE"
);
},
{
closed = 1;
nodes = (
"721 206 LINE",
"309 206 LINE",
"290 183 LINE",
"736 183 LINE"
);
}
);
width = 1028;
},
{
anchors = (
{
name = bottom;
position = "{337, 0}";
},
{
name = ogonek;
position = "{644, 10}";
},
{
name = top;
position = "{337, 530}";
}
);
layerId = "543F9737-16F7-428D-9F96-2EBD9FC8D3B6";
name = Light;
paths = (
{
closed = 1;
nodes = (
"333 530 LINE",
"100 13 LINE",
"125 13 LINE",
"341 496 LINE",
"331 496 LINE",
"547 13 LINE",
"574 13 LINE",
"339 530 LINE"
);
},
{
closed = 1;
nodes = (
"673 0 LINE",
"673 23 LINE",
"426 23 LINE",
"426 0 LINE"
);
},
{
closed = 1;
nodes = (
"247 0 LINE",
"247 23 LINE",
"0 23 LINE",
"0 0 LINE"
);
},
{
closed = 1;
nodes = (
"466 205 LINE",
"204 205 LINE",
"187 182 LINE",
"483 182 LINE"
);
}
);
width = 673;
},
{
anchors = (
{
name = bottom;
position = "{341, 0}";
},
{
name = ogonek;
position = "{648, 10}";
},
{
name = top;
position = "{341, 487}";
}
);
layerId = "EB38A4D2-CD30-49BA-8E45-1F04A566FFE8";
name = Bold;
paths = (
{
closed = 1;
nodes = (
"309 530 LINE",
"34 13 LINE",
"164 13 LINE",
"367 436 LINE",
"309 436 LINE",
"512 13 LINE",
"648 13 LINE",
"374 530 LINE"
);
},
{
closed = 1;
nodes = (
"681 0 LINE",
"681 96 LINE",
"410 96 LINE",
"410 0 LINE"
);
},
{
closed = 1;
nodes = (
"271 0 LINE",
"271 96 LINE",
"0 96 LINE",
"0 0 LINE"
);
},
{
closed = 1;
nodes = (
"450 248 LINE",
"228 248 LINE",
"211 161 LINE",
"467 161 LINE"
);
}
);
width = 681;
},
{
anchors = (
{
name = bottom;
position = "{519, 0}";
},
{
name = ogonek;
position = "{916, 10}";
},
{
name = top;
position = "{519, 527}";
}
);
layerId = "C70E3B11-AF58-44B6-92D7-58C9185F522D";
name = "Bold Extended";
paths = (
{
closed = 1;
nodes = (
"488 530 LINE",
"89 13 LINE",
"223 13 LINE",
"547 438 LINE",
"487 438 LINE",
"810 13 LINE",
"948 13 LINE",
"553 530 LINE"
);
},
{
closed = 1;
nodes = (
"1036 0 LINE",
"1036 96 LINE",
"675 96 LINE",
"675 0 LINE"
);
},
{
closed = 1;
nodes = (
"361 0 LINE",
"361 96 LINE",
"0 96 LINE",
"0 0 LINE"
);
},
{
closed = 1;
nodes = (
"705 249 LINE",
"333 249 LINE",
"314 162 LINE",
"720 162 LINE"
);
}
);
width = 1036;
}
);
leftKerningGroup = A;
rightKerningGroup = A;
},
{
color = 0;
glyphname = AE;
lastChange = "2015-11-25 03:14:34 +0000";
layers = (
{
anchors = (
{
name = bottom;
position = "{782, 0}";
},
{
name = ogonek;
position = "{1289, 0}";
},
{
name = top;
position = "{783, 520}";
}
);
layerId = "B29C398E-974A-40D0-A0A0-00935056D4B4";
name = "Light Extended";
paths = (
{
closed = 1;
nodes = (
"185 13 LINE",
"623 502 LINE",
"613 502 LINE",
"853 13 LINE",
"881 13 LINE",
"636 510 LINE SMOOTH",
"597 510 LINE",
"152 13 LINE"
);
},
{
closed = 1;
nodes = (
"349 0 LINE",
"349 23 LINE",
"0 23 LINE",
"0 0 LINE"
);
},
{
closed = 1;
nodes = (
"769 194 LINE",
"769 217 LINE",
"359 217 LINE",
"335 194 LINE"
);
},
{
closed = 1;
nodes = (
"1289 0 LINE",
"1289 183 LINE",
"1265 183 LINE",
"1265 23 LINE",
"673 23 LINE",
"673 0 LINE"
);
},
{
closed = 1;
nodes = (
"1023 158 LINE",
"1023 397 LINE",
"998 397 LINE",
"998 289 LINE",
"737 289 LINE",
"737 266 LINE",
"998 266 LINE",
"998 158 LINE"
);
},
{
closed = 1;
nodes = (
"1289 337 LINE",
"1289 520 LINE",
"413 520 LINE",
"413 497 LINE",
"1264 497 LINE",
"1264 337 LINE"
);
}
);
width = 1419;
},
{
anchors = (
{
name = bottom;
position = "{512, 0}";
},
{
name = ogonek;
position = "{880, 0}";
},
{
name = top;
position = "{513, 520}";
}
);
layerId = "543F9737-16F7-428D-9F96-2EBD9FC8D3B6";
name = Light;
paths = (
{
closed = 1;
nodes = (
"125 13 LINE",
"434 501 LINE",
"434 501 LINE",
"565 13 LINE",
"593 13 LINE",
"455 510 LINE SMOOTH",
"413 510 LINE",
"98 13 LINE"
);
},
{
closed = 1;
nodes = (
"229 0 LINE",
"229 23 LINE",
"0 23 LINE",
"0 0 LINE"
);
},
{
closed = 1;
nodes = (
"525 198 LINE",
"508 221 LINE",
"242 221 LINE",
"224 198 LINE"
);
},
{
closed = 1;
nodes = (
"880 0 LINE",
"880 136 LINE",
"856 136 LINE",
"856 23 LINE",
"464 23 LINE",
"464 0 LINE"
);
},
{
closed = 1;
nodes = (
"724 178 LINE",
"724 367 LINE",
"699 367 LINE",
"699 284 LINE",
"508 284 LINE",
"508 261 LINE",
"699 261 LINE",
"699 178 LINE"
);
},
{
closed = 1;
nodes = (
"880 384 LINE",
"880 520 LINE",
"302 520 LINE",
"302 497 LINE",
"855 497 LINE",
"855 384 LINE"
);
}
);
width = 940;
},
{
anchors = (
{
name = bottom;
position = "{465, 0}";
},
{
name = ogonek;
position = "{855, 0}";
},
{
name = top;
position = "{466, 520}";
}
);
layerId = "EB38A4D2-CD30-49BA-8E45-1F04A566FFE8";
name = Bold;
paths = (
{
closed = 1;
nodes = (
"125 13 LINE",
"395 463 LINE",
"348 463 LINE",
"462 13 LINE",
"585 13 LINE",
"465 461 LINE SMOOTH",
"284 461 LINE",
"0 13 LINE"
);
},
{
closed = 1;
nodes = (
"243 0 LINE",
"243 96 LINE",
"1 96 LINE",
"1 0 LINE"
);
},
{
closed = 1;
nodes = (
"497 174 LINE",
"480 259 LINE",
"207 259 LINE",
"189 174 LINE"
);
},
{
closed = 1;
nodes = (
"855 0 LINE",
"855 193 LINE",
"747 193 LINE",
"747 96 LINE",
"351 96 LINE",
"351 0 LINE"
);
},
{
closed = 1;
nodes = (
"686 151 LINE",
"686 357 LINE",
"596 357 LINE",
"596 299 LINE",
"439 299 LINE",
"439 209 LINE",
"596 209 LINE",
"596 151 LINE"
);
},
{
closed = 1;
nodes = (
"855 331 LINE",
"855 520 LINE",
"210 520 LINE",
"210 424 LINE",
"747 424 LINE",
"747 331 LINE"
);
}
);
width = 905;
},
{
anchors = (
{
name = bottom;
position = "{785, 0}";
},
{
name = ogonek;
position = "{1244, 0}";
},
{
name = top;
position = "{786, 520}";
}
);
layerId = "C70E3B11-AF58-44B6-92D7-58C9185F522D";
name = "Bold Extended";
paths = (
{
closed = 1;
nodes = (
"223 13 LINE",
"621 464 LINE",
"555 464 LINE",
"778 13 LINE",
"901 13 LINE",
"674 461 LINE SMOOTH",
"496 461 LINE",
"82 13 LINE"
);
},
{
closed = 1;
nodes = (
"391 0 LINE",
"391 96 LINE",
"29 96 LINE",
"29 0 LINE"
);
},
{
closed = 1;
nodes = (
"769 168 LINE",
"769 255 LINE",
"352 255 LINE",
"328 168 LINE"
);
},
{
closed = 1;
nodes = (
"1292 0 LINE",
"1292 230 LINE",
"1184 230 LINE",
"1184 96 LINE",
"588 96 LINE",
"588 0 LINE"
);
},
{
closed = 1;
nodes = (
"1033 131 LINE",
"1033 387 LINE",
"937 387 LINE",
"937 302 LINE",
"696 302 LINE",
"696 215 LINE",
"937 215 LINE",
"937 131 LINE"
);
},
{
closed = 1;
nodes = (
"1292 294 LINE",
"1292 520 LINE",
"349 520 LINE",
"349 424 LINE",
"1184 424 LINE",
"1184 294 LINE"
);
}
);
width = 1392;
}
);
leftKerningGroup = AE;
rightKerningGroup = E;
rightMetricsKey = "=E";
unicode = 00C6;
},
{
glyphname = B;
lastChange = "2015-11-24 23:52:19 +0000";
layers = (
{
anchors = (
{
name = bottom;
position = "{462, 0}";
},
{
name = top;
position = "{462, 520}";
}
);
background = {
paths = (
{
closed = 1;
nodes = (
"263 14 LINE",
"263 478 LINE",
"238 478 LINE",
"238 14 LINE"
);
},
{
closed = 1;
nodes = (
"664 247 LINE",
"776 247 OFFCURVE",
"828 302 OFFCURVE",
"828 365 CURVE SMOOTH",
"828 443 OFFCURVE",
"769 490 OFFCURVE",
"666 490 CURVE SMOOTH",
"56 490 LINE",
"56 467 LINE",
"666 467 LINE SMOOTH",
"755 467 OFFCURVE",
"803 427 OFFCURVE",
"803 365 CURVE SMOOTH",
"803 305 OFFCURVE",
"746 263 OFFCURVE",
"656 263 CURVE SMOOTH",
"254 263 LINE",
"254 240 LINE",
"656 239 LINE SMOOTH",
"756 239 OFFCURVE",
"837 202 OFFCURVE",
"837 128 CURVE SMOOTH",
"837 57 OFFCURVE",
"778 23 OFFCURVE",
"675 23 CURVE SMOOTH",
"56 23 LINE",
"56 0 LINE",
"673 0 LINE SMOOTH",
"805 0 OFFCURVE",
"862 48 OFFCURVE",
"862 128 CURVE SMOOTH",
"862 205 OFFCURVE",
"794 255 OFFCURVE",
"664 255 CURVE"
);
}
);
};
layerId = "B29C398E-974A-40D0-A0A0-00935056D4B4";
name = "Light Extended";
paths = (
{
closed = 1;
nodes = (
"673 0 LINE SMOOTH",
"790 0 OFFCURVE",
"862 45 OFFCURVE",
"862 136 CURVE SMOOTH",
"862 231 OFFCURVE",
"781 270 OFFCURVE",
"664 270 CURVE",
"664 262 LINE",
"775 262 OFFCURVE",
"828 315 OFFCURVE",
"828 391 CURVE SMOOTH",
"828 469 OFFCURVE",
"768 520 OFFCURVE",
"667 520 CURVE SMOOTH",
"56 520 LINE",
"56 497 LINE",
"664 497 LINE SMOOTH",
"743 497 OFFCURVE",
"803 465 OFFCURVE",
"803 391 CURVE SMOOTH",
"803 316 OFFCURVE",
"745 278 OFFCURVE",
"661 278 CURVE SMOOTH",
"254 278 LINE",
"254 255 LINE",
"656 254 LINE SMOOTH",
"755 254 OFFCURVE",
"837 222 OFFCURVE",
"837 137 CURVE SMOOTH",
"837 55 OFFCURVE",
"769 23 OFFCURVE",
"667 23 CURVE SMOOTH",
"56 23 LINE",
"56 0 LINE"
);
},
{
closed = 1;
nodes = (
"263 14 LINE",
"263 508 LINE",
"238 508 LINE",
"238 14 LINE"
);
}
);
width = 962;
},
{
anchors = (
{
name = bottom;
position = "{282, 0}";
},
{
name = top;
position = "{282, 490}";
}
);
background = {
paths = (
{
closed = 1;
nodes = (
"548 242 LINE",
"548 265 LINE",
"152 265 LINE",
"152 242 LINE"
);
},
{
closed = 1;
nodes = (
"261 0 LINE",
"261 23 LINE",
"20 23 LINE",
"20 0 LINE"
);
},
{
closed = 1;
nodes = (
"157 13 LINE",
"157 509 LINE",
"133 509 LINE",
"133 13 LINE"
);
},
{
closed = 1;
nodes = (
"261 497 LINE",
"261 520 LINE",
"20 520 LINE",
"20 497 LINE"
);
},
{
closed = 1;
nodes = (
"679 0 LINE",
"679 23 LINE",
"438 23 LINE",
"438 0 LINE"
);
},
{
closed = 1;
nodes = (
"567 13 LINE",
"567 509 LINE",
"542 509 LINE",
"542 13 LINE"
);
},
{
closed = 1;
nodes = (
"679 497 LINE",
"679 520 LINE",
"438 520 LINE",
"438 497 LINE"
);
}
);
};
layerId = "543F9737-16F7-428D-9F96-2EBD9FC8D3B6";
name = Light;
paths = (
{
closed = 1;
nodes = (
"328 0 LINE SMOOTH",
"445 0 OFFCURVE",
"517 45 OFFCURVE",
"517 136 CURVE SMOOTH",
"517 231 OFFCURVE",
"436 270 OFFCURVE",
"319 270 CURVE",
"319 262 LINE",
"430 262 OFFCURVE",
"483 315 OFFCURVE",
"483 391 CURVE SMOOTH",
"483 469 OFFCURVE",
"423 520 OFFCURVE",
"322 520 CURVE SMOOTH",
"30 520 LINE",
"30 497 LINE",
"319 497 LINE SMOOTH",
"398 497 OFFCURVE",
"458 465 OFFCURVE",
"458 391 CURVE SMOOTH",
"458 316 OFFCURVE",
"400 278 OFFCURVE",
"316 278 CURVE SMOOTH",
"159 278 LINE",
"159 255 LINE",
"311 254 LINE SMOOTH",
"410 253 OFFCURVE",
"492 222 OFFCURVE",
"492 137 CURVE SMOOTH",
"492 55 OFFCURVE",
"424 23 OFFCURVE",
"322 23 CURVE SMOOTH",
"30 23 LINE",
"30 0 LINE"
);
},
{
closed = 1;
nodes = (
"168 14 LINE",
"168 508 LINE",
"143 508 LINE",
"143 14 LINE"
);
}
);
width = 572;
},
{
anchors = (
{
name = bottom;
position = "{272, 0}";
},
{
name = top;
position = "{272, 527}";
}
);
layerId = "EB38A4D2-CD30-49BA-8E45-1F04A566FFE8";
name = Bold;
paths = (
{
closed = 1;
nodes = (
"342 0 LINE SMOOTH",
"478 0 OFFCURVE",
"548 55 OFFCURVE",
"548 147 CURVE SMOOTH",
"548 269 OFFCURVE",
"420 287 OFFCURVE",
"329 287 CURVE",
"330 240 LINE",
"397 240 OFFCURVE",
"507 277 OFFCURVE",
"507 379 CURVE SMOOTH",
"507 460 OFFCURVE",
"447 520 OFFCURVE",
"325 520 CURVE SMOOTH",
"25 520 LINE",
"25 424 LINE",
"319 424 LINE SMOOTH",
"348 424 OFFCURVE",
"385 411 OFFCURVE",
"385 363 CURVE SMOOTH",
"385 317 OFFCURVE",
"350 302 OFFCURVE",
"296 302 CURVE SMOOTH",
"191 302 LINE",
"191 215 LINE",
"342 215 LINE SMOOTH",
"399 215 OFFCURVE",
"426 197 OFFCURVE",
"426 157 CURVE SMOOTH",
"426 113 OFFCURVE",
"391 96 OFFCURVE",
"333 96 CURVE SMOOTH",
"25 96 LINE",
"25 0 LINE"
);
},
{
closed = 1;
nodes = (
"233 53 LINE",
"233 464 LINE",
"110 464 LINE",
"110 53 LINE"
);
}
);
width = 573;
},
{
anchors = (
{
name = bottom;
position = "{452, 0}";
},
{
name = top;
position = "{452, 557}";
}
);
layerId = "C70E3B11-AF58-44B6-92D7-58C9185F522D";
name = "Bold Extended";
paths = (
{
closed = 1;
nodes = (
"702 0 LINE SMOOTH",
"838 0 OFFCURVE",
"908 55 OFFCURVE",
"908 147 CURVE SMOOTH",
"908 269 OFFCURVE",
"780 287 OFFCURVE",
"689 287 CURVE",
"690 240 LINE",
"757 240 OFFCURVE",
"867 277 OFFCURVE",
"867 379 CURVE SMOOTH",
"867 460 OFFCURVE",
"807 520 OFFCURVE",
"685 520 CURVE SMOOTH",
"51 520 LINE",
"51 424 LINE",
"679 424 LINE SMOOTH",
"708 424 OFFCURVE",
"745 411 OFFCURVE",
"745 363 CURVE SMOOTH",
"745 317 OFFCURVE",
"710 302 OFFCURVE",
"656 302 CURVE SMOOTH",
"286 302 LINE",
"286 215 LINE",
"702 215 LINE SMOOTH",
"759 216 OFFCURVE",
"786 197 OFFCURVE",
"786 157 CURVE SMOOTH",
"786 113 OFFCURVE",
"751 96 OFFCURVE",
"693 96 CURVE SMOOTH",
"51 96 LINE",
"51 0 LINE"
);
},
{
closed = 1;
nodes = (
"328 53 LINE",
"328 464 LINE",
"205 464 LINE",
"205 53 LINE"
);
}
);
width = 960;
}
);
leftKerningGroup = H;
leftMetricsKey = "=H";
rightKerningGroup = B;
unicode = 0042;
},
{
color = 4;
glyphname = C;
lastChange = "2015-11-25 15:14:17 +0000";
layers = (
{
anchors = (
{
name = bottom;
position = "{431, -10}";
},
{
name = top;
position = "{438, 530}";
}
);
background = {
paths = (
{
closed = 1;
nodes = (
"802 173 LINE",
"764 82 OFFCURVE",
"645 -20 OFFCURVE",
"431 -20 CURVE",
"239 -20 OFFCURVE",
"75 79 OFFCURVE",
"75 249 CURVE",
"75 419 OFFCURVE",
"246 517 OFFCURVE",
"439 517 CURVE",
"610 517 OFFCURVE",
"724 445 OFFCURVE",
"794 348 CURVE",
"774 348 LINE",
"774 491 LINE",
"797 491 LINE",
"797 311 LINE",
"695 447 OFFCURVE",
"566 494 OFFCURVE",
"439 494 CURVE",
"254 494 OFFCURVE",
"100 401 OFFCURVE",
"100 249 CURVE",
"100 97 OFFCURVE",
"249 3 OFFCURVE",
"431 3 CURVE",
"629 3 OFFCURVE",
"748 103 OFFCURVE",
"779 182 CURVE"
);
}
);
};
layerId = "B29C398E-974A-40D0-A0A0-00935056D4B4";
name = "Light Extended";
paths = (
{
closed = 1;
nodes = (
"645 -11 OFFCURVE",
"752 85 OFFCURVE",
"799 168 CURVE",
"779 181 LINE",
"739 107 OFFCURVE",
"629 12 OFFCURVE",
"431 12 CURVE",
"249 12 OFFCURVE",
"100 106 OFFCURVE",
"100 260 CURVE",
"100 414 OFFCURVE",
"254 507 OFFCURVE",
"439 507 CURVE SMOOTH",
"577 507 OFFCURVE",
"694 461 OFFCURVE",
"784 330 CURVE",
"796 332 LINE",
"796 520 LINE",
"773 520 LINE",
"773 361 LINE",
"784 361 LINE",
"715 461 OFFCURVE",
"600 530 OFFCURVE",
"439 530 CURVE SMOOTH",
"246 530 OFFCURVE",
"75 432 OFFCURVE",
"75 260 CURVE",
"75 88 OFFCURVE",
"239 -11 OFFCURVE",
"431 -11 CURVE"
);
}
);
width = 889;
},
{
anchors = (
{
name = bottom;
position = "{299, -10}";
},
{
name = top;
position = "{300, 530}";
}
);
background = {
paths = (
{
closed = 1;
nodes = (
"442 -10 OFFCURVE",
"557 89 OFFCURVE",
"557 257 CURVE",
"557 424 OFFCURVE",
"442 523 OFFCURVE",
"304 523 CURVE",
"165 523 OFFCURVE",
"51 424 OFFCURVE",
"51 257 CURVE",
"51 89 OFFCURVE",
"165 -10 OFFCURVE",
"304 -10 CURVE"
);
},
{
closed = 1;
nodes = (
"175 14 OFFCURVE",
"75 107 OFFCURVE",
"75 257 CURVE",
"75 406 OFFCURVE",
"175 499 OFFCURVE",
"304 499 CURVE",
"432 499 OFFCURVE",
"533 406 OFFCURVE",
"533 257 CURVE",
"533 107 OFFCURVE",
"432 14 OFFCURVE",
"304 14 CURVE"
);
}
);
};
layerId = "543F9737-16F7-428D-9F96-2EBD9FC8D3B6";
name = Light;
paths = (
{
closed = 1;
nodes = (
"415 -11 OFFCURVE",
"477 50 OFFCURVE",
"511 97 CURVE",
"494 111 LINE",
"461 64 OFFCURVE",
"399 12 OFFCURVE",
"301 12 CURVE SMOOTH",
"174 12 OFFCURVE",
"75 111 OFFCURVE",
"75 260 CURVE SMOOTH",
"75 409 OFFCURVE",
"179 507 OFFCURVE",
"301 507 CURVE SMOOTH",
"403 507 OFFCURVE",
"464 454 OFFCURVE",
"503 365 CURVE",
"515 366 LINE",
"516 520 LINE",
"493 520 LINE",
"492 399 LINE",
"504 394 LINE",
"480 463 OFFCURVE",
"412 530 OFFCURVE",
"301 530 CURVE SMOOTH",
"171 530 OFFCURVE",
"50 427 OFFCURVE",
"50 260 CURVE SMOOTH",
"50 93 OFFCURVE",
"164 -11 OFFCURVE",
"301 -11 CURVE SMOOTH"
);
}
);
width = 561;
},
{
anchors = (
{
name = bottom;
position = "{309, -10}";
},
{
name = top;
position = "{294, 530}";
}
);
background = {
paths = (
{
closed = 1;
nodes = (
"397 -10 OFFCURVE",
"496 33 OFFCURVE",
"554 123 CURVE",
"476 188 LINE",
"434 129 OFFCURVE",
"380 90 OFFCURVE",
"309 90 CURVE SMOOTH",
"215 90 OFFCURVE",
"153 157 OFFCURVE",
"153 258 CURVE SMOOTH",
"153 365 OFFCURVE",
"226 435 OFFCURVE",
"314 435 CURVE SMOOTH",
"385 435 OFFCURVE",
"443 386 OFFCURVE",
"469 331 CURVE",
"550 335 LINE",
"550 520 LINE",
"440 520 LINE",
"440 415 LINE",
"495 399 LINE",
"455 480 OFFCURVE",
"385 530 OFFCURVE",
"282 530 CURVE SMOOTH",
"155 530 OFFCURVE",
"25 423 OFFCURVE",
"25 258 CURVE SMOOTH",
"25 99 OFFCURVE",
"154 -10 OFFCURVE",
"309 -10 CURVE SMOOTH"
);
}
);
};
layerId = "EB38A4D2-CD30-49BA-8E45-1F04A566FFE8";
name = Bold;
paths = (
{
closed = 1;
nodes = (
"419 -10 OFFCURVE",
"501 42 OFFCURVE",
"554 123 CURVE",
"476 188 LINE",
"435 128 OFFCURVE",
"390 90 OFFCURVE",
"309 90 CURVE SMOOTH",
"222 90 OFFCURVE",
"153 164 OFFCURVE",
"153 260 CURVE SMOOTH",
"153 371 OFFCURVE",
"227 435 OFFCURVE",
"302 435 CURVE SMOOTH",
"384 435 OFFCURVE",
"433 386 OFFCURVE",
"459 331 CURVE",
"540 338 LINE",
"540 520 LINE",
"430 520 LINE",
"430 415 LINE",
"485 399 LINE",
"445 480 OFFCURVE",
"380 530 OFFCURVE",
"282 530 CURVE SMOOTH",
"143 530 OFFCURVE",
"25 420 OFFCURVE",
"25 258 CURVE SMOOTH",
"25 108 OFFCURVE",
"148 -10 OFFCURVE",
"309 -10 CURVE SMOOTH"
);
}
);
width = 574;
},
{
anchors = (
{
name = bottom;
position = "{474, -10}";
},
{
name = top;
position = "{434, 530}";
}
);
layerId = "C70E3B11-AF58-44B6-92D7-58C9185F522D";
name = "Bold Extended";
paths = (
{
closed = 1;
nodes = (
"614 -10 OFFCURVE",
"724 35 OFFCURVE",
"828 110 CURVE",
"781 197 LINE",
"692 134 OFFCURVE",
"585 90 OFFCURVE",
"434 90 CURVE SMOOTH",
"292 90 OFFCURVE",
"173 154 OFFCURVE",
"173 260 CURVE SMOOTH",
"173 376 OFFCURVE",
"302 435 OFFCURVE",
"445 435 CURVE SMOOTH",
"563 435 OFFCURVE",
"668 393 OFFCURVE",
"745 316 CURVE",
"826 330 LINE",
"825 520 LINE",
"715 520 LINE",
"716 397 LINE",
"770 386 LINE",
"685 478 OFFCURVE",
"573 530 OFFCURVE",
"415 530 CURVE SMOOTH",
"218 530 OFFCURVE",
"45 425 OFFCURVE",
"45 258 CURVE SMOOTH",
"45 93 OFFCURVE",
"218 -10 OFFCURVE",
"434 -10 CURVE SMOOTH"
);
}
);
width = 888;
}
);
leftKerningGroup = O;
leftMetricsKey = "=O";
rightKerningGroup = C;
unicode = 0043;
},
{
glyphname = D;
lastChange = "2015-11-25 19:42:22 +0000";
layers = (
{
anchors = (
{
name = bottom;
position = "{480, 0}";
},
{
name = center;
position = "{480, 245}";
},
{
name = top;
position = "{480, 520}";
}
);
layerId = "B29C398E-974A-40D0-A0A0-00935056D4B4";
name = "Light Extended";
paths = (
{
closed = 1;
nodes = (
"545 0 LINE",
"750 0 OFFCURVE",
"889 85 OFFCURVE",
"889 260 CURVE",
"889 435 OFFCURVE",
"750 520 OFFCURVE",
"545 520 CURVE",
"56 520 LINE",
"56 497 LINE",
"545 497 LINE",
"739 497 OFFCURVE",
"864 418 OFFCURVE",
"864 260 CURVE",
"864 102 OFFCURVE",
"739 23 OFFCURVE",
"545 23 CURVE",
"56 23 LINE",
"56 0 LINE"
);
},
{
closed = 1;
nodes = (
"263 13 LINE",
"263 507 LINE",
"238 507 LINE",
"238 13 LINE"
);
}
);
width = 964;
},
{
anchors = (
{
name = bottom;
position = "{283, 0}";
},
{
name = center;
position = "{283, 245}";
},
{
name = top;
position = "{283, 490}";
}
);
layerId = "543F9737-16F7-428D-9F96-2EBD9FC8D3B6";
name = Light;
paths = (
{
closed = 1;
nodes = (
"278 0 LINE",
"451 0 OFFCURVE",
"563 99 OFFCURVE",
"563 260 CURVE",
"563 421 OFFCURVE",
"451 520 OFFCURVE",
"278 520 CURVE",
"30 520 LINE",
"30 497 LINE",
"278 497 LINE",
"441 497 OFFCURVE",
"538 404 OFFCURVE",
"538 260 CURVE",
"538 116 OFFCURVE",
"441 23 OFFCURVE",
"278 23 CURVE",
"30 23 LINE",
"30 0 LINE"
);
},
{
closed = 1;
nodes = (
"168 13 LINE",
"168 507 LINE",
"143 507 LINE",
"143 13 LINE"
);
}
);
width = 613;
},
{
anchors = (
{
name = bottom;
position = "{300, 0}";
},
{
name = center;
position = "{300, 263}";
},
{
name = top;
position = "{300, 527}";
}
);
layerId = "EB38A4D2-CD30-49BA-8E45-1F04A566FFE8";
name = Bold;
paths = (
{
closed = 1;
nodes = (
"285 0 LINE SMOOTH",
"429 0 OFFCURVE",
"594 73 OFFCURVE",
"594 260 CURVE SMOOTH",
"594 447 OFFCURVE",
"429 520 OFFCURVE",
"285 520 CURVE SMOOTH",
"25 520 LINE",
"25 424 LINE",
"271 424 LINE SMOOTH",
"349 424 OFFCURVE",
"466 404 OFFCURVE",
"466 260 CURVE SMOOTH",
"466 116 OFFCURVE",
"349 98 OFFCURVE",
"271 98 CURVE SMOOTH",
"25 98 LINE",
"25 0 LINE"
);
},
{
closed = 1;
nodes = (
"233 56 LINE",
"233 464 LINE",
"110 464 LINE",
"110 56 LINE"
);
}
);
width = 619;
},
{
anchors = (
{
name = bottom;
position = "{497, 0}";
},
{
name = center;
position = "{497, 263}";
},
{
name = top;
position = "{497, 557}";
}
);
layerId = "C70E3B11-AF58-44B6-92D7-58C9185F522D";
name = "Bold Extended";
paths = (
{
closed = 1;
nodes = (
"577 0 LINE",
"753 0 OFFCURVE",
"940 59 OFFCURVE",
"940 260 CURVE",
"940 461 OFFCURVE",
"753 520 OFFCURVE",
"577 520 CURVE",
"51 520 LINE",
"51 424 LINE",
"558 424 LINE",
"667 424 OFFCURVE",
"812 418 OFFCURVE",
"812 260 CURVE",
"812 102 OFFCURVE",
"667 98 OFFCURVE",
"558 98 CURVE",
"51 98 LINE",
"51 0 LINE"
);
},
{
closed = 1;
nodes = (
"328 56 LINE",
"328 464 LINE",
"205 464 LINE",
"205 56 LINE"
);
}
);
width = 985;
}
);
leftKerningGroup = H;
leftMetricsKey = "=H";
rightKerningGroup = O;
rightMetricsKey = "=O";
unicode = 0044;
},
{
glyphname = E;
lastChange = "2015-11-25 14:56:04 +0000";
layers = (
{
anchors = (
{
name = bottom;
position = "{501, 0}";
},
{
name = ogonek;
position = "{862, 0}";
},
{
name = top;
position = "{529, 520}";
}
);
background = {
paths = (
{
closed = 1;
nodes = (
"891 7 LINE",
"891 189 LINE",
"865 189 LINE",
"865 33 LINE",
"83 33 LINE",
"83 7 LINE"
);
},
{
closed = 1;
nodes = (
"291 25 LINE",
"291 479 LINE",
"265 479 LINE",
"265 25 LINE"
);
},
{
closed = 1;
nodes = (
"608 260 LINE",
"608 286 LINE",
"278 286 LINE",
"278 260 LINE"
);
},
{
closed = 1;
nodes = (
"621 144 LINE",
"621 390 LINE",
"595 390 LINE",
"595 144 LINE"
);
},
{
closed = 1;
nodes = (
"867 464 LINE",
"867 313 LINE",
"893 313 LINE",
"893 490 LINE",
"86 490 LINE",
"85 464 LINE"
);
}
);
};
guideLines = (
{
position = "{417, 307}";
}
);
layerId = "B29C398E-974A-40D0-A0A0-00935056D4B4";
name = "Light Extended";
paths = (
{
closed = 1;
nodes = (
"862 0 LINE",
"862 183 LINE",
"838 183 LINE",
"838 23 LINE",
"56 23 LINE",
"56 0 LINE"
);
},
{
closed = 1;
nodes = (
"263 13 LINE",
"263 507 LINE",
"238 507 LINE",
"238 13 LINE"
);
},
{
closed = 1;
nodes = (
"583 261 LINE",
"583 284 LINE",
"260 284 LINE",
"260 261 LINE"
);
},
{
closed = 1;
nodes = (
"596 153 LINE",
"596 392 LINE",
"571 392 LINE",
"571 153 LINE"
);
},
{
closed = 1;
nodes = (
"862 337 LINE",
"862 520 LINE",
"56 520 LINE",
"56 497 LINE",
"837 497 LINE",
"837 337 LINE"
);
}
);
width = 992;
},
{
anchors = (
{
name = bottom;
position = "{307, 0}";
},
{
name = ogonek;
position = "{516, 0}";
},
{
name = top;
position = "{312, 520}";
}
);
background = {
paths = (
{
closed = 1;
nodes = (
"796 0 LINE",
"796 184 LINE",
"779 184 LINE",
"779 23 LINE",
"204 23 LINE",
"204 0 LINE"
);
},
{
closed = 1;
nodes = (
"591 258 LINE",
"591 281 LINE",
"353 281 LINE",
"353 258 LINE"
);
},
{
closed = 1;
nodes = (
"601 145 LINE",
"601 382 LINE",
"583 382 LINE",
"583 145 LINE"
);
},
{
closed = 1;
nodes = (
"778 491 LINE",
"778 333 LINE",
"796 333 LINE",
"796 514 LINE",
"204 514 LINE",
"204 491 LINE"
);
},
{
closed = 1;
nodes = (
"356 13 LINE",
"356 501 LINE",
"338 501 LINE",
"338 13 LINE"
);
}
);
};
layerId = "543F9737-16F7-428D-9F96-2EBD9FC8D3B6";
name = Light;
paths = (
{
closed = 1;
nodes = (
"517 0 LINE",
"517 136 LINE",
"493 136 LINE",
"493 23 LINE",
"30 23 LINE",
"30 0 LINE"
);
},
{
closed = 1;
nodes = (
"168 13 LINE",
"168 507 LINE",
"143 507 LINE",
"143 13 LINE"
);
},
{
closed = 1;
nodes = (
"348 261 LINE",
"348 284 LINE",
"165 284 LINE",
"165 261 LINE"
);
},
{
closed = 1;
nodes = (
"361 178 LINE",
"361 367 LINE",
"336 367 LINE",
"336 178 LINE"
);
},
{
closed = 1;
nodes = (
"517 384 LINE",
"517 520 LINE",
"30 520 LINE",
"30 497 LINE",
"492 497 LINE",
"492 384 LINE"
);
}
);
width = 587;
},
{
anchors = (
{
name = bottom;
position = "{329, 0}";
},
{
name = ogonek;
position = "{562, 0}";
},
{
name = top;
position = "{305, 520}";
}
);
layerId = "EB38A4D2-CD30-49BA-8E45-1F04A566FFE8";
name = Bold;
paths = (
{
closed = 1;
nodes = (
"562 0 LINE",
"562 193 LINE",
"454 193 LINE",
"454 96 LINE",
"25 96 LINE",
"25 0 LINE"
);
},
{
closed = 1;
nodes = (
"231 53 LINE",
"231 458 LINE",
"109 458 LINE",
"109 53 LINE"
);
},
{
closed = 1;
nodes = (
"359 209 LINE",
"359 299 LINE",
"153 299 LINE",
"153 209 LINE"
);
},
{
closed = 1;
nodes = (
"399 151 LINE",
"399 357 LINE",
"309 357 LINE",
"309 151 LINE"
);
},
{
closed = 1;
nodes = (
"562 327 LINE",
"562 520 LINE",
"25 520 LINE",
"25 424 LINE",
"454 424 LINE",
"454 327 LINE"
);
}
);
width = 612;
},
{
anchors = (
{
name = bottom;
position = "{540, -2}";
},
{
name = ogonek;
position = "{907, 0}";
},
{
name = top;
position = "{544, 520}";
}
);
layerId = "C70E3B11-AF58-44B6-92D7-58C9185F522D";
name = "Bold Extended";
paths = (
{
closed = 1;
nodes = (
"907 0 LINE",
"907 210 LINE",
"799 210 LINE",
"799 96 LINE",
"51 96 LINE",
"51 0 LINE"
);
},
{
closed = 1;
nodes = (
"326 53 LINE",
"326 458 LINE",
"204 458 LINE",
"204 53 LINE"
);
},
{
closed = 1;
nodes = (
"594 210 LINE",
"594 297 LINE",
"248 297 LINE",
"248 210 LINE"
);
},
{
closed = 1;
nodes = (
"634 146 LINE",
"634 362 LINE",
"538 362 LINE",
"538 146 LINE"
);
},
{
closed = 1;
nodes = (
"907 310 LINE",
"907 520 LINE",
"51 520 LINE",
"51 424 LINE",
"799 424 LINE",
"799 310 LINE"
);
}
);
width = 1007;
}
);
leftKerningGroup = H;
leftMetricsKey = "=H";
rightKerningGroup = E;
unicode = 0045;
},
{
glyphname = F;
lastChange = "2015-11-25 00:48:06 +0000";
layers = (
{
anchors = (
{
name = bottom;
position = "{449, 0}";
},
{
name = top;
position = "{449, 490}";
}
);
layerId = "B29C398E-974A-40D0-A0A0-00935056D4B4";
name = "Light Extended";
paths = (
{
closed = 1;
nodes = (
"812 337 LINE",
"812 520 LINE",
"56 520 LINE",
"56 497 LINE",
"788 497 LINE",
"788 337 LINE"
);
},
{
closed = 1;
nodes = (
"455 0 LINE",
"455 23 LINE",
"56 23 LINE",
"56 0 LINE"
);
},
{
closed = 1;
nodes = (
"263 13 LINE",
"263 507 LINE",
"238 507 LINE",
"238 13 LINE"
);
},
{
closed = 1;
nodes = (
"553 240 LINE",
"553 263 LINE",
"260 263 LINE",
"260 240 LINE"
);
},
{
closed = 1;
nodes = (
"565 132 LINE",
"565 371 LINE",
"541 371 LINE",
"541 132 LINE"
);
}
);
width = 887;
},
{
anchors = (
{
name = bottom;
position = "{280, 0}";
},
{
name = top;
position = "{280, 490}";
}
);
layerId = "543F9737-16F7-428D-9F96-2EBD9FC8D3B6";
name = Light;
paths = (
{
closed = 1;
nodes = (
"527 384 LINE",
"527 520 LINE",
"30 520 LINE",
"30 497 LINE",
"502 497 LINE",
"502 384 LINE"
);
},
{
closed = 1;
nodes = (
"286 0 LINE",
"286 23 LINE",
"30 23 LINE",
"30 0 LINE"
);
},
{
closed = 1;
nodes = (
"168 13 LINE",
"168 507 LINE",
"143 507 LINE",
"143 13 LINE"
);
},
{
closed = 1;
nodes = (
"368 241 LINE",
"368 264 LINE",
"165 264 LINE",
"165 241 LINE"
);
},
{
closed = 1;
nodes = (
"381 158 LINE",
"381 347 LINE",
"356 347 LINE",
"356 158 LINE"
);
}
);
width = 557;
},
{
anchors = (
{
name = bottom;
position = "{305, 0}";
},
{
name = top;
position = "{305, 527}";
}
);
layerId = "EB38A4D2-CD30-49BA-8E45-1F04A566FFE8";
name = Bold;
paths = (
{
closed = 1;
nodes = (
"536 320 LINE",
"536 520 LINE",
"25 520 LINE",
"25 424 LINE",
"428 424 LINE",
"428 320 LINE"
);
},
{
closed = 1;
nodes = (
"321 0 LINE",
"321 96 LINE",
"25 96 LINE",
"25 0 LINE"
);
},
{
closed = 1;
nodes = (
"232 53 LINE",
"232 464 LINE",
"110 464 LINE",
"110 53 LINE"
);
},
{
closed = 1;
nodes = (
"347 208 LINE",
"347 298 LINE",
"154 298 LINE",
"154 208 LINE"
);
},
{
closed = 1;
nodes = (
"387 149 LINE",
"387 356 LINE",
"297 356 LINE",
"297 149 LINE"
);
}
);
width = 561;
},
{
anchors = (
{
name = bottom;
position = "{474, 0}";
},
{
name = top;
position = "{474, 527}";
}
);
layerId = "C70E3B11-AF58-44B6-92D7-58C9185F522D";
name = "Bold Extended";
paths = (
{
closed = 1;
nodes = (
"881 310 LINE",
"881 520 LINE",
"51 520 LINE",
"51 424 LINE",
"774 424 LINE",
"774 310 LINE"
);
},
{
closed = 1;
nodes = (
"490 0 LINE",
"490 96 LINE",
"51 96 LINE",
"51 0 LINE"
);
},
{
closed = 1;
nodes = (
"327 53 LINE",
"327 464 LINE",
"205 464 LINE",
"205 53 LINE"
);
},
{
closed = 1;
nodes = (
"588 208 LINE",
"588 295 LINE",
"249 295 LINE",
"249 208 LINE"
);
},
{
closed = 1;
nodes = (
"627 143 LINE",
"627 360 LINE",
"532 360 LINE",
"532 143 LINE"
);
}
);
width = 931;
}
);
leftKerningGroup = H;
leftMetricsKey = "=H";
rightKerningGroup = F;
unicode = 0046;
},
{
color = 4;
glyphname = G;
lastChange = "2015-11-24 16:26:10 +0000";
layers = (
{
anchors = (
{
name = bottom;
position = "{439, -10}";
},
{
name = top;
position = "{439, 530}";
}
);
background = {
paths = (
{
closed = 1;
nodes = (
"663 -10 OFFCURVE",
"809 106 OFFCURVE",
"809 252 CURVE SMOOTH",
"809 254 LINE",
"432 254 LINE",
"432 231 LINE",
"784 231 LINE",
"771 118 OFFCURVE",
"657 13 OFFCURVE",
"436 13 CURVE SMOOTH",
"254 13 OFFCURVE",
"105 107 OFFCURVE",
"105 259 CURVE SMOOTH",
"105 413 OFFCURVE",
"259 507 OFFCURVE",
"444 507 CURVE SMOOTH",
"576 507 OFFCURVE",
"699 461 OFFCURVE",
"801 324 CURVE",
"801 520 LINE",
"778 520 LINE",
"778 371 LINE",
"782 377 LINE",
"712 466 OFFCURVE",
"605 530 OFFCURVE",
"444 530 CURVE SMOOTH",
"251 530 OFFCURVE",
"80 431 OFFCURVE",
"80 259 CURVE SMOOTH",
"80 89 OFFCURVE",
"244 -10 OFFCURVE",
"436 -10 CURVE SMOOTH"
);
}
);
};
layerId = "B29C398E-974A-40D0-A0A0-00935056D4B4";
name = "Light Extended";
paths = (
{
closed = 1;
nodes = (
"663 -10 OFFCURVE",
"809 106 OFFCURVE",
"809 252 CURVE SMOOTH",
"809 254 LINE",
"432 254 LINE",
"432 231 LINE",
"784 231 LINE",
"771 118 OFFCURVE",
"657 13 OFFCURVE",
"436 13 CURVE SMOOTH",
"254 13 OFFCURVE",
"105 107 OFFCURVE",
"105 259 CURVE SMOOTH",
"105 413 OFFCURVE",
"259 507 OFFCURVE",
"444 507 CURVE SMOOTH",
"582 507 OFFCURVE",
"699 461 OFFCURVE",
"789 330 CURVE",
"801 331 LINE",
"801 520 LINE",
"778 520 LINE",
"778 361 LINE",
"789 361 LINE",
"720 461 OFFCURVE",
"605 530 OFFCURVE",
"444 530 CURVE SMOOTH",
"251 530 OFFCURVE",
"80 431 OFFCURVE",
"80 259 CURVE SMOOTH",
"80 89 OFFCURVE",
"244 -10 OFFCURVE",
"436 -10 CURVE SMOOTH"
);
}
);
width = 899;
},
{
anchors = (
{
name = bottom;
position = "{299, -10}";
},
{
name = top;
position = "{299, 530}";
}
);
background = {
paths = (
{
closed = 1;
nodes = (
"442 -11 OFFCURVE",
"534 95 OFFCURVE",
"534 245 CURVE SMOOTH",
"534 254 LINE",
"282 254 LINE",
"282 231 LINE",
"509 231 LINE",
"507 113 OFFCURVE",
"435 12 OFFCURVE",
"301 12 CURVE SMOOTH",
"174 12 OFFCURVE",
"75 111 OFFCURVE",
"75 260 CURVE SMOOTH",
"75 409 OFFCURVE",
"179 507 OFFCURVE",
"301 507 CURVE SMOOTH",
"408 507 OFFCURVE",
"469 454 OFFCURVE",
"509 370 CURVE",
"521 371 LINE",
"521 520 LINE",
"498 520 LINE",
"498 413 LINE",
"501 419 LINE",
"470 476 OFFCURVE",
"405 530 OFFCURVE",
"301 530 CURVE SMOOTH",
"171 530 OFFCURVE",
"50 427 OFFCURVE",
"50 260 CURVE SMOOTH",
"50 93 OFFCURVE",
"164 -11 OFFCURVE",
"301 -11 CURVE SMOOTH"
);
}
);
};
layerId = "543F9737-16F7-428D-9F96-2EBD9FC8D3B6";
name = Light;
paths = (
{
closed = 1;
nodes = (
"442 -11 OFFCURVE",
"534 95 OFFCURVE",
"534 235 CURVE SMOOTH",
"534 244 LINE",
"282 244 LINE",
"282 221 LINE",
"509 221 LINE",
"507 113 OFFCURVE",
"435 12 OFFCURVE",
"301 12 CURVE SMOOTH",
"174 12 OFFCURVE",
"75 111 OFFCURVE",
"75 260 CURVE SMOOTH",
"75 409 OFFCURVE",
"179 507 OFFCURVE",
"301 507 CURVE SMOOTH",
"408 507 OFFCURVE",
"469 454 OFFCURVE",
"509 370 CURVE",
"521 371 LINE",
"521 520 LINE",
"498 520 LINE",
"498 413 LINE",
"507 413 LINE",
"485 458 OFFCURVE",
"415 530 OFFCURVE",
"301 530 CURVE SMOOTH",
"171 530 OFFCURVE",
"50 427 OFFCURVE",
"50 260 CURVE SMOOTH",
"50 93 OFFCURVE",
"164 -11 OFFCURVE",
"301 -11 CURVE SMOOTH"
);
}
);
width = 599;
},
{
anchors = (
{
name = bottom;
position = "{311, -10}";
},
{
name = top;
position = "{311, 530}";
}
);
layerId = "EB38A4D2-CD30-49BA-8E45-1F04A566FFE8";
name = Bold;
paths = (
{
closed = 1;
nodes = (
"467 -11 OFFCURVE",
"577 105 OFFCURVE",
"577 252 CURVE SMOOTH",
"577 282 LINE",
"272 282 LINE",
"272 186 LINE",
"451 186 LINE",
"443 135 OFFCURVE",
"391 85 OFFCURVE",
"310 85 CURVE SMOOTH",
"222 85 OFFCURVE",
"153 162 OFFCURVE",
"153 260 CURVE SMOOTH",
"153 358 OFFCURVE",
"225 435 OFFCURVE",
"316 435 CURVE SMOOTH",
"395 435 OFFCURVE",
"451 386 OFFCURVE",
"478 342 CURVE",
"558 347 LINE",
"558 520 LINE",
"448 520 LINE",
"448 424 LINE",
"504 407 LINE",
"463 481 OFFCURVE",
"387 530 OFFCURVE",
"284 530 CURVE SMOOTH",
"139 530 OFFCURVE",
"25 411 OFFCURVE",
"25 260 CURVE SMOOTH",
"25 108 OFFCURVE",
"148 -11 OFFCURVE",
"305 -11 CURVE SMOOTH"
);
}
);
width = 602;
},
{
anchors = (
{
name = bottom;
position = "{461, -10}";
},
{
name = top;
position = "{461, 530}";
}
);
layerId = "C70E3B11-AF58-44B6-92D7-58C9185F522D";
name = "Bold Extended";
paths = (
{
closed = 1;
nodes = (
"700 -10 OFFCURVE",
"842 96 OFFCURVE",
"842 259 CURVE SMOOTH",
"842 282 LINE",
"412 282 LINE",
"412 196 LINE",
"716 196 LINE",
"706 140 OFFCURVE",
"603 86 OFFCURVE",
"455 86 CURVE SMOOTH",
"292 86 OFFCURVE",
"173 148 OFFCURVE",
"173 259 CURVE SMOOTH",
"173 372 OFFCURVE",
"295 435 OFFCURVE",
"449 435 CURVE SMOOTH",
"569 435 OFFCURVE",
"671 393 OFFCURVE",
"748 332 CURVE",
"828 347 LINE",
"828 520 LINE",
"718 520 LINE",
"718 402 LINE",
"776 385 LINE",
"688 484 OFFCURVE",
"567 530 OFFCURVE",
"417 530 CURVE SMOOTH",
"209 530 OFFCURVE",
"45 425 OFFCURVE",
"45 259 CURVE SMOOTH",
"45 94 OFFCURVE",
"218 -10 OFFCURVE",
"450 -10 CURVE SMOOTH"
);
}
);
width = 902;
}
);
leftKerningGroup = O;
rightKerningGroup = G;
unicode = 0047;
},
{
glyphname = H;
lastChange = "2015-11-24 20:21:26 +0000";
layers = (
{
anchors = (
{
name = bottom;
position = "{566, 0}";
},
{
name = center;
position = "{566, 265}";
},
{
name = top;
position = "{566, 520}";
}
);
layerId = "B29C398E-974A-40D0-A0A0-00935056D4B4";
name = "Light Extended";
paths = (
{
closed = 1;
nodes = (
"875 253 LINE",
"875 276 LINE",
"258 276 LINE",
"258 253 LINE"
);
},
{
closed = 1;
nodes = (
"445 0 LINE",
"445 23 LINE",
"56 23 LINE",
"56 0 LINE"
);
},
{
closed = 1;
nodes = (
"263 11 LINE",
"263 507 LINE",
"238 507 LINE",
"238 11 LINE"
);
},
{
closed = 1;
nodes = (
"445 497 LINE",
"445 520 LINE",
"56 520 LINE",
"56 497 LINE"
);
},
{
closed = 1;
nodes = (
"1076 0 LINE",
"1076 23 LINE",
"687 23 LINE",
"687 0 LINE"
);
},
{
closed = 1;
nodes = (
"894 13 LINE",
"894 509 LINE",
"869 509 LINE",
"869 13 LINE"
);
},
{
closed = 1;
nodes = (
"1076 497 LINE",
"1076 520 LINE",
"687 520 LINE",
"687 497 LINE"
);
}
);
width = 1132;
},
{
anchors = (
{
name = bottom;
position = "{360, 0}";
},
{
name = center;
position = "{360, 245}";
},
{
name = top;
position = "{360, 490}";
}
);
background = {
paths = (
{
closed = 1;
nodes = (
"577 13 LINE",
"577 479 LINE",
"552 479 LINE",
"552 13 LINE"
);
},
{
closed = 1;
nodes = (
"271 0 LINE",
"271 25 LINE",
"30 25 LINE",
"30 0 LINE"
);
},
{
closed = 1;
nodes = (
"167 13 LINE",
"167 479 LINE",
"143 479 LINE",
"143 13 LINE"
);
},
{
closed = 1;
nodes = (
"558 230 LINE",
"558 254 LINE",
"162 254 LINE",
"162 230 LINE"
);
},
{
closed = 1;
nodes = (
"271 465 LINE",
"271 490 LINE",
"30 490 LINE",
"30 465 LINE"
);
},
{
closed = 1;
nodes = (
"689 0 LINE",
"689 25 LINE",
"448 25 LINE",
"448 0 LINE"
);
},
{
closed = 1;
nodes = (
"689 465 LINE",
"689 490 LINE",
"448 490 LINE",
"448 465 LINE"
);
}
);
};
layerId = "543F9737-16F7-428D-9F96-2EBD9FC8D3B6";
name = Light;
paths = (
{
closed = 1;
nodes = (
"558 252 LINE",
"558 275 LINE",
"162 275 LINE",
"162 252 LINE"
);
},
{
closed = 1;
nodes = (
"280 0 LINE",
"280 23 LINE",
"30 23 LINE",
"30 0 LINE"
);
},
{
closed = 1;
nodes = (
"167 13 LINE",
"167 509 LINE",
"143 509 LINE",
"143 13 LINE"
);
},
{
closed = 1;
nodes = (
"280 497 LINE",
"280 520 LINE",
"30 520 LINE",
"30 497 LINE"
);
},
{
closed = 1;
nodes = (
"690 0 LINE",
"690 23 LINE",
"439 23 LINE",
"439 0 LINE"
);
},
{
closed = 1;
nodes = (
"577 13 LINE",
"577 509 LINE",
"552 509 LINE",
"552 13 LINE"
);
},
{
closed = 1;
nodes = (
"690 497 LINE",
"690 520 LINE",
"439 520 LINE",
"439 497 LINE"
);
}
);
width = 720;
},
{
anchors = (
{
name = bottom;
position = "{348, 0}";
},
{
name = center;
position = "{348, 257}";
},
{
name = top;
position = "{348, 527}";
}
);
layerId = "EB38A4D2-CD30-49BA-8E45-1F04A566FFE8";
name = Bold;
paths = (
{
closed = 1;
nodes = (
"551 220 LINE",
"551 310 LINE",
"148 310 LINE",
"148 220 LINE"
);
},
{
closed = 1;
nodes = (
"317 0 LINE",
"317 96 LINE",
"25 96 LINE",
"25 0 LINE"
);
},
{
closed = 1;
nodes = (
"233 53 LINE",
"233 464 LINE",
"110 464 LINE",
"110 53 LINE"
);
},
{
closed = 1;
nodes = (
"317 424 LINE",
"317 520 LINE",
"25 520 LINE",
"25 424 LINE"
);
},
{
closed = 1;
nodes = (
"673 0 LINE",
"673 96 LINE",
"382 96 LINE",
"382 0 LINE"
);
},
{
closed = 1;
nodes = (
"589 56 LINE",
"589 467 LINE",
"466 467 LINE",
"466 56 LINE"
);
},
{
closed = 1;
nodes = (
"673 424 LINE",
"673 520 LINE",
"382 520 LINE",
"382 424 LINE"
);
}
);
width = 698;
},
{
anchors = (
{
name = bottom;
position = "{564, 0}";
},
{
name = center;
position = "{564, 277}";
},
{
name = top;
position = "{564, 557}";
}
);
layerId = "C70E3B11-AF58-44B6-92D7-58C9185F522D";
name = "Bold Extended";
paths = (
{
closed = 1;
nodes = (
"888 218 LINE",
"888 314 LINE",
"244 314 LINE",
"244 218 LINE"
);
},
{
closed = 1;
nodes = (
"482 0 LINE",
"482 96 LINE",
"51 96 LINE",
"51 0 LINE"
);
},
{
closed = 1;
nodes = (
"329 51 LINE",
"329 462 LINE",
"205 462 LINE",
"205 51 LINE"
);
},
{
closed = 1;
nodes = (
"482 424 LINE",
"482 520 LINE",
"51 520 LINE",
"51 424 LINE"
);
},
{
closed = 1;
nodes = (
"1079 0 LINE",
"1079 96 LINE",
"650 96 LINE",
"650 0 LINE"
);
},
{
closed = 1;
nodes = (
"926 56 LINE",
"926 467 LINE",
"803 467 LINE",
"803 56 LINE"
);
},
{
closed = 1;
nodes = (
"1079 424 LINE",
"1079 520 LINE",
"650 520 LINE",
"650 424 LINE"
);
}
);
width = 1130;
}
);
leftKerningGroup = H;
rightKerningGroup = H;
unicode = 0048;
},
{
glyphname = Hbar;
lastChange = "2015-11-25 03:14:34 +0000";
layers = (
{
anchors = (
{
name = bottom;
position = "{571, 0}";
},
{
name = center;
position = "{571, 255}";
},
{
name = top;
position = "{571, 520}";
}
);
layerId = "B29C398E-974A-40D0-A0A0-00935056D4B4";
name = "Light Extended";
paths = (
{
closed = 1;
nodes = (
"1076 370 LINE",
"1076 392 LINE",
"56 392 LINE",
"56 370 LINE"
);
},
{
closed = 1;
nodes = (
"445 0 LINE",
"445 23 LINE",
"56 23 LINE",
"56 0 LINE"
);
},
{
closed = 1;
nodes = (
"263 11 LINE",
"263 507 LINE",
"238 507 LINE",
"238 11 LINE"
);
},
{
closed = 1;
nodes = (
"1076 0 LINE",
"1076 23 LINE",
"687 23 LINE",
"687 0 LINE"
);
},
{
closed = 1;
nodes = (
"875 253 LINE",
"875 276 LINE",
"258 276 LINE",
"258 253 LINE"
);
},
{
closed = 1;
nodes = (
"445 497 LINE",
"445 520 LINE",
"56 520 LINE",
"56 497 LINE"
);
},
{
closed = 1;
nodes = (
"894 13 LINE",
"894 509 LINE",
"869 509 LINE",
"869 13 LINE"
);
},
{
closed = 1;
nodes = (
"1076 497 LINE",
"1076 520 LINE",
"687 520 LINE",
"687 497 LINE"
);
}
);
width = 1132;
},
{
anchors = (
{
name = bottom;
position = "{371, 0}";
},
{
name = center;
position = "{371, 255}";
},
{
name = top;
position = "{371, 520}";
}
);
layerId = "543F9737-16F7-428D-9F96-2EBD9FC8D3B6";
name = Light;
paths = (
{
closed = 1;
nodes = (
"668 365 LINE",
"668 387 LINE",
"58 387 LINE",
"58 365 LINE"
);
},
{
closed = 1;
nodes = (
"280 0 LINE",
"280 23 LINE",
"30 23 LINE",
"30 0 LINE"
);
},
{
closed = 1;
nodes = (
"167 13 LINE",
"167 509 LINE",
"143 509 LINE",
"143 13 LINE"
);
},
{
closed = 1;
nodes = (
"690 0 LINE",
"690 23 LINE",
"439 23 LINE",
"439 0 LINE"
);
},
{
closed = 1;
nodes = (
"558 238 LINE",
"558 261 LINE",
"162 261 LINE",
"162 238 LINE"
);
},
{
closed = 1;
nodes = (
"280 497 LINE",
"280 520 LINE",
"30 520 LINE",
"30 497 LINE"
);
},
{
closed = 1;
nodes = (
"577 13 LINE",
"577 509 LINE",
"552 509 LINE",
"552 13 LINE"
);
},
{
closed = 1;
nodes = (
"690 497 LINE",
"690 520 LINE",
"439 520 LINE",
"439 497 LINE"
);
}
);
width = 720;
},
{
anchors = (
{
name = bottom;
position = "{356, 0}";
},
{
name = center;
position = "{356, 255}";
},
{
name = top;
position = "{356, 520}";
}
);
layerId = "EB38A4D2-CD30-49BA-8E45-1F04A566FFE8";
name = Bold;
paths = (
{
closed = 1;
nodes = (
"669 313 LINE",
"669 387 LINE",
"49 387 LINE",
"49 313 LINE"
);
},
{
closed = 1;
nodes = (
"317 0 LINE",
"317 96 LINE",
"25 96 LINE",
"25 0 LINE"
);
},
{
closed = 1;
nodes = (
"232 53 LINE",
"232 464 LINE",
"110 464 LINE",
"110 53 LINE"
);
},
{
closed = 1;
nodes = (
"694 0 LINE",
"694 96 LINE",
"401 96 LINE",
"401 0 LINE"
);
},
{
closed = 1;
nodes = (
"571 189 LINE",
"571 276 LINE",
"148 276 LINE",
"148 189 LINE"
);
},
{
closed = 1;
nodes = (
"317 424 LINE",
"317 520 LINE",
"25 520 LINE",
"25 424 LINE"
);
},
{
closed = 1;
nodes = (
"609 56 LINE",
"609 467 LINE",
"486 467 LINE",
"486 56 LINE"
);
},
{
closed = 1;
nodes = (
"694 424 LINE",
"694 520 LINE",
"401 520 LINE",
"401 424 LINE"
);
}
);
width = 719;
},
{
anchors = (
{
name = bottom;
position = "{560, 0}";
},
{
name = center;
position = "{560, 255}";
},
{
name = top;
position = "{560, 520}";
}
);
layerId = "C70E3B11-AF58-44B6-92D7-58C9185F522D";
name = "Bold Extended";
paths = (
{
closed = 1;
nodes = (
"1081 318 LINE",
"1081 392 LINE",
"51 392 LINE",
"51 318 LINE"
);
},
{
closed = 1;
nodes = (
"486 0 LINE",
"486 96 LINE",
"55 96 LINE",
"55 0 LINE"
);
},
{
closed = 1;
nodes = (
"332 51 LINE",
"332 462 LINE",
"209 462 LINE",
"209 51 LINE"
);
},
{
closed = 1;
nodes = (
"1084 0 LINE",
"1084 96 LINE",
"653 96 LINE",
"653 0 LINE"
);
},
{
closed = 1;
nodes = (
"892 204 LINE",
"892 291 LINE",
"248 291 LINE",
"248 204 LINE"
);
},
{
closed = 1;
nodes = (
"486 424 LINE",
"486 520 LINE",
"55 520 LINE",
"55 424 LINE"
);
},
{
closed = 1;
nodes = (
"930 56 LINE",
"930 467 LINE",
"807 467 LINE",
"807 56 LINE"
);
},
{
closed = 1;
nodes = (
"1084 424 LINE",
"1084 520 LINE",
"653 520 LINE",
"653 424 LINE"
);
}
);
width = 1135;
}
);
leftKerningGroup = H;
leftMetricsKey = "=H";
rightKerningGroup = H;
rightMetricsKey = "=H";
unicode = 0126;
},
{
glyphname = I;
lastChange = "2015-11-25 14:56:22 +0000";
layers = (
{
anchors = (
{
name = bottom;
position = "{251, 0}";
},
{
name = ogonek;
position = "{445, 0}";
},
{
name = top;
position = "{251, 520}";
}
);
layerId = "B29C398E-974A-40D0-A0A0-00935056D4B4";
name = "Light Extended";
paths = (
{
closed = 1;
nodes = (
"263 13 LINE SMOOTH",
"263 507 LINE SMOOTH",
"238 507 LINE SMOOTH",
"238 13 LINE SMOOTH"
);
},
{
closed = 1;
nodes = (
"445 0 LINE SMOOTH",
"445 23 LINE SMOOTH",
"56 23 LINE SMOOTH",
"56 0 LINE SMOOTH"
);
},
{
closed = 1;
nodes = (
"445 497 LINE SMOOTH",
"445 520 LINE SMOOTH",
"56 520 LINE SMOOTH",
"56 497 LINE SMOOTH"
);
}
);
width = 501;
},
{
anchors = (
{
name = bottom;
position = "{155, 0}";
},
{
name = ogonek;
position = "{281, 0}";
},
{
name = top;
position = "{156, 520}";
}
);
layerId = "543F9737-16F7-428D-9F96-2EBD9FC8D3B6";
name = Light;
paths = (
{
closed = 1;
nodes = (
"168 13 LINE",
"168 509 LINE",
"143 509 LINE",
"143 13 LINE"
);
},
{
closed = 1;
nodes = (
"281 0 LINE",
"281 23 LINE",
"30 23 LINE",
"30 0 LINE"
);
},
{
closed = 1;
nodes = (
"281 497 LINE",
"281 520 LINE",
"30 520 LINE",
"30 497 LINE"
);
}
);
width = 311;
},
{
anchors = (
{
name = bottom;
position = "{173, 0}";
},
{
name = ogonek;
position = "{318, 0}";
},
{
name = top;
position = "{173, 520}";
}
);
layerId = "EB38A4D2-CD30-49BA-8E45-1F04A566FFE8";
name = Bold;
paths = (
{
closed = 1;
nodes = (
"233 57 LINE",
"233 464 LINE",
"110 464 LINE",
"110 57 LINE"
);
},
{
closed = 1;
nodes = (
"318 0 LINE",
"318 96 LINE",
"25 96 LINE",
"25 0 LINE"
);
},
{
closed = 1;
nodes = (
"318 424 LINE",
"318 520 LINE",
"25 520 LINE",
"25 424 LINE"
);
}
);
width = 343;
},
{
anchors = (
{
name = bottom;
position = "{267, 0}";
},
{
name = ogonek;
position = "{482, 0}";
},
{
name = top;
position = "{268, 520}";
}
);
layerId = "C70E3B11-AF58-44B6-92D7-58C9185F522D";
name = "Bold Extended";
paths = (
{
closed = 1;
nodes = (
"328 57 LINE",
"328 462 LINE",
"205 462 LINE",
"205 57 LINE"
);
},
{
closed = 1;
nodes = (
"482 0 LINE",
"482 96 LINE",
"51 96 LINE",
"51 0 LINE"
);
},
{
closed = 1;
nodes = (
"482 424 LINE",
"482 520 LINE",
"51 520 LINE",
"51 424 LINE"
);
}
);
width = 533;
}
);
leftKerningGroup = H;
leftMetricsKey = "=H";
rightKerningGroup = H;
rightMetricsKey = "=H";
unicode = 0049;
},
{
color = 4;
glyphname = J;
lastChange = "2015-11-25 02:49:08 +0000";
layers = (
{
anchors = (
{
name = bottom;
position = "{338, 0}";
},
{
name = top;
position = "{338, 520}";
}
);
background = {
paths = (
{
closed = 1;
nodes = (
"631 467 LINE",
"631 490 LINE",
"206 490 LINE",
"206 467 LINE"
);
},
{
closed = 1;
nodes = (
"18 103 LINE",
"57 45 OFFCURVE",
"131 -20 OFFCURVE",
"249 -20 CURVE SMOOTH",
"381 -20 OFFCURVE",
"471 55 OFFCURVE",
"471 176 CURVE SMOOTH",
"471 477 LINE",
"446 477 LINE",
"446 176 LINE SMOOTH",
"446 58 OFFCURVE",
"355 3 OFFCURVE",
"249 3 CURVE SMOOTH",
"148 3 OFFCURVE",
"77 62 OFFCURVE",
"37 117 CURVE"
);
}
);
};
layerId = "B29C398E-974A-40D0-A0A0-00935056D4B4";
name = "Light Extended";
paths = (
{
closed = 1;
nodes = (
"381 -10 OFFCURVE",
"471 65 OFFCURVE",
"471 186 CURVE SMOOTH",
"471 507 LINE",
"446 507 LINE",
"446 186 LINE SMOOTH",
"446 68 OFFCURVE",
"355 13 OFFCURVE",
"249 13 CURVE SMOOTH",
"148 13 OFFCURVE",
"77 72 OFFCURVE",
"37 127 CURVE",
"20 111 LINE",
"59 55 OFFCURVE",
"131 -10 OFFCURVE",
"249 -10 CURVE SMOOTH"
);
},
{
closed = 1;
nodes = (
"653 497 LINE",
"653 520 LINE",
"206 520 LINE",
"206 497 LINE"
);
}
);
width = 653;
},
{
anchors = (
{
name = bottom;
position = "{173, 0}";
},
{
name = top;
position = "{173, 520}";
}
);
layerId = "543F9737-16F7-428D-9F96-2EBD9FC8D3B6";
name = Light;
paths = (
{
closed = 1;
nodes = (
"267 -10 OFFCURVE",
"332 54 OFFCURVE",
"332 169 CURVE SMOOTH",
"332 507 LINE",
"306 507 LINE",
"306 164 LINE SMOOTH",
"306 64 OFFCURVE",
"250 13 OFFCURVE",
"174 13 CURVE SMOOTH",
"107 13 OFFCURVE",
"54 46 OFFCURVE",
"20 73 CURVE",
"5 53 LINE",
"43 24 OFFCURVE",
"100 -10 OFFCURVE",
"174 -10 CURVE SMOOTH"
);
},
{
closed = 1;
nodes = (
"445 497 LINE",
"445 520 LINE",
"162 520 LINE",
"162 497 LINE"
);
}
);
width = 450;
},
{
anchors = (
{
name = bottom;
position = "{150, -12}";
},
{
name = top;
position = "{297, 520}";
}
);
layerId = "EB38A4D2-CD30-49BA-8E45-1F04A566FFE8";
name = Bold;
paths = (
{
closed = 1;
nodes = (
"256 -10 OFFCURVE",
"338 54 OFFCURVE",
"338 169 CURVE SMOOTH",
"338 468 LINE",
"217 468 LINE",
"218 177 LINE SMOOTH",
"218 115 OFFCURVE",
"189 94 OFFCURVE",
"148 91 CURVE SMOOTH",
"114 90 OFFCURVE",
"77 110 OFFCURVE",
"52 128 CURVE",
"2 43 LINE",
"32 14 OFFCURVE",
"89 -10 OFFCURVE",
"154 -10 CURVE SMOOTH"
);
},
{
closed = 1;
nodes = (
"422 424 LINE",
"422 520 LINE",
"88 520 LINE",
"88 424 LINE"
);
}
);
width = 427;
},
{
anchors = (
{
name = bottom;
position = "{323, -12}";
},
{
name = top;
position = "{470, 520}";
}
);
layerId = "C70E3B11-AF58-44B6-92D7-58C9185F522D";
name = "Bold Extended";
paths = (
{
closed = 1;
nodes = (
"399 -10 OFFCURVE",
"485 65 OFFCURVE",
"485 199 CURVE SMOOTH",
"485 468 LINE",
"365 468 LINE",
"366 199 LINE SMOOTH",
"366 124 OFFCURVE",
"326 92 OFFCURVE",
"267 92 CURVE SMOOTH",
"201 92 OFFCURVE",
"139 141 OFFCURVE",
"98 179 CURVE",
"33 94 LINE",
"87 50 OFFCURVE",
"164 -10 OFFCURVE",
"268 -10 CURVE SMOOTH"
);
},
{
closed = 1;
nodes = (
"623 424 LINE",
"623 520 LINE",
"175 520 LINE",
"175 424 LINE"
);
}
);
width = 638;
}
);
leftKerningGroup = J;
rightKerningGroup = U;
rightMetricsKey = "=U";
unicode = 004A;
},
{
color = 0;
glyphname = K;
lastChange = "2015-11-24 16:33:33 +0000";
layers = (
{
anchors = (
{
name = bottom;
position = "{525, 0}";
},
{
name = top;
position = "{525, 520}";
}
);
layerId = "B29C398E-974A-40D0-A0A0-00935056D4B4";
name = "Light Extended";
paths = (
{
closed = 1;
nodes = (
"824 507 LINE",
"784 507 LINE",
"250 156 LINE",
"250 129 LINE"
);
},
{
closed = 1;
nodes = (
"445 0 LINE SMOOTH",
"445 23 LINE SMOOTH",
"56 23 LINE SMOOTH",
"56 0 LINE SMOOTH"
);
},
{
closed = 1;
nodes = (
"263 13 LINE SMOOTH",
"263 507 LINE SMOOTH",
"238 507 LINE SMOOTH",
"238 13 LINE SMOOTH"
);
},
{
closed = 1;
nodes = (
"962 0 LINE SMOOTH",
"962 23 LINE SMOOTH",
"610 23 LINE SMOOTH",
"610 0 LINE SMOOTH"
);
},
{
closed = 1;
nodes = (
"830 10 LINE",
"481 294 LINE",
"465 278 LINE",
"795 10 LINE"
);
},
{
closed = 1;
nodes = (
"445 497 LINE SMOOTH",
"445 520 LINE SMOOTH",
"56 520 LINE SMOOTH",
"56 497 LINE SMOOTH"
);
},
{
closed = 1;
nodes = (
"952 497 LINE SMOOTH",
"952 520 LINE SMOOTH",
"600 520 LINE SMOOTH",
"600 497 LINE SMOOTH"
);
}
);
width = 997;
},
{
anchors = (
{
name = bottom;
position = "{346, 0}";
},
{
name = top;
position = "{346, 520}";
}
);
layerId = "543F9737-16F7-428D-9F96-2EBD9FC8D3B6";
name = Light;
paths = (
{
closed = 1;
nodes = (
"563 507 LINE",
"530 507 LINE",
"155 168 LINE",
"155 140 LINE"
);
},
{
closed = 1;
nodes = (
"281 0 LINE SMOOTH",
"281 23 LINE SMOOTH",
"30 23 LINE SMOOTH",
"30 0 LINE SMOOTH"
);
},
{
closed = 1;
nodes = (
"168 13 LINE SMOOTH",
"168 507 LINE SMOOTH",
"143 507 LINE SMOOTH",
"143 13 LINE SMOOTH"
);
},
{
closed = 1;
nodes = (
"637 0 LINE SMOOTH",
"637 23 LINE SMOOTH",
"415 23 LINE SMOOTH",
"415 0 LINE SMOOTH"
);
},
{
closed = 1;
nodes = (
"562 10 LINE",
"319 304 LINE",
"300 288 LINE",
"530 10 LINE"
);
},
{
closed = 1;
nodes = (
"281 497 LINE SMOOTH",
"281 520 LINE SMOOTH",
"30 520 LINE SMOOTH",
"30 497 LINE SMOOTH"
);
},
{
closed = 1;
nodes = (
"627 497 LINE SMOOTH",
"627 520 LINE SMOOTH",
"405 520 LINE SMOOTH",
"405 497 LINE SMOOTH"
);
}
);
width = 637;
},
{
anchors = (
{
name = bottom;
position = "{359, 0}";
},
{
name = top;
position = "{359, 520}";
}
);
layerId = "EB38A4D2-CD30-49BA-8E45-1F04A566FFE8";
name = Bold;
paths = (
{
closed = 1;
nodes = (
"602 442 LINE",
"466 442 LINE",
"161 197 LINE",
"162 88 LINE"
);
},
{
closed = 1;
nodes = (
"310 0 LINE SMOOTH",
"310 96 LINE SMOOTH",
"25 96 LINE SMOOTH",
"25 0 LINE SMOOTH"
);
},
{
closed = 1;
nodes = (
"232 53 LINE SMOOTH",
"232 464 LINE SMOOTH",
"110 464 LINE SMOOTH",
"110 53 LINE SMOOTH"
);
},
{
closed = 1;
nodes = (
"649 0 LINE SMOOTH",
"649 96 LINE SMOOTH",
"387 96 LINE SMOOTH",
"387 0 LINE SMOOTH"
);
},
{
closed = 1;
nodes = (
"621 72 LINE",
"375 333 LINE",
"280 276 LINE",
"466 72 LINE"
);
},
{
closed = 1;
nodes = (
"310 424 LINE SMOOTH",
"310 520 LINE SMOOTH",
"25 520 LINE SMOOTH",
"25 424 LINE SMOOTH"
);
},
{
closed = 1;
nodes = (
"637 424 LINE SMOOTH",
"637 520 LINE SMOOTH",
"375 520 LINE SMOOTH",
"375 424 LINE SMOOTH"
);
}
);
width = 654;
},
{
anchors = (
{
name = bottom;
position = "{538, 0}";
},
{
name = top;
position = "{538, 520}";
}
);
layerId = "C70E3B11-AF58-44B6-92D7-58C9185F522D";
name = "Bold Extended";
paths = (
{
closed = 1;
nodes = (
"843 442 LINE",
"695 442 LINE",
"256 180 LINE",
"257 77 LINE"
);
},
{
closed = 1;
nodes = (
"474 0 LINE SMOOTH",
"474 96 LINE SMOOTH",
"51 96 LINE SMOOTH",
"51 0 LINE SMOOTH"
);
},
{
closed = 1;
nodes = (
"327 53 LINE SMOOTH",
"327 464 LINE SMOOTH",
"205 464 LINE SMOOTH",
"205 53 LINE SMOOTH"
);
},
{
closed = 1;
nodes = (
"964 0 LINE SMOOTH",
"964 96 LINE SMOOTH",
"572 96 LINE SMOOTH",
"572 0 LINE SMOOTH"
);
},
{
closed = 1;
nodes = (
"897 72 LINE",
"535 333 LINE",
"425 271 LINE",
"711 72 LINE"
);
},
{
closed = 1;
nodes = (
"474 424 LINE SMOOTH",
"474 520 LINE SMOOTH",
"51 520 LINE SMOOTH",
"51 424 LINE SMOOTH"
);
},
{
closed = 1;
nodes = (
"942 424 LINE SMOOTH",
"942 520 LINE SMOOTH",
"550 520 LINE SMOOTH",
"550 424 LINE SMOOTH"
);
}
);
width = 979;
}
);
leftKerningGroup = H;
leftMetricsKey = "=H";
rightKerningGroup = X;
unicode = 004B;
},
{
glyphname = L;
lastChange = "2015-11-24 23:58:00 +0000";
layers = (
{
anchors = (
{
name = bottom;
position = "{412, 0}";
},
{
name = center;
position = "{412, 245}";
},
{
name = top;
position = "{412, 520}";
},
{
name = topright;
position = "{804, 490}";
}
);
layerId = "B29C398E-974A-40D0-A0A0-00935056D4B4";
name = "Light Extended";
paths = (
{
closed = 1;
nodes = (
"789 0 LINE",
"789 183 LINE",
"764 183 LINE",
"764 23 LINE",
"56 23 LINE",
"56 0 LINE"
);
},
{
closed = 1;
nodes = (
"263 13 LINE",
"263 507 LINE",
"238 507 LINE",
"238 13 LINE"
);
},
{
closed = 1;
nodes = (
"445 497 LINE",
"445 520 LINE",
"56 520 LINE",
"56 497 LINE"
);
}
);
width = 869;
},
{
anchors = (
{
name = bottom;
position = "{223, 0}";
},
{
name = center;
position = "{223, 245}";
},
{
name = top;
position = "{223, 490}";
},
{
name = topright;
position = "{435, 490}";
}
);
layerId = "543F9737-16F7-428D-9F96-2EBD9FC8D3B6";
name = Light;
paths = (
{
closed = 1;
nodes = (
"497 0 LINE",
"497 136 LINE",
"473 136 LINE",
"473 23 LINE",
"30 23 LINE",
"30 0 LINE"
);
},
{
closed = 1;
nodes = (
"168 13 LINE",
"168 507 LINE",
"143 507 LINE",
"143 13 LINE"
);
},
{
closed = 1;
nodes = (
"281 497 LINE",
"281 520 LINE",
"30 520 LINE",
"30 497 LINE"
);
}
);
width = 537;
},
{
anchors = (
{
name = bottom;
position = "{279, 0}";
},
{
name = center;
position = "{279, 245}";
},
{
name = top;
position = "{279, 527}";
},
{
name = topright;
position = "{479, 490}";
}
);
layerId = "EB38A4D2-CD30-49BA-8E45-1F04A566FFE8";
name = Bold;
paths = (
{
closed = 1;
nodes = (
"529 0 LINE",
"529 218 LINE",
"413 218 LINE",
"413 96 LINE",
"25 96 LINE",
"25 0 LINE"
);
},
{
closed = 1;
nodes = (
"232 53 LINE",
"232 458 LINE",
"110 458 LINE",
"110 53 LINE"
);
},
{
closed = 1;
nodes = (
"316 424 LINE",
"316 520 LINE",
"25 520 LINE",
"25 424 LINE"
);
}
);
width = 554;
},
{
anchors = (
{
name = bottom;
position = "{468, 0}";
},
{
name = center;
position = "{468, 245}";
},
{
name = top;
position = "{468, 557}";
},
{
name = topright;
position = "{848, 490}";
}
);
layerId = "C70E3B11-AF58-44B6-92D7-58C9185F522D";
name = "Bold Extended";
paths = (
{
closed = 1;
nodes = (
"801 0 LINE",
"801 226 LINE",
"684 226 LINE",
"684 96 LINE",
"51 96 LINE",
"51 0 LINE"
);
},
{
closed = 1;
nodes = (
"327 53 LINE",
"327 458 LINE",
"205 458 LINE",
"205 53 LINE"
);
},
{
closed = 1;
nodes = (
"480 424 LINE",
"480 520 LINE",
"51 520 LINE",
"51 424 LINE"
);
}
);
width = 855;
}
);
leftKerningGroup = H;
leftMetricsKey = "=H";
rightKerningGroup = L;
unicode = 004C;
},
{
glyphname = M;
lastChange = "2015-11-25 19:41:51 +0000";
layers = (
{
anchors = (
{
name = bottom;
position = "{619, -20}";
},
{
name = top;
position = "{619, 490}";
}
);
background = {
paths = (
{
closed = 1;
nodes = (
"629 3 LINE",
"263 490 LINE",
"232 490 LINE",
"619 -27 LINE"
);
},
{
closed = 1;
nodes = (
"400 0 LINE",
"400 23 LINE",
"61 23 LINE",
"61 0 LINE"
);
},
{
closed = 1;
nodes = (
"263 12 LINE",
"263 477 LINE",
"238 477 LINE",
"238 12 LINE"
);
},
{
closed = 1;
nodes = (
"263 467 LINE",
"263 490 LINE",
"61 490 LINE",
"61 467 LINE"
);
},
{
closed = 1;
nodes = (
"1176 0 LINE",
"1176 23 LINE",
"837 23 LINE",
"837 0 LINE"
);
},
{
closed = 1;
nodes = (
"1006 490 LINE",
"972 490 LINE",
"611 3 LINE",
"619 -27 LINE"
);
},
{
closed = 1;
nodes = (
"999 12 LINE",
"999 477 LINE",
"974 477 LINE",
"974 12 LINE"
);
},
{
closed = 1;
nodes = (
"1176 467 LINE",
"1176 490 LINE",
"974 490 LINE",
"974 467 LINE"
);
}
);
};
layerId = "B29C398E-974A-40D0-A0A0-00935056D4B4";
name = "Light Extended";
paths = (
{
closed = 1;
nodes = (
"621 -11 LINE",
"629 14 LINE",
"263 520 LINE",
"232 520 LINE",
"616 -11 LINE"
);
},
{
closed = 1;
nodes = (
"413 0 LINE",
"413 23 LINE",
"56 23 LINE",
"56 0 LINE"
);
},
{
closed = 1;
nodes = (
"263 12 LINE",
"263 453 LINE",
"263 475 OFFCURVE",
"263 498 OFFCURVE",
"263 520 CURVE",
"238 520 LINE",
"238 12 LINE"
);
},
{
closed = 1;
nodes = (
"263 497 LINE",
"263 520 LINE",
"56 520 LINE",
"56 497 LINE"
);
},
{
closed = 1;
nodes = (
"1181 0 LINE",
"1181 23 LINE",
"824 23 LINE",
"824 0 LINE"
);
},
{
closed = 1;
nodes = (
"622 -11 LINE",
"1006 520 LINE",
"974 520 LINE",
"611 14 LINE",
"617 -11 LINE"
);
},
{
closed = 1;
nodes = (
"999 12 LINE",
"999 520 LINE",
"974 520 LINE",
"974 498 OFFCURVE",
"974 475 OFFCURVE",
"974 453 CURVE",
"974 12 LINE"
);
},
{
closed = 1;
nodes = (
"1181 497 LINE",
"1181 520 LINE",
"974 520 LINE",
"974 497 LINE"
);
}
);
width = 1237;
},
{
anchors = (
{
name = bottom;
position = "{409, -25}";
},
{
name = top;
position = "{407, 480}";
}
);
background = {
paths = (
{
closed = 1;
nodes = (
"33 23 LINE",
"263 23 LINE",
"263 0 LINE",
"33 0 LINE"
);
},
{
closed = 1;
nodes = (
"141 490 LINE",
"166 490 LINE",
"166 12 LINE",
"141 12 LINE"
);
},
{
closed = 1;
nodes = (
"33 490 LINE",
"166 490 LINE",
"166 467 LINE",
"33 467 LINE"
);
},
{
closed = 1;
nodes = (
"410 -27 LINE",
"144 490 LINE",
"170 490 LINE",
"420 6 LINE"
);
},
{
closed = 1;
nodes = (
"650 490 LINE",
"676 490 LINE",
"410 -27 LINE",
"402 6 LINE"
);
},
{
closed = 1;
nodes = (
"557 0 LINE",
"557 23 LINE",
"787 23 LINE",
"787 0 LINE"
);
},
{
closed = 1;
nodes = (
"654 12 LINE",
"654 490 LINE",
"679 490 LINE",
"679 12 LINE"
);
},
{
closed = 1;
nodes = (
"654 467 LINE",
"654 490 LINE",
"787 490 LINE",
"787 467 LINE"
);
}
);
};
layerId = "543F9737-16F7-428D-9F96-2EBD9FC8D3B6";
name = Light;
paths = (
{
closed = 1;
nodes = (
"412 -11 LINE",
"421 14 LINE",
"170 520 LINE",
"143 520 LINE",
"407 -11 LINE"
);
},
{
closed = 1;
nodes = (
"269 0 LINE",
"269 23 LINE",
"30 23 LINE",
"30 0 LINE"
);
},
{
closed = 1;
nodes = (
"166 12 LINE",
"166 447 LINE",
"166 471 OFFCURVE",
"166 496 OFFCURVE",
"166 520 CURVE",
"141 520 LINE",
"141 12 LINE"
);
},
{
closed = 1;
nodes = (
"166 497 LINE",
"166 520 LINE",
"30 520 LINE",
"30 497 LINE"
);
},
{
closed = 1;
nodes = (
"792 0 LINE",
"792 23 LINE",
"551 23 LINE",
"551 0 LINE"
);
},
{
closed = 1;
nodes = (
"413 -11 LINE",
"676 520 LINE",
"650 520 LINE",
"402 14 LINE",
"408 -11 LINE"
);
},
{
closed = 1;
nodes = (
"679 12 LINE",
"679 520 LINE",
"654 520 LINE",
"654 496 OFFCURVE",
"654 471 OFFCURVE",
"654 447 CURVE",
"654 12 LINE"
);
},
{
closed = 1;
nodes = (
"792 497 LINE",
"792 520 LINE",
"654 520 LINE",
"654 497 LINE"
);
}
);
width = 822;
},
{
anchors = (
{
name = bottom;
position = "{423, 3}";
},
{
name = top;
position = "{420, 492}";
}
);
layerId = "EB38A4D2-CD30-49BA-8E45-1F04A566FFE8";
name = Bold;
paths = (
{
closed = 1;
nodes = (
"435 -1 LINE",
"462 86 LINE",
"244 520 LINE",
"125 520 LINE",
"386 -1 LINE"
);
},
{
closed = 1;
nodes = (
"303 0 LINE",
"303 96 LINE",
"25 96 LINE",
"25 0 LINE"
);
},
{
closed = 1;
nodes = (
"223 54 LINE",
"223 219 LINE",
"223 306 OFFCURVE",
"193 463 OFFCURVE",
"180 520 CURVE",
"110 520 LINE",
"110 54 LINE"
);
},
{
closed = 1;
nodes = (
"222 424 LINE",
"222 520 LINE",
"25 520 LINE",
"25 424 LINE"
);
},
{
closed = 1;
nodes = (
"820 0 LINE",
"820 96 LINE",
"536 96 LINE",
"536 0 LINE"
);
},
{
closed = 1;
nodes = (
"453 -1 LINE",
"714 520 LINE",
"600 520 LINE",
"387 86 LINE",
"408 -1 LINE"
);
},
{
closed = 1;
nodes = (
"735 54 LINE",
"735 520 LINE",
"668 520 LINE",
"651 463 OFFCURVE",
"615 306 OFFCURVE",
"615 219 CURVE SMOOTH",
"615 54 LINE"
);
},
{
closed = 1;
nodes = (
"820 424 LINE",
"820 520 LINE",
"617 520 LINE",
"617 424 LINE"
);
}
);
width = 845;
},
{
anchors = (
{
name = bottom;
position = "{633, 8}";
},
{
name = top;
position = "{632, 502}";
}
);
layerId = "C70E3B11-AF58-44B6-92D7-58C9185F522D";
name = "Bold Extended";
paths = (
{
closed = 1;
nodes = (
"644 -1 LINE",
"670 81 LINE",
"352 520 LINE",
"207 520 LINE",
"595 -1 LINE"
);
},
{
closed = 1;
nodes = (
"447 0 LINE",
"447 96 LINE",
"51 96 LINE",
"51 0 LINE"
);
},
{
closed = 1;
nodes = (
"322 54 LINE",
"322 235 LINE",
"322 320 OFFCURVE",
"295 465 OFFCURVE",
"282 520 CURVE",
"207 520 LINE",
"207 54 LINE"
);
},
{
closed = 1;
nodes = (
"319 424 LINE",
"319 520 LINE",
"51 520 LINE",
"51 424 LINE"
);
},
{
closed = 1;
nodes = (
"1209 0 LINE",
"1209 96 LINE",
"809 96 LINE",
"809 0 LINE"
);
},
{
closed = 1;
nodes = (
"662 -1 LINE",
"1051 520 LINE",
"909 520 LINE",
"596 81 LINE",
"617 -1 LINE"
);
},
{
closed = 1;
nodes = (
"1055 54 LINE",
"1055 520 LINE",
"983 520 LINE",
"966 465 OFFCURVE",
"933 320 OFFCURVE",
"933 235 CURVE",
"933 54 LINE"
);
},
{
closed = 1;
nodes = (
"1209 424 LINE",
"1209 520 LINE",
"937 520 LINE",
"937 424 LINE"
);
}
);
width = 1260;
}
);
leftKerningGroup = H;
leftMetricsKey = "=H";
rightKerningGroup = H;
rightMetricsKey = "=H";
unicode = 004D;
},
{
glyphname = N;
lastChange = "2015-11-25 15:14:08 +0000";
layers = (
{
anchors = (
{
name = bottom;
position = "{611, 10}";
},
{
name = top;
position = "{551, 510}";
}
);
background = {
paths = (
{
closed = 1;
nodes = (
"905 -5 LINE",
"910 -5 LINE",
"910 507 LINE",
"885 507 LINE",
"885 57 LINE",
"496 520 LINE",
"461 520 LINE"
);
}
);
};
layerId = "B29C398E-974A-40D0-A0A0-00935056D4B4";
name = "Light Extended";
paths = (
{
closed = 1;
nodes = (
"910 -5 LINE",
"910 507 LINE",
"885 507 LINE",
"885 43 LINE",
"263 520 LINE",
"219 520 LINE",
"905 -5 LINE"
);
},
{
closed = 1;
nodes = (
"445 0 LINE",
"445 23 LINE",
"56 23 LINE",
"56 0 LINE"
);
},
{
closed = 1;
nodes = (
"263 12 LINE",
"263 520 LINE",
"238 520 LINE",
"238 12 LINE"
);
},
{
closed = 1;
nodes = (
"263 497 LINE",
"263 520 LINE",
"56 520 LINE",
"56 497 LINE"
);
},
{
closed = 1;
nodes = (
"1092 497 LINE",
"1092 520 LINE",
"703 520 LINE",
"703 497 LINE"
);
}
);
width = 1107;
},
{
anchors = (
{
name = bottom;
position = "{380, 10}";
},
{
name = top;
position = "{350, 510}";
}
);
background = {
paths = (
{
closed = 1;
nodes = (
"558 242 LINE",
"558 265 LINE",
"162 265 LINE",
"162 242 LINE"
);
},
{
closed = 1;
nodes = (
"271 0 LINE",
"271 23 LINE",
"30 23 LINE",
"30 0 LINE"
);
},
{
closed = 1;
nodes = (
"167 13 LINE",
"167 509 LINE",
"143 509 LINE",
"143 13 LINE"
);
},
{
closed = 1;
nodes = (
"271 497 LINE",
"271 520 LINE",
"30 520 LINE",
"30 497 LINE"
);
},
{
closed = 1;
nodes = (
"689 0 LINE",
"689 23 LINE",
"448 23 LINE",
"448 0 LINE"
);
},
{
closed = 1;
nodes = (
"577 13 LINE",
"577 509 LINE",
"552 509 LINE",
"552 13 LINE"
);
},
{
closed = 1;
nodes = (
"689 497 LINE",
"689 520 LINE",
"448 520 LINE",
"448 497 LINE"
);
}
);
};
layerId = "543F9737-16F7-428D-9F96-2EBD9FC8D3B6";
name = Light;
paths = (
{
closed = 1;
nodes = (
"582 -5 LINE",
"582 507 LINE",
"557 507 LINE",
"557 57 LINE",
"168 520 LINE",
"133 520 LINE",
"577 -5 LINE"
);
},
{
closed = 1;
nodes = (
"272 0 LINE",
"272 23 LINE",
"30 23 LINE",
"30 0 LINE"
);
},
{
closed = 1;
nodes = (
"168 12 LINE",
"168 520 LINE",
"143 520 LINE",
"143 12 LINE"
);
},
{
closed = 1;
nodes = (
"168 497 LINE",
"168 520 LINE",
"30 520 LINE",
"30 497 LINE"
);
},
{
closed = 1;
nodes = (
"695 497 LINE",
"695 520 LINE",
"444 520 LINE",
"444 497 LINE"
);
}
);
width = 705;
},
{
anchors = (
{
name = bottom;
position = "{370, 0}";
},
{
name = top;
position = "{370, 520}";
}
);
layerId = "EB38A4D2-CD30-49BA-8E45-1F04A566FFE8";
name = Bold;
paths = (
{
closed = 1;
nodes = (
"619 -4 LINE",
"619 507 LINE",
"507 507 LINE",
"507 201 LINE",
"228 520 LINE",
"77 520 LINE",
"553 -5 LINE"
);
},
{
closed = 1;
nodes = (
"318 0 LINE",
"318 96 LINE",
"25 96 LINE",
"25 0 LINE"
);
},
{
closed = 1;
nodes = (
"228 12 LINE",
"228 520 LINE",
"110 520 LINE",
"110 12 LINE"
);
},
{
closed = 1;
nodes = (
"224 424 LINE",
"228 520 LINE",
"25 520 LINE",
"25 424 LINE"
);
},
{
closed = 1;
nodes = (
"699 424 LINE",
"699 520 LINE",
"422 520 LINE",
"422 424 LINE"
);
}
);
width = 714;
},
{
anchors = (
{
name = bottom;
position = "{601, 10}";
},
{
name = top;
position = "{571, 510}";
}
);
layerId = "C70E3B11-AF58-44B6-92D7-58C9185F522D";
name = "Bold Extended";
paths = (
{
closed = 1;
nodes = (
"947 -4 LINE",
"947 507 LINE",
"835 507 LINE",
"835 177 LINE",
"323 520 LINE",
"103 520 LINE",
"881 -5 LINE"
);
},
{
closed = 1;
nodes = (
"491 0 LINE",
"491 96 LINE",
"51 96 LINE",
"51 0 LINE"
);
},
{
closed = 1;
nodes = (
"323 12 LINE",
"323 520 LINE",
"205 520 LINE",
"205 12 LINE"
);
},
{
closed = 1;
nodes = (
"319 424 LINE",
"323 520 LINE",
"51 520 LINE",
"51 424 LINE"
);
},
{
closed = 1;
nodes = (
"1101 424 LINE",
"1101 520 LINE",
"681 520 LINE",
"681 424 LINE"
);
}
);
width = 1110;
}
);
leftKerningGroup = H;
leftMetricsKey = "=H";
rightKerningGroup = H;
unicode = 004E;
},
{
glyphname = O;
lastChange = "2015-11-25 16:24:24 +0000";
layers = (
{
anchors = (
{
name = bottom;
position = "{458, -10}";
},
{
name = center;
position = "{458, 245}";
},
{
name = ogonek;
position = "{460, -8}";
},
{
name = top;
position = "{458, 530}";
},
{
name = topright;
position = "{891, 490}";
}
);
background = {
paths = (
{
closed = 1;
nodes = (
"674 -20 OFFCURVE",
"841 78 OFFCURVE",
"841 248 CURVE",
"841 417 OFFCURVE",
"674 516 OFFCURVE",
"458 516 CURVE",
"242 516 OFFCURVE",
"75 417 OFFCURVE",
"75 248 CURVE",
"75 78 OFFCURVE",
"242 -20 OFFCURVE",
"458 -20 CURVE"
);
},
{
closed = 1;
nodes = (
"252 3 OFFCURVE",
"100 96 OFFCURVE",
"100 248 CURVE",
"100 400 OFFCURVE",
"252 493 OFFCURVE",
"458 493 CURVE",
"663 493 OFFCURVE",
"816 400 OFFCURVE",
"816 248 CURVE",
"816 96 OFFCURVE",
"663 3 OFFCURVE",
"458 3 CURVE"
);
}
);
};
layerId = "B29C398E-974A-40D0-A0A0-00935056D4B4";
name = "Light Extended";
paths = (
{
closed = 1;
nodes = (
"674 -10 OFFCURVE",
"841 88 OFFCURVE",
"841 260 CURVE",
"841 431 OFFCURVE",
"674 530 OFFCURVE",
"458 530 CURVE",
"242 530 OFFCURVE",
"75 431 OFFCURVE",
"75 260 CURVE",
"75 88 OFFCURVE",
"242 -10 OFFCURVE",
"458 -10 CURVE"
);
},
{
closed = 1;
nodes = (
"252 13 OFFCURVE",
"100 106 OFFCURVE",
"100 260 CURVE",
"100 414 OFFCURVE",
"252 507 OFFCURVE",
"458 507 CURVE",
"663 507 OFFCURVE",
"816 414 OFFCURVE",
"816 260 CURVE",
"816 106 OFFCURVE",
"663 13 OFFCURVE",
"458 13 CURVE"
);
}
);
width = 916;
},
{
anchors = (
{
name = bottom;
position = "{303, -10}";
},
{
name = center;
position = "{303, 245}";
},
{
name = ogonek;
position = "{303, -9}";
},
{
name = top;
position = "{303, 530}";
},
{
name = topright;
position = "{540, 490}";
}
);
layerId = "543F9737-16F7-428D-9F96-2EBD9FC8D3B6";
name = Light;
paths = (
{
closed = 1;
nodes = (
"441 -10 OFFCURVE",
"556 89 OFFCURVE",
"556 260 CURVE",
"556 431 OFFCURVE",
"441 530 OFFCURVE",
"303 530 CURVE",
"164 530 OFFCURVE",
"50 431 OFFCURVE",
"50 260 CURVE",
"50 89 OFFCURVE",
"164 -10 OFFCURVE",
"303 -10 CURVE"
);
},
{
closed = 1;
nodes = (
"174 14 OFFCURVE",
"74 107 OFFCURVE",
"74 260 CURVE",
"74 413 OFFCURVE",
"174 506 OFFCURVE",
"303 506 CURVE",
"431 506 OFFCURVE",
"532 413 OFFCURVE",
"532 260 CURVE",
"532 107 OFFCURVE",
"431 14 OFFCURVE",
"303 14 CURVE"
);
}
);
width = 606;
},
{
anchors = (
{
name = bottom;
position = "{308, -10}";
},
{
name = center;
position = "{309, 245}";
},
{
name = ogonek;
position = "{349, -8}";
},
{
name = top;
position = "{308, 530}";
},
{
name = topright;
position = "{546, 490}";
}
);
layerId = "EB38A4D2-CD30-49BA-8E45-1F04A566FFE8";
name = Bold;
paths = (
{
closed = 1;
nodes = (
"472 -10 OFFCURVE",
"592 110 OFFCURVE",
"592 260 CURVE",
"592 410 OFFCURVE",
"472 530 OFFCURVE",
"309 530 CURVE",
"145 530 OFFCURVE",
"25 410 OFFCURVE",
"25 260 CURVE",
"25 110 OFFCURVE",
"145 -10 OFFCURVE",
"309 -10 CURVE"
);
},
{
closed = 1;
nodes = (
"210 89 OFFCURVE",
"154 167 OFFCURVE",
"154 260 CURVE",
"154 351 OFFCURVE",
"210 431 OFFCURVE",
"308 431 CURVE",
"407 431 OFFCURVE",
"463 353 OFFCURVE",
"463 260 CURVE",
"463 169 OFFCURVE",
"407 89 OFFCURVE",
"308 89 CURVE"
);
}
);
width = 617;
},
{
anchors = (
{
name = bottom;
position = "{459, -10}";
},
{
name = center;
position = "{459, 253}";
},
{
name = ogonek;
position = "{510, -7}";
},
{
name = top;
position = "{458, 530}";
},
{
name = topright;
position = "{892, 490}";
}
);
layerId = "C70E3B11-AF58-44B6-92D7-58C9185F522D";
name = "Bold Extended";
paths = (
{
closed = 1;
nodes = (
"700 -10 OFFCURVE",
"872 104 OFFCURVE",
"872 260 CURVE",
"872 415 OFFCURVE",
"700 530 OFFCURVE",
"459 530 CURVE",
"218 530 OFFCURVE",
"45 415 OFFCURVE",
"45 260 CURVE",
"45 104 OFFCURVE",
"218 -10 OFFCURVE",
"459 -10 CURVE"
);
},
{
closed = 1;
nodes = (
"286 88 OFFCURVE",
"179 161 OFFCURVE",
"179 260 CURVE",
"179 357 OFFCURVE",
"286 432 OFFCURVE",
"458 432 CURVE",
"631 432 OFFCURVE",
"738 359 OFFCURVE",
"738 260 CURVE",
"738 163 OFFCURVE",
"631 88 OFFCURVE",
"458 88 CURVE"
);
}
);
width = 917;
}
);
leftKerningGroup = O;
rightKerningGroup = O;
unicode = 004F;
},
{
glyphname = Oslash;
lastChange = "2015-11-21 17:20:22 +0000";
layers = (
{
components = (
{
name = O;
}
);
layerId = "B29C398E-974A-40D0-A0A0-00935056D4B4";
name = "Light Extended";
paths = (
{
closed = 1;
nodes = (
"335 9 LINE",
"338 15 LINE",
"591 503 LINE",
"595 510 LINE",
"632 581 LINE",
"604 581 LINE",
"569 514 LINE",
"565 507 LINE",
"313 23 LINE",
"308 14 LINE",
"271 -59 LINE",
"299 -59 LINE"
);
}
);
width = 906;
},
{
components = (
{
name = O;
}
);
layerId = "543F9737-16F7-428D-9F96-2EBD9FC8D3B6";
name = Light;
paths = (
{
closed = 1;
nodes = (
"219 11 LINE",
"222 19 LINE",
"397 498 LINE",
"400 506 LINE",
"427 581 LINE",
"402 581 LINE",
"377 513 LINE",
"374 506 LINE",
"201 28 LINE",
"198 21 LINE",
"169 -59 LINE",
"194 -59 LINE"
);
}
);
width = 606;
},
{
components = (
{
name = O;
}
);
layerId = "EB38A4D2-CD30-49BA-8E45-1F04A566FFE8";
name = Bold;
paths = (
{
closed = 1;
nodes = (
"259 43 LINE",
"256 58 LINE",
"431 439 LINE",
"445 445 LINE",
"506 581 LINE",
"404 581 LINE",
"358 480 LINE",
"361 465 LINE",
"180 69 LINE",
"164 59 LINE",
"110 -59 LINE",
"212 -59 LINE"
);
}
);
width = 617;
},
{
components = (
{
name = O;
}
);
layerId = "C70E3B11-AF58-44B6-92D7-58C9185F522D";
name = "Bold Extended";
paths = (
{
closed = 1;
nodes = (
"375 41 LINE",
"372 54 LINE",
"625 444 LINE",
"640 449 LINE",
"720 581 LINE",
"615 581 LINE",
"550 481 LINE",
"552 466 LINE",
"292 64 LINE",
"274 52 LINE",
"204 -59 LINE",
"309 -59 LINE"
);
}
);
width = 917;
}
);
leftKerningGroup = O;
rightKerningGroup = O;
unicode = 00D8;
},
{
color = 0;
glyphname = OE;
lastChange = "2015-11-25 03:14:34 +0000";
layers = (
{
anchors = (
{
name = bottom;
position = "{761, 0}";
},
{
name = center;
position = "{761, 245}";
},
{
name = ogonek;
position = "{1325, 0}";
},
{
name = top;
position = "{761, 520}";
}
);
layerId = "B29C398E-974A-40D0-A0A0-00935056D4B4";
name = "Light Extended";
paths = (
{
closed = 1;
nodes = (
"1325 0 LINE",
"1325 183 LINE",
"1301 183 LINE",
"1301 23 LINE",
"419 23 LINE SMOOTH",
"225 23 OFFCURVE",
"100 102 OFFCURVE",
"100 260 CURVE SMOOTH",
"100 418 OFFCURVE",
"225 497 OFFCURVE",
"419 497 CURVE SMOOTH",
"1300 497 LINE",
"1300 337 LINE",
"1325 337 LINE",
"1325 520 LINE",
"419 520 LINE SMOOTH",
"214 520 OFFCURVE",
"75 435 OFFCURVE",
"75 260 CURVE SMOOTH",
"75 85 OFFCURVE",
"214 0 OFFCURVE",
"419 0 CURVE SMOOTH"
);
},
{
closed = 1;
nodes = (
"726 13 LINE",
"726 507 LINE",
"701 507 LINE",
"701 13 LINE"
);
},
{
closed = 1;
nodes = (
"1046 261 LINE",
"1046 284 LINE",
"723 284 LINE",
"723 261 LINE"
);
},
{
closed = 1;
nodes = (
"1059 153 LINE",
"1059 392 LINE",
"1034 392 LINE",
"1034 153 LINE"
);
}
);
width = 1455;
},
{
anchors = (
{
name = bottom;
position = "{456, 0}";
},
{
name = center;
position = "{456, 245}";
},
{
name = ogonek;
position = "{758, 0}";
},
{
name = top;
position = "{456, 520}";
}
);
layerId = "543F9737-16F7-428D-9F96-2EBD9FC8D3B6";
name = Light;
paths = (
{
closed = 1;
nodes = (
"758 0 LINE",
"758 136 LINE",
"734 136 LINE",
"734 23 LINE",
"340 23 LINE SMOOTH",
"177 23 OFFCURVE",
"75 111 OFFCURVE",
"75 255 CURVE SMOOTH",
"75 399 OFFCURVE",
"177 497 OFFCURVE",
"340 497 CURVE SMOOTH",
"733 497 LINE",
"733 384 LINE",
"758 384 LINE",
"758 520 LINE",
"340 520 LINE SMOOTH",
"167 520 OFFCURVE",
"50 416 OFFCURVE",
"50 255 CURVE SMOOTH",
"50 94 OFFCURVE",
"167 0 OFFCURVE",
"340 0 CURVE SMOOTH"
);
},
{
closed = 1;
nodes = (
"439 13 LINE",
"439 507 LINE",
"414 507 LINE",
"414 13 LINE"
);
},
{
closed = 1;
nodes = (
"599 261 LINE",
"599 284 LINE",
"436 284 LINE",
"436 261 LINE"
);
},
{
closed = 1;
nodes = (
"612 178 LINE",
"612 367 LINE",
"587 367 LINE",
"587 178 LINE"
);
}
);
width = 818;
},
{
anchors = (
{
name = bottom;
position = "{492, 0}";
},
{
name = center;
position = "{492, 263}";
},
{
name = ogonek;
position = "{834, 0}";
},
{
name = top;
position = "{492, 520}";
}
);
layerId = "EB38A4D2-CD30-49BA-8E45-1F04A566FFE8";
name = Bold;
paths = (
{
closed = 1;
nodes = (
"834 0 LINE",
"834 190 LINE",
"726 190 LINE",
"726 96 LINE",
"347 96 LINE SMOOTH",
"269 96 OFFCURVE",
"153 117 OFFCURVE",
"153 261 CURVE SMOOTH",
"153 406 OFFCURVE",
"269 424 OFFCURVE",
"347 424 CURVE SMOOTH",
"726 424 LINE",
"726 329 LINE",
"834 329 LINE",
"834 520 LINE",
"317 520 LINE SMOOTH",
"174 520 OFFCURVE",
"25 448 OFFCURVE",
"25 261 CURVE SMOOTH",
"25 74 OFFCURVE",
"174 0 OFFCURVE",
"317 0 CURVE SMOOTH"
);
},
{
closed = 1;
nodes = (
"509 53 LINE",
"509 458 LINE",
"387 458 LINE",
"387 53 LINE"
);
},
{
closed = 1;
nodes = (
"634 206 LINE",
"634 302 LINE",
"431 302 LINE",
"431 206 LINE"
);
},
{
closed = 1;
nodes = (
"675 151 LINE",
"675 357 LINE",
"579 357 LINE",
"579 151 LINE"
);
}
);
width = 884;
},
{
anchors = (
{
name = bottom;
position = "{792, 0}";
},
{
name = center;
position = "{792, 263}";
},
{
name = ogonek;
position = "{1396, 0}";
},
{
name = top;
position = "{792, 520}";
}
);
layerId = "C70E3B11-AF58-44B6-92D7-58C9185F522D";
name = "Bold Extended";
paths = (
{
closed = 1;
nodes = (
"1396 0 LINE",
"1396 209 LINE",
"1288 209 LINE",
"1288 96 LINE",
"441 96 LINE SMOOTH",
"342 96 OFFCURVE",
"173 113 OFFCURVE",
"173 266 CURVE SMOOTH",
"173 420 OFFCURVE",
"342 424 OFFCURVE",
"441 424 CURVE SMOOTH",
"1288 424 LINE",
"1288 309 LINE",
"1396 309 LINE",
"1396 520 LINE",
"411 520 LINE SMOOTH",
"246 520 OFFCURVE",
"45 462 OFFCURVE",
"45 266 CURVE SMOOTH",
"45 70 OFFCURVE",
"246 0 OFFCURVE",
"411 0 CURVE SMOOTH"
);
},
{
closed = 1;
nodes = (
"791 53 LINE",
"791 458 LINE",
"669 458 LINE",
"669 53 LINE"
);
},
{
closed = 1;
nodes = (
"1076 210 LINE",
"1076 297 LINE",
"713 297 LINE",
"713 210 LINE"
);
},
{
closed = 1;
nodes = (
"1117 126 LINE",
"1117 382 LINE",
"1021 382 LINE",
"1021 126 LINE"
);
}
);
width = 1496;
}
);
leftKerningGroup = O;
leftMetricsKey = "=O";
rightKerningGroup = E;
rightMetricsKey = "=E";
unicode = 0152;
},
{
glyphname = P;
lastChange = "2015-11-24 15:52:04 +0000";
layers = (
{
anchors = (
{
name = bottom;
position = "{462, 0}";
},
{
name = top;
position = "{462, 520}";
}
);
background = {
paths = (
{
closed = 1;
nodes = (
"263 13 LINE",
"263 477 LINE",
"238 477 LINE",
"238 13 LINE"
);
},
{
closed = 1;
nodes = (
"455 0 LINE",
"455 23 LINE",
"56 23 LINE",
"56 0 LINE"
);
},
{
closed = 1;
nodes = (
"694 193 LINE SMOOTH",
"806 193 OFFCURVE",
"874 258 OFFCURVE",
"874 340 CURVE SMOOTH",
"874 431 OFFCURVE",
"804 490 OFFCURVE",
"694 490 CURVE SMOOTH",
"56 490 LINE",
"56 467 LINE",
"701 467 LINE SMOOTH",
"790 467 OFFCURVE",
"849 415 OFFCURVE",
"849 340 CURVE SMOOTH",
"849 267 OFFCURVE",
"787 216 OFFCURVE",
"701 216 CURVE SMOOTH",
"251 216 LINE",
"251 193 LINE"
);
}
);
};
layerId = "B29C398E-974A-40D0-A0A0-00935056D4B4";
name = "Light Extended";
paths = (
{
closed = 1;
nodes = (
"694 213 LINE SMOOTH",
"806 213 OFFCURVE",
"874 278 OFFCURVE",
"874 365 CURVE SMOOTH",
"874 461 OFFCURVE",
"804 520 OFFCURVE",
"694 520 CURVE SMOOTH",
"56 520 LINE",
"56 497 LINE",
"701 497 LINE SMOOTH",
"790 497 OFFCURVE",
"849 445 OFFCURVE",
"849 365 CURVE SMOOTH",
"849 287 OFFCURVE",
"787 236 OFFCURVE",
"701 236 CURVE SMOOTH",
"251 236 LINE",
"251 213 LINE"
);
},
{
closed = 1;
nodes = (
"455 0 LINE",
"455 23 LINE",
"56 23 LINE",
"56 0 LINE"
);
},
{
closed = 1;
nodes = (
"263 13 LINE",
"263 507 LINE",
"238 507 LINE",
"238 13 LINE"
);
}
);
width = 934;
},
{
anchors = (
{
name = bottom;
position = "{273, 0}";
},
{
name = top;
position = "{273, 490}";
}
);
layerId = "543F9737-16F7-428D-9F96-2EBD9FC8D3B6";
name = Light;
paths = (
{
closed = 1;
nodes = (
"312 214 LINE SMOOTH",
"424 215 OFFCURVE",
"508 264 OFFCURVE",
"508 366 CURVE SMOOTH",
"508 465 OFFCURVE",
"436 520 OFFCURVE",
"324 520 CURVE SMOOTH",
"30 520 LINE",
"30 497 LINE",
"318 497 LINE SMOOTH",
"415 497 OFFCURVE",
"483 455 OFFCURVE",
"483 365 CURVE SMOOTH",
"483 278 OFFCURVE",
"401 240 OFFCURVE",
"307 238 CURVE SMOOTH",
"160 235 LINE",
"160 212 LINE"
);
},
{
closed = 1;
nodes = (
"286 0 LINE",
"286 23 LINE",
"30 23 LINE",
"30 0 LINE"
);
},
{
closed = 1;
nodes = (
"168 13 LINE",
"168 507 LINE",
"143 507 LINE",
"143 13 LINE"
);
}
);
width = 553;
},
{
anchors = (
{
name = bottom;
position = "{286, 0}";
},
{
name = top;
position = "{286, 527}";
}
);
layerId = "EB38A4D2-CD30-49BA-8E45-1F04A566FFE8";
name = Bold;
paths = (
{
closed = 1;
nodes = (
"332 176 LINE SMOOTH",
"458 176 OFFCURVE",
"539 247 OFFCURVE",
"539 352 CURVE SMOOTH",
"539 453 OFFCURVE",
"455 520 OFFCURVE",
"330 520 CURVE SMOOTH",
"25 520 LINE",
"25 424 LINE",
"322 424 LINE SMOOTH",
"367 424 OFFCURVE",
"418 410 OFFCURVE",
"418 353 CURVE SMOOTH",
"418 283 OFFCURVE",
"366 272 OFFCURVE",
"325 272 CURVE SMOOTH",
"190 273 LINE",
"190 176 LINE"
);
},
{
closed = 1;
nodes = (
"323 0 LINE",
"323 96 LINE",
"25 96 LINE",
"25 0 LINE"
);
},
{
closed = 1;
nodes = (
"233 53 LINE",
"233 468 LINE",
"110 468 LINE",
"110 53 LINE"
);
}
);
width = 559;
},
{
anchors = (
{
name = bottom;
position = "{475, 0}";
},
{
name = top;
position = "{475, 557}";
}
);
layerId = "C70E3B11-AF58-44B6-92D7-58C9185F522D";
name = "Bold Extended";
paths = (
{
closed = 1;
nodes = (
"675 176 LINE SMOOTH",
"806 176 OFFCURVE",
"905 239 OFFCURVE",
"905 348 CURVE SMOOTH",
"905 459 OFFCURVE",
"806 520 OFFCURVE",
"675 520 CURVE SMOOTH",
"51 520 LINE",
"51 424 LINE",
"670 424 LINE SMOOTH",
"735 424 OFFCURVE",
"779 398 OFFCURVE",
"779 346 CURVE SMOOTH",
"779 298 OFFCURVE",
"735 268 OFFCURVE",
"670 269 CURVE SMOOTH",
"281 274 LINE",
"281 177 LINE"
);
},
{
closed = 1;
nodes = (
"492 0 LINE",
"492 96 LINE",
"51 96 LINE",
"51 0 LINE"
);
},
{
closed = 1;
nodes = (
"328 53 LINE",
"328 468 LINE",
"205 468 LINE",
"205 53 LINE"
);
}
);
width = 945;
}
);
leftKerningGroup = H;
leftMetricsKey = "=H";
rightKerningGroup = P;
unicode = 0050;
},
{
glyphname = Thorn;
lastChange = "2015-11-25 00:56:44 +0000";
layers = (
{
background = {
paths = (
{
closed = 1;
nodes = (
"455 0 LINE SMOOTH",
"455 23 LINE SMOOTH",
"56 23 LINE SMOOTH",
"56 0 LINE SMOOTH"
);
}
);
};
layerId = "B29C398E-974A-40D0-A0A0-00935056D4B4";
name = "Light Extended";
paths = (
{
closed = 1;
nodes = (
"672 143 LINE SMOOTH",
"764 143 OFFCURVE",
"822 188 OFFCURVE",
"822 260 CURVE SMOOTH",
"822 332 OFFCURVE",
"764 377 OFFCURVE",
"672 377 CURVE SMOOTH",
"249 377 LINE",
"249 354 LINE",
"679 354 LINE SMOOTH",
"745 354 OFFCURVE",
"797 323 OFFCURVE",
"797 260 CURVE SMOOTH",
"797 197 OFFCURVE",
"745 166 OFFCURVE",
"679 166 CURVE SMOOTH",
"249 166 LINE",
"249 143 LINE"
);
},
{
closed = 1;
nodes = (
"445 0 LINE",
"445 23 LINE",
"254 23 LINE",
"246 23 LINE",
"56 23 LINE",
"56 0 LINE"
);
},
{
closed = 1;
nodes = (
"263 13 LINE SMOOTH",
"263 507 LINE SMOOTH",
"238 507 LINE SMOOTH",
"238 13 LINE SMOOTH"
);
},
{
closed = 1;
nodes = (
"244 497 LINE",
"251 497 LINE",
"445 497 LINE SMOOTH",
"445 520 LINE SMOOTH",
"56 520 LINE SMOOTH",
"56 497 LINE SMOOTH"
);
}
);
width = 882;
},
{
layerId = "543F9737-16F7-428D-9F96-2EBD9FC8D3B6";
name = Light;
paths = (
{
closed = 1;
nodes = (
"347 142 LINE SMOOTH",
"444 142 OFFCURVE",
"508 182 OFFCURVE",
"508 258 CURVE SMOOTH",
"508 334 OFFCURVE",
"444 376 OFFCURVE",
"347 376 CURVE SMOOTH",
"151 376 LINE",
"151 353 LINE",
"347 353 LINE SMOOTH",
"429 353 OFFCURVE",
"483 320 OFFCURVE",
"483 259 CURVE SMOOTH",
"483 198 OFFCURVE",
"429 165 OFFCURVE",
"347 165 CURVE SMOOTH",
"151 165 LINE",
"151 142 LINE"
);
},
{
closed = 1;
nodes = (
"286 0 LINE",
"286 23 LINE",
"158 23 LINE",
"151 23 LINE",
"30 23 LINE",
"30 0 LINE"
);
},
{
closed = 1;
nodes = (
"168 13 LINE",
"168 508 LINE",
"143 508 LINE",
"143 13 LINE"
);
},
{
closed = 1;
nodes = (
"148 497 LINE",
"159 497 LINE",
"286 497 LINE",
"286 520 LINE",
"30 520 LINE",
"30 497 LINE"
);
}
);
width = 538;
},
{
layerId = "EB38A4D2-CD30-49BA-8E45-1F04A566FFE8";
name = Bold;
paths = (
{
closed = 1;
nodes = (
"358 133 LINE SMOOTH",
"457 134 OFFCURVE",
"531 174 OFFCURVE",
"531 259 CURVE SMOOTH",
"531 346 OFFCURVE",
"457 384 OFFCURVE",
"358 384 CURVE SMOOTH",
"185 384 LINE",
"185 300 LINE",
"339 300 LINE SMOOTH",
"374 300 OFFCURVE",
"409 295 OFFCURVE",
"409 259 CURVE SMOOTH",
"409 218 OFFCURVE",
"370 215 OFFCURVE",
"339 215 CURVE SMOOTH",
"184 215 LINE",
"184 132 LINE"
);
},
{
closed = 1;
nodes = (
"308 0 LINE",
"308 86 LINE",
"206 86 LINE",
"206 96 LINE",
"25 96 LINE",
"25 0 LINE"
);
},
{
closed = 1;
nodes = (
"220 53 LINE",
"220 468 LINE",
"105 468 LINE",
"105 53 LINE"
);
},
{
closed = 1;
nodes = (
"198 424 LINE",
"198 434 LINE",
"308 434 LINE",
"308 520 LINE",
"25 520 LINE",
"25 424 LINE"
);
}
);
width = 536;
},
{
layerId = "C70E3B11-AF58-44B6-92D7-58C9185F522D";
name = "Bold Extended";
paths = (
{
closed = 1;
nodes = (
"691 134 LINE SMOOTH",
"785 135 OFFCURVE",
"853 180 OFFCURVE",
"853 261 CURVE SMOOTH",
"853 344 OFFCURVE",
"785 385 OFFCURVE",
"691 385 CURVE SMOOTH",
"291 385 LINE",
"291 301 LINE",
"664 301 LINE SMOOTH",
"693 301 OFFCURVE",
"731 296 OFFCURVE",
"731 260 CURVE SMOOTH",
"731 219 OFFCURVE",
"689 216 OFFCURVE",
"664 216 CURVE SMOOTH",
"290 216 LINE",
"290 133 LINE"
);
},
{
closed = 1;
nodes = (
"476 0 LINE",
"476 86 LINE",
"294 86 LINE",
"294 96 LINE",
"51 96 LINE",
"51 0 LINE"
);
},
{
closed = 1;
nodes = (
"323 53 LINE",
"323 467 LINE",
"205 467 LINE",
"205 53 LINE"
);
},
{
closed = 1;
nodes = (
"287 424 LINE",
"287 434 LINE",
"476 434 LINE",
"476 520 LINE",
"51 520 LINE",
"51 424 LINE"
);
}
);
width = 888;
}
);
leftKerningGroup = H;
leftMetricsKey = "=I";
rightKerningGroup = Thorn;
unicode = 00DE;
},
{
color = 4;
glyphname = Q;
lastChange = "2015-11-24 21:51:49 +0000";
layers = (
{
anchors = (
{
name = bottom;
position = "{456, -10}";
},
{
name = top;
position = "{456, 530}";
}
);
background = {
paths = (
{
closed = 1;
nodes = (
"674 -20 OFFCURVE",
"841 78 OFFCURVE",
"841 248 CURVE",
"841 417 OFFCURVE",
"674 516 OFFCURVE",
"458 516 CURVE",
"242 516 OFFCURVE",
"75 417 OFFCURVE",
"75 248 CURVE",
"75 78 OFFCURVE",
"242 -20 OFFCURVE",
"458 -20 CURVE"
);
},
{
closed = 1;
nodes = (
"252 3 OFFCURVE",
"100 96 OFFCURVE",
"100 248 CURVE",
"100 400 OFFCURVE",
"252 493 OFFCURVE",
"458 493 CURVE",
"663 493 OFFCURVE",
"816 400 OFFCURVE",
"816 248 CURVE",
"816 96 OFFCURVE",
"663 3 OFFCURVE",
"458 3 CURVE"
);
}
);
};
layerId = "B29C398E-974A-40D0-A0A0-00935056D4B4";
name = "Light Extended";
paths = (
{
closed = 1;
nodes = (
"674 -10 OFFCURVE",
"841 88 OFFCURVE",
"841 260 CURVE",
"841 431 OFFCURVE",
"674 530 OFFCURVE",
"458 530 CURVE",
"242 530 OFFCURVE",
"75 431 OFFCURVE",
"75 260 CURVE",
"75 88 OFFCURVE",
"242 -10 OFFCURVE",
"458 -10 CURVE"
);
},
{
closed = 1;
nodes = (
"828 -158 OFFCURVE",
"891 -99 OFFCURVE",
"902 -13 CURVE",
"879 -9 LINE",
"869 -87 OFFCURVE",
"813 -135 OFFCURVE",
"736 -135 CURVE SMOOTH",
"658 -135 OFFCURVE",
"602 -80 OFFCURVE",
"533 2 CURVE SMOOTH",
"515 23 LINE SMOOTH",
"422 134 OFFCURVE",
"355 223 OFFCURVE",
"179 223 CURVE SMOOTH",
"98 223 LINE",
"98 200 LINE",
"179 200 LINE SMOOTH",
"341 200 OFFCURVE",
"409 113 OFFCURVE",
"490 17 CURVE SMOOTH",
"503 1 LINE SMOOTH",
"586 -99 OFFCURVE",
"644 -158 OFFCURVE",
"736 -158 CURVE SMOOTH"
);
},
{
closed = 1;
nodes = (
"252 13 OFFCURVE",
"100 106 OFFCURVE",
"100 260 CURVE",
"100 414 OFFCURVE",
"252 507 OFFCURVE",
"458 507 CURVE",
"663 507 OFFCURVE",
"816 414 OFFCURVE",
"816 260 CURVE",
"816 106 OFFCURVE",
"663 13 OFFCURVE",
"458 13 CURVE"
);
}
);
width = 917;
},
{
layerId = "543F9737-16F7-428D-9F96-2EBD9FC8D3B6";
name = Light;
paths = (
{
closed = 1;
nodes = (
"562 -66 LINE",
"554 -68 OFFCURVE",
"537 -69 OFFCURVE",
"520 -69 CURVE SMOOTH",
"439 -69 OFFCURVE",
"397 -6 OFFCURVE",
"343 89 CURVE SMOOTH",
"322 128 LINE SMOOTH",
"263 235 OFFCURVE",
"226 280 OFFCURVE",
"100 280 CURVE SMOOTH",
"64 280 LINE",
"64 257 LINE",
"100 257 LINE SMOOTH",
"221 257 OFFCURVE",
"248 210 OFFCURVE",
"297 122 CURVE SMOOTH",
"319 81 LINE SMOOTH",
"379 -29 OFFCURVE",
"430 -92 OFFCURVE",
"520 -92 CURVE SMOOTH",
"537 -92 OFFCURVE",
"554 -91 OFFCURVE",
"565 -87 CURVE"
);
},
{
closed = 1;
nodes = (
"441 -10 OFFCURVE",
"556 89 OFFCURVE",
"556 260 CURVE",
"556 431 OFFCURVE",
"441 530 OFFCURVE",
"303 530 CURVE",
"164 530 OFFCURVE",
"50 431 OFFCURVE",
"50 260 CURVE",
"50 89 OFFCURVE",
"164 -10 OFFCURVE",
"303 -10 CURVE"
);
},
{
closed = 1;
nodes = (
"174 14 OFFCURVE",
"74 107 OFFCURVE",
"74 260 CURVE",
"74 413 OFFCURVE",
"174 506 OFFCURVE",
"303 506 CURVE",
"431 506 OFFCURVE",
"532 413 OFFCURVE",
"532 260 CURVE",
"532 107 OFFCURVE",
"431 14 OFFCURVE",
"303 14 CURVE"
);
}
);
width = 608;
},
{
layerId = "EB38A4D2-CD30-49BA-8E45-1F04A566FFE8";
name = Bold;
paths = (
{
closed = 1;
nodes = (
"595 19 LINE",
"582 16 OFFCURVE",
"568 14 OFFCURVE",
"549 14 CURVE",
"506 14 OFFCURVE",
"462 35 OFFCURVE",
"420 124 CURVE SMOOTH",
"395 177 LINE SMOOTH",
"344 285 OFFCURVE",
"270 305 OFFCURVE",
"192 305 CURVE SMOOTH",
"135 305 LINE",
"135 218 LINE",
"192 218 LINE SMOOTH",
"245 218 OFFCURVE",
"272 196 OFFCURVE",
"298 138 CURVE SMOOTH",
"321 87 LINE SMOOTH",
"377 -37 OFFCURVE",
"455 -83 OFFCURVE",
"532 -83 CURVE SMOOTH",
"565 -83 OFFCURVE",
"592 -77 OFFCURVE",
"609 -71 CURVE"
);
},
{
closed = 1;
nodes = (
"472 -10 OFFCURVE",
"592 110 OFFCURVE",
"592 260 CURVE SMOOTH",
"592 410 OFFCURVE",
"472 530 OFFCURVE",
"309 530 CURVE SMOOTH",
"145 530 OFFCURVE",
"25 410 OFFCURVE",
"25 260 CURVE SMOOTH",
"25 110 OFFCURVE",
"145 -10 OFFCURVE",
"309 -10 CURVE SMOOTH"
);
},
{
closed = 1;
nodes = (
"207 84 OFFCURVE",
"149 164 OFFCURVE",
"149 260 CURVE SMOOTH",
"149 354 OFFCURVE",
"207 436 OFFCURVE",
"308 436 CURVE SMOOTH",
"410 436 OFFCURVE",
"468 356 OFFCURVE",
"468 260 CURVE SMOOTH",
"468 166 OFFCURVE",
"410 84 OFFCURVE",
"308 84 CURVE SMOOTH"
);
}
);
width = 614;
},
{
anchors = (
{
name = bottom;
position = "{457, -10}";
},
{
name = top;
position = "{457, 530}";
}
);
layerId = "C70E3B11-AF58-44B6-92D7-58C9185F522D";
name = "Bold Extended";
paths = (
{
closed = 1;
nodes = (
"700 -10 OFFCURVE",
"872 109 OFFCURVE",
"872 260 CURVE",
"872 410 OFFCURVE",
"700 530 OFFCURVE",
"459 530 CURVE",
"218 530 OFFCURVE",
"45 410 OFFCURVE",
"45 260 CURVE",
"45 109 OFFCURVE",
"218 -10 OFFCURVE",
"459 -10 CURVE"
);
},
{
closed = 1;
nodes = (
"836 -160 OFFCURVE",
"905 -99 OFFCURVE",
"922 -20 CURVE",
"835 8 LINE",
"824 -41 OFFCURVE",
"783 -64 OFFCURVE",
"736 -64 CURVE SMOOTH",
"684 -64 OFFCURVE",
"640 -22 OFFCURVE",
"602 28 CURVE SMOOTH",
"542 107 LINE SMOOTH",
"450 228 OFFCURVE",
"385 285 OFFCURVE",
"231 285 CURVE SMOOTH",
"149 285 LINE",
"149 198 LINE",
"231 198 LINE SMOOTH",
"346 198 OFFCURVE",
"387 134 OFFCURVE",
"441 65 CURVE SMOOTH",
"494 -2 LINE SMOOTH",
"560 -86 OFFCURVE",
"626 -160 OFFCURVE",
"736 -160 CURVE SMOOTH"
);
},
{
closed = 1;
nodes = (
"280 80 OFFCURVE",
"171 161 OFFCURVE",
"171 260 CURVE",
"171 358 OFFCURVE",
"280 440 OFFCURVE",
"458 440 CURVE",
"636 440 OFFCURVE",
"745 359 OFFCURVE",
"745 260 CURVE",
"745 162 OFFCURVE",
"636 80 OFFCURVE",
"458 80 CURVE"
);
}
);
width = 922;
}
);
leftKerningGroup = O;
leftMetricsKey = "=O";
rightKerningGroup = O;
unicode = 0051;
},
{
color = 4;
glyphname = Q.alt;
lastChange = "2015-11-25 03:14:34 +0000";
layers = (
{
anchors = (
{
name = bottom;
position = "{456, -10}";
},
{
name = top;
position = "{456, 530}";
}
);
background = {
paths = (
{
closed = 1;
nodes = (
"543 196 OFFCURVE",
"433 265 OFFCURVE",
"135 265 CURVE SMOOTH",
"88 265 LINE",
"88 242 LINE",
"135 242 LINE SMOOTH",
"400 242 OFFCURVE",
"512 191 OFFCURVE",
"666 -1 CURVE SMOOTH",
"835 -214 OFFCURVE",
"957 -351 OFFCURVE",
"1161 -351 CURVE SMOOTH",
"1301 -351 OFFCURVE",
"1392 -305 OFFCURVE",
"1470 -234 CURVE",
"1454 -216 LINE",
"1383 -281 OFFCURVE",
"1297 -328 OFFCURVE",
"1161 -328 CURVE SMOOTH",
"978 -328 OFFCURVE",
"858 -205 OFFCURVE",
"697 0 CURVE SMOOTH"
);
},
{
closed = 1;
nodes = (
"674 -20 OFFCURVE",
"841 78 OFFCURVE",
"841 248 CURVE",
"841 417 OFFCURVE",
"674 516 OFFCURVE",
"458 516 CURVE",
"242 516 OFFCURVE",
"75 417 OFFCURVE",
"75 248 CURVE",
"75 78 OFFCURVE",
"242 -20 OFFCURVE",
"458 -20 CURVE"
);
},
{
closed = 1;
nodes = (
"252 3 OFFCURVE",
"100 96 OFFCURVE",
"100 248 CURVE",
"100 400 OFFCURVE",
"252 493 OFFCURVE",
"458 493 CURVE",
"663 493 OFFCURVE",
"816 400 OFFCURVE",
"816 248 CURVE",
"816 96 OFFCURVE",
"663 3 OFFCURVE",
"458 3 CURVE"
);
}
);
};
guideLines = (
{
position = "{608, 27}";
}
);
layerId = "B29C398E-974A-40D0-A0A0-00935056D4B4";
name = "Light Extended";
paths = (
{
closed = 1;
nodes = (
"1361 -280 OFFCURVE",
"1461 -227 OFFCURVE",
"1527 -184 CURVE",
"1514 -165 LINE",
"1453 -206 OFFCURVE",
"1357 -257 OFFCURVE",
"1217 -257 CURVE SMOOTH",
"1048 -257 OFFCURVE",
"917 -177 OFFCURVE",
"721 20 CURVE SMOOTH",
"557 185 OFFCURVE",
"433 265 OFFCURVE",
"185 265 CURVE SMOOTH",
"88 265 LINE",
"88 242 LINE",
"185 242 LINE SMOOTH",
"412 242 OFFCURVE",
"532 174 OFFCURVE",
"686 19 CURVE SMOOTH",
"888 -185 OFFCURVE",
"1027 -280 OFFCURVE",
"1217 -280 CURVE SMOOTH"
);
},
{
closed = 1;
nodes = (
"674 -10 OFFCURVE",
"841 88 OFFCURVE",
"841 258 CURVE",
"841 427 OFFCURVE",
"674 526 OFFCURVE",
"458 526 CURVE",
"242 526 OFFCURVE",
"75 427 OFFCURVE",
"75 258 CURVE",
"75 88 OFFCURVE",
"242 -10 OFFCURVE",
"458 -10 CURVE"
);
},
{
closed = 1;
nodes = (
"252 13 OFFCURVE",
"100 106 OFFCURVE",
"100 258 CURVE",
"100 410 OFFCURVE",
"252 503 OFFCURVE",
"458 503 CURVE",
"663 503 OFFCURVE",
"816 410 OFFCURVE",
"816 258 CURVE",
"816 106 OFFCURVE",
"663 13 OFFCURVE",
"458 13 CURVE"
);
}
);
width = 910;
},
{
anchors = (
{
name = bottom;
position = "{301, -10}";
},
{
name = top;
position = "{301, 530}";
}
);
layerId = "543F9737-16F7-428D-9F96-2EBD9FC8D3B6";
name = Light;
paths = (
{
closed = 1;
nodes = (
"893 -188 OFFCURVE",
"950 -165 OFFCURVE",
"993 -136 CURVE",
"981 -117 LINE",
"941 -144 OFFCURVE",
"885 -165 OFFCURVE",
"820 -165 CURVE SMOOTH",
"707 -165 OFFCURVE",
"610 -104 OFFCURVE",
"475 61 CURVE SMOOTH",
"331 237 OFFCURVE",
"241 253 OFFCURVE",
"90 253 CURVE SMOOTH",
"64 253 LINE",
"64 230 LINE",
"90 230 LINE SMOOTH",
"241 230 OFFCURVE",
"319 213 OFFCURVE",
"448 55 CURVE SMOOTH",
"594 -123 OFFCURVE",
"697 -188 OFFCURVE",
"820 -188 CURVE SMOOTH"
);
},
{
closed = 1;
nodes = (
"441 -10 OFFCURVE",
"556 89 OFFCURVE",
"556 260 CURVE",
"556 431 OFFCURVE",
"441 530 OFFCURVE",
"303 530 CURVE",
"164 530 OFFCURVE",
"50 431 OFFCURVE",
"50 260 CURVE",
"50 89 OFFCURVE",
"164 -10 OFFCURVE",
"303 -10 CURVE"
);
},
{
closed = 1;
nodes = (
"174 14 OFFCURVE",
"74 107 OFFCURVE",
"74 260 CURVE",
"74 413 OFFCURVE",
"174 506 OFFCURVE",
"303 506 CURVE",
"431 506 OFFCURVE",
"532 413 OFFCURVE",
"532 260 CURVE",
"532 107 OFFCURVE",
"431 14 OFFCURVE",
"303 14 CURVE"
);
}
);
width = 617;
},
{
anchors = (
{
name = bottom;
position = "{307, -10}";
},
{
name = top;
position = "{307, 530}";
}
);
layerId = "EB38A4D2-CD30-49BA-8E45-1F04A566FFE8";
name = Bold;
paths = (
{
closed = 1;
nodes = (
"882 -200 OFFCURVE",
"951 -170 OFFCURVE",
"998 -136 CURVE",
"953 -51 LINE",
"908 -82 OFFCURVE",
"863 -100 OFFCURVE",
"803 -100 CURVE SMOOTH",
"713 -100 OFFCURVE",
"646 -44 OFFCURVE",
"549 59 CURVE SMOOTH",
"401 217 OFFCURVE",
"343 284 OFFCURVE",
"141 284 CURVE SMOOTH",
"98 284 LINE",
"98 197 LINE",
"144 197 LINE SMOOTH",
"288 197 OFFCURVE",
"338 147 OFFCURVE",
"453 11 CURVE SMOOTH",
"590 -151 OFFCURVE",
"677 -200 OFFCURVE",
"803 -200 CURVE SMOOTH"
);
},
{
closed = 1;
nodes = (
"472 -10 OFFCURVE",
"592 110 OFFCURVE",
"592 260 CURVE",
"592 410 OFFCURVE",
"472 530 OFFCURVE",
"309 530 CURVE",
"145 530 OFFCURVE",
"25 410 OFFCURVE",
"25 260 CURVE",
"25 110 OFFCURVE",
"145 -10 OFFCURVE",
"309 -10 CURVE"
);
},
{
closed = 1;
nodes = (
"207 81 OFFCURVE",
"150 162 OFFCURVE",
"150 260 CURVE",
"150 357 OFFCURVE",
"207 439 OFFCURVE",
"308 439 CURVE",
"409 439 OFFCURVE",
"466 358 OFFCURVE",
"466 260 CURVE",
"466 163 OFFCURVE",
"409 81 OFFCURVE",
"308 81 CURVE"
);
}
);
width = 625;
},
{
anchors = (
{
name = bottom;
position = "{457, -10}";
},
{
name = top;
position = "{457, 530}";
}
);
layerId = "C70E3B11-AF58-44B6-92D7-58C9185F522D";
name = "Bold Extended";
paths = (
{
closed = 1;
nodes = (
"1345 -320 OFFCURVE",
"1457 -260 OFFCURVE",
"1527 -212 CURVE",
"1481 -127 LINE",
"1415 -172 OFFCURVE",
"1330 -220 OFFCURVE",
"1195 -220 CURVE SMOOTH",
"1049 -220 OFFCURVE",
"948 -145 OFFCURVE",
"790 18 CURVE SMOOTH",
"640 181 OFFCURVE",
"530 296 OFFCURVE",
"231 296 CURVE SMOOTH",
"117 296 LINE",
"117 209 LINE",
"234 209 LINE SMOOTH",
"454 209 OFFCURVE",
"556 117 OFFCURVE",
"686 -25 CURVE SMOOTH",
"879 -241 OFFCURVE",
"1002 -320 OFFCURVE",
"1195 -320 CURVE SMOOTH"
);
},
{
closed = 1;
nodes = (
"700 -10 OFFCURVE",
"872 104 OFFCURVE",
"872 260 CURVE",
"872 415 OFFCURVE",
"700 530 OFFCURVE",
"459 530 CURVE",
"218 530 OFFCURVE",
"45 415 OFFCURVE",
"45 260 CURVE",
"45 104 OFFCURVE",
"218 -10 OFFCURVE",
"459 -10 CURVE"
);
},
{
closed = 1;
nodes = (
"283 88 OFFCURVE",
"175 161 OFFCURVE",
"175 260 CURVE",
"175 357 OFFCURVE",
"283 432 OFFCURVE",
"458 432 CURVE",
"634 432 OFFCURVE",
"742 359 OFFCURVE",
"742 260 CURVE",
"742 163 OFFCURVE",
"634 88 OFFCURVE",
"458 88 CURVE"
);
}
);
width = 913;
}
);
leftKerningGroup = Q.alt;
leftMetricsKey = "=O";
rightKerningGroup = Q.alt;
},
{
color = 4;
glyphname = R;
lastChange = "2015-11-24 23:42:23 +0000";
layers = (
{
anchors = (
{
name = bottom;
position = "{564, 0}";
},
{
name = top;
position = "{524, 520}";
}
);
background = {
paths = (
{
closed = 1;
nodes = (
"452 239 LINE SMOOTH",
"536 239 OFFCURVE",
"581 169 OFFCURVE",
"630 110 CURVE SMOOTH",
"685 44 OFFCURVE",
"747 -37 OFFCURVE",
"839 -37 CURVE SMOOTH",
"949 -37 OFFCURVE",
"1012 37 OFFCURVE",
"1012 148 CURVE SMOOTH",
"1012 169 LINE",
"987 169 LINE",
"987 148 LINE SMOOTH",
"987 48 OFFCURVE",
"931 -14 OFFCURVE",
"839 -14 CURVE SMOOTH",
"756 -14 OFFCURVE",
"705 60 OFFCURVE",
"651 123 CURVE SMOOTH",
"588 197 OFFCURVE",
"548 253 OFFCURVE",
"440 253 CURVE SMOOTH",
"258 253 LINE",
"258 239 LINE"
);
},
{
closed = 1;
nodes = (
"263 13 LINE",
"263 507 LINE",
"238 507 LINE",
"238 13 LINE"
);
},
{
closed = 1;
nodes = (
"454 0 LINE",
"454 23 LINE",
"56 22 LINE",
"56 -1 LINE"
);
},
{
closed = 1;
nodes = (
"717 241 LINE SMOOTH",
"841 241 OFFCURVE",
"900 309 OFFCURVE",
"900 378 CURVE SMOOTH",
"900 457 OFFCURVE",
"840 520 OFFCURVE",
"717 520 CURVE SMOOTH",
"56 520 LINE",
"56 497 LINE",
"717 497 LINE SMOOTH",
"826 497 OFFCURVE",
"875 441 OFFCURVE",
"875 378 CURVE SMOOTH",
"875 317 OFFCURVE",
"823 262 OFFCURVE",
"717 262 CURVE SMOOTH",
"258 262 LINE",
"258 241 LINE"
);
}
);
};
layerId = "B29C398E-974A-40D0-A0A0-00935056D4B4";
name = "Light Extended";
paths = (
{
closed = 1;
nodes = (
"717 241 LINE SMOOTH",
"841 241 OFFCURVE",
"900 309 OFFCURVE",
"900 378 CURVE SMOOTH",
"900 457 OFFCURVE",
"840 520 OFFCURVE",
"717 520 CURVE SMOOTH",
"56 520 LINE",
"56 497 LINE",
"717 497 LINE SMOOTH",
"826 497 OFFCURVE",
"875 441 OFFCURVE",
"875 378 CURVE SMOOTH",
"875 317 OFFCURVE",
"823 262 OFFCURVE",
"717 262 CURVE SMOOTH",
"258 262 LINE",
"258 241 LINE"
);
},
{
closed = 1;
nodes = (
"445 0 LINE",
"445 23 LINE",
"56 22 LINE",
"56 -1 LINE"
);
},
{
closed = 1;
nodes = (
"263 13 LINE",
"263 507 LINE",
"238 507 LINE",
"238 13 LINE"
);
},
{
closed = 1;
nodes = (
"949 -10 OFFCURVE",
"1012 64 OFFCURVE",
"1012 155 CURVE SMOOTH",
"1012 176 LINE",
"987 176 LINE",
"987 155 LINE SMOOTH",
"987 75 OFFCURVE",
"931 13 OFFCURVE",
"854 13 CURVE SMOOTH",
"774 13 OFFCURVE",
"734 67 OFFCURVE",
"675 138 CURVE SMOOTH",
"601 227 OFFCURVE",
"568 253 OFFCURVE",
"460 253 CURVE SMOOTH",
"258 253 LINE",
"258 239 LINE",
"472 239 LINE SMOOTH",
"556 239 OFFCURVE",
"595 201 OFFCURVE",
"654 125 CURVE SMOOTH",
"713 49 OFFCURVE",
"765 -10 OFFCURVE",
"854 -10 CURVE SMOOTH"
);
}
);
width = 1057;
},
{
anchors = (
{
name = bottom;
position = "{335, 0}";
},
{
name = top;
position = "{295, 520}";
}
);
background = {
anchors = (
{
name = bottom;
position = "{335, 0}";
},
{
name = top;
position = "{295, 520}";
}
);
paths = (
{
closed = 1;
nodes = (
"352 241 LINE SMOOTH",
"466 241 OFFCURVE",
"525 309 OFFCURVE",
"525 378 CURVE SMOOTH",
"525 457 OFFCURVE",
"465 520 OFFCURVE",
"352 520 CURVE SMOOTH",
"30 520 LINE",
"30 497 LINE",
"352 497 LINE SMOOTH",
"451 497 OFFCURVE",
"500 441 OFFCURVE",
"500 378 CURVE SMOOTH",
"500 317 OFFCURVE",
"448 262 OFFCURVE",
"352 262 CURVE SMOOTH",
"163 262 LINE",
"163 241 LINE"
);
},
{
closed = 1;
nodes = (
"281 0 LINE",
"281 23 LINE",
"30 22 LINE",
"30 -1 LINE"
);
},
{
closed = 1;
nodes = (
"168 13 LINE",
"168 507 LINE",
"143 507 LINE",
"143 13 LINE"
);
},
{
closed = 1;
nodes = (
"568 -10 OFFCURVE",
"597 44 OFFCURVE",
"597 95 CURVE SMOOTH",
"597 116 LINE",
"572 116 LINE",
"572 95 LINE SMOOTH",
"572 55 OFFCURVE",
"554 13 OFFCURVE",
"509 13 CURVE SMOOTH",
"461 13 OFFCURVE",
"443 52 OFFCURVE",
"400 150 CURVE SMOOTH",
"358 246 OFFCURVE",
"293 253 OFFCURVE",
"205 253 CURVE SMOOTH",
"163 253 LINE",
"163 239 LINE",
"237 239 LINE SMOOTH",
"301 239 OFFCURVE",
"348 214 OFFCURVE",
"379 137 CURVE SMOOTH",
"420 35 OFFCURVE",
"455 -10 OFFCURVE",
"509 -10 CURVE SMOOTH"
);
}
);
};
layerId = "543F9737-16F7-428D-9F96-2EBD9FC8D3B6";
name = Light;
paths = (
{
closed = 1;
nodes = (
"320 241 LINE SMOOTH",
"434 241 OFFCURVE",
"493 309 OFFCURVE",
"493 378 CURVE SMOOTH",
"493 457 OFFCURVE",
"433 520 OFFCURVE",
"320 520 CURVE SMOOTH",
"30 520 LINE",
"30 497 LINE",
"320 497 LINE SMOOTH",
"419 497 OFFCURVE",
"468 441 OFFCURVE",
"468 378 CURVE SMOOTH",
"468 317 OFFCURVE",
"416 262 OFFCURVE",
"320 262 CURVE SMOOTH",
"163 262 LINE",
"163 241 LINE"
);
},
{
closed = 1;
nodes = (
"281 0 LINE",
"281 23 LINE",
"30 22 LINE",
"30 -1 LINE"
);
},
{
closed = 1;
nodes = (
"168 13 LINE",
"168 507 LINE",
"143 507 LINE",
"143 13 LINE"
);
},
{
closed = 1;
nodes = (
"555 -10 OFFCURVE",
"590 18 OFFCURVE",
"610 45 CURVE",
"593 61 LINE",
"576 38 OFFCURVE",
"549 13 OFFCURVE",
"506 13 CURVE SMOOTH",
"440 13 OFFCURVE",
"396 68 OFFCURVE",
"357 172 CURVE SMOOTH",
"327 253 LINE",
"304 249 LINE",
"333 168 LINE SMOOTH",
"374 52 OFFCURVE",
"427 -10 OFFCURVE",
"506 -10 CURVE SMOOTH"
);
}
);
width = 600;
},
{
anchors = (
{
name = bottom;
position = "{360, 0}";
},
{
name = top;
position = "{320, 520}";
}
);
background = {
paths = (
{
closed = 1;
nodes = (
"347 207 LINE SMOOTH",
"468 207 OFFCURVE",
"544 262 OFFCURVE",
"544 364 CURVE SMOOTH",
"544 466 OFFCURVE",
"458 520 OFFCURVE",
"337 520 CURVE SMOOTH",
"25 520 LINE",
"25 424 LINE",
"340 424 LINE SMOOTH",
"377 424 OFFCURVE",
"422 412 OFFCURVE",
"422 364 CURVE SMOOTH",
"422 312 OFFCURVE",
"374 297 OFFCURVE",
"340 297 CURVE SMOOTH",
"190 297 LINE",
"190 207 LINE"
);
},
{
closed = 1;
nodes = (
"313 0 LINE",
"313 96 LINE",
"25 97 LINE",
"25 0 LINE"
);
},
{
closed = 1;
nodes = (
"233 53 LINE",
"233 464 LINE",
"110 464 LINE",
"110 53 LINE"
);
},
{
closed = 1;
nodes = (
"559 -11 OFFCURVE",
"597 19 OFFCURVE",
"619 44 CURVE",
"563 123 LINE",
"548 110 OFFCURVE",
"533 97 OFFCURVE",
"507 97 CURVE SMOOTH",
"477 97 OFFCURVE",
"452 122 OFFCURVE",
"421 203 CURVE SMOOTH",
"415 219 LINE",
"299 219 LINE",
"304 197 LINE SMOOTH",
"337 52 OFFCURVE",
"404 -11 OFFCURVE",
"499 -11 CURVE SMOOTH"
);
}
);
};
layerId = "EB38A4D2-CD30-49BA-8E45-1F04A566FFE8";
name = Bold;
paths = (
{
closed = 1;
nodes = (
"347 207 LINE SMOOTH",
"468 207 OFFCURVE",
"544 262 OFFCURVE",
"544 364 CURVE SMOOTH",
"544 466 OFFCURVE",
"458 520 OFFCURVE",
"337 520 CURVE SMOOTH",
"25 520 LINE",
"25 424 LINE",
"340 424 LINE SMOOTH",
"377 424 OFFCURVE",
"422 412 OFFCURVE",
"422 364 CURVE SMOOTH",
"422 312 OFFCURVE",
"374 297 OFFCURVE",
"340 297 CURVE SMOOTH",
"190 297 LINE",
"190 207 LINE"
);
},
{
closed = 1;
nodes = (
"313 0 LINE",
"313 96 LINE",
"25 97 LINE",
"25 0 LINE"
);
},
{
closed = 1;
nodes = (
"233 53 LINE",
"233 464 LINE",
"110 464 LINE",
"110 53 LINE"
);
},
{
closed = 1;
nodes = (
"568 -11 OFFCURVE",
"602 19 OFFCURVE",
"624 44 CURVE",
"568 123 LINE",
"555 112 OFFCURVE",
"540 102 OFFCURVE",
"516 102 CURVE SMOOTH",
"484 102 OFFCURVE",
"450 121 OFFCURVE",
"424 203 CURVE SMOOTH",
"419 219 LINE",
"310 219 LINE",
"315 197 LINE SMOOTH",
"348 52 OFFCURVE",
"413 -11 OFFCURVE",
"508 -11 CURVE SMOOTH"
);
}
);
width = 604;
},
{
anchors = (
{
name = bottom;
position = "{589, 0}";
},
{
name = top;
position = "{549, 520}";
}
);
background = {
paths = (
{
closed = 1;
nodes = (
"722 217 LINE SMOOTH",
"853 217 OFFCURVE",
"929 272 OFFCURVE",
"929 369 CURVE SMOOTH",
"929 466 OFFCURVE",
"843 520 OFFCURVE",
"712 520 CURVE SMOOTH",
"51 520 LINE",
"51 424 LINE",
"715 424 LINE SMOOTH",
"762 424 OFFCURVE",
"807 415 OFFCURVE",
"807 369 CURVE SMOOTH",
"807 319 OFFCURVE",
"759 307 OFFCURVE",
"715 307 CURVE SMOOTH",
"285 307 LINE",
"285 217 LINE"
);
},
{
closed = 1;
nodes = (
"477 0 LINE",
"477 96 LINE",
"51 97 LINE",
"51 0 LINE"
);
},
{
closed = 1;
nodes = (
"328 53 LINE",
"328 464 LINE",
"205 464 LINE",
"205 53 LINE"
);
},
{
closed = 1;
nodes = (
"953 -11 OFFCURVE",
"1039 73 OFFCURVE",
"1039 194 CURVE SMOOTH",
"1039 221 LINE",
"934 221 LINE",
"934 192 LINE SMOOTH",
"934 127 OFFCURVE",
"885 91 OFFCURVE",
"836 91 CURVE SMOOTH",
"787 91 OFFCURVE",
"756 114 OFFCURVE",
"725 121 CURVE SMOOTH",
"661 187 OFFCURVE",
"657 235 OFFCURVE",
"590 235 CURVE SMOOTH",
"322 235 LINE",
"322 217 LINE",
"491 217 LINE SMOOTH",
"542 217 OFFCURVE",
"555 160 OFFCURVE",
"607 107 CURVE SMOOTH",
"647 82 OFFCURVE",
"696 -11 OFFCURVE",
"836 -11 CURVE SMOOTH"
);
}
);
};
layerId = "C70E3B11-AF58-44B6-92D7-58C9185F522D";
name = "Bold Extended";
paths = (
{
closed = 1;
nodes = (
"722 217 LINE SMOOTH",
"849 217 OFFCURVE",
"929 272 OFFCURVE",
"929 369 CURVE SMOOTH",
"929 466 OFFCURVE",
"846 520 OFFCURVE",
"712 520 CURVE SMOOTH",
"51 520 LINE",
"51 424 LINE",
"715 424 LINE SMOOTH",
"774 424 OFFCURVE",
"807 404 OFFCURVE",
"807 369 CURVE SMOOTH",
"807 329 OFFCURVE",
"774 307 OFFCURVE",
"715 307 CURVE SMOOTH",
"285 307 LINE",
"285 217 LINE"
);
},
{
closed = 1;
nodes = (
"477 0 LINE",
"477 96 LINE",
"51 97 LINE",
"51 0 LINE"
);
},
{
closed = 1;
nodes = (
"328 53 LINE",
"328 464 LINE",
"205 464 LINE",
"205 53 LINE"
);
},
{
closed = 1;
nodes = (
"953 -11 OFFCURVE",
"1039 73 OFFCURVE",
"1039 184 CURVE SMOOTH",
"1039 211 LINE",
"934 211 LINE",
"934 182 LINE SMOOTH",
"934 127 OFFCURVE",
"893 91 OFFCURVE",
"848 91 CURVE SMOOTH",
"798 91 OFFCURVE",
"770 110 OFFCURVE",
"725 155 CURVE SMOOTH",
"662 219 OFFCURVE",
"621 235 OFFCURVE",
"545 235 CURVE SMOOTH",
"322 235 LINE",
"322 217 LINE",
"435 217 LINE SMOOTH",
"542 217 OFFCURVE",
"566 182 OFFCURVE",
"615 125 CURVE SMOOTH",
"666 65 OFFCURVE",
"736 -11 OFFCURVE",
"848 -11 CURVE SMOOTH"
);
}
);
width = 1059;
}
);
leftKerningGroup = H;
leftMetricsKey = "=H";
rightKerningGroup = R;
unicode = 0052;
},
{
glyphname = R.alt;
lastChange = "2015-11-25 03:14:34 +0000";
layers = (
{
anchors = (
{
name = bottom;
position = "{447, 0}";
},
{
name = top;
position = "{447, 520}";
}
);
background = {
paths = (
{
closed = 1;
nodes = (
"263 18 LINE",
"263 475 LINE",
"238 475 LINE",
"238 18 LINE"
);
},
{
closed = 1;
nodes = (
"456 0 LINE",
"456 23 LINE",
"56 23 LINE",
"56 0 LINE"
);
},
{
closed = 1;
nodes = (
"613 213 LINE SMOOTH",
"729 213 OFFCURVE",
"815 264 OFFCURVE",
"815 350 CURVE SMOOTH",
"815 433 OFFCURVE",
"754 490 OFFCURVE",
"638 490 CURVE SMOOTH",
"56 490 LINE",
"56 467 LINE",
"638 467 LINE SMOOTH",
"741 467 OFFCURVE",
"790 417 OFFCURVE",
"790 350 CURVE SMOOTH",
"790 276 OFFCURVE",
"711 236 OFFCURVE",
"613 236 CURVE SMOOTH",
"251 236 LINE",
"251 213 LINE"
);
},
{
closed = 1;
nodes = (
"302 225 LINE",
"281 213 LINE",
"403 213 LINE SMOOTH",
"566 213 OFFCURVE",
"642 173 OFFCURVE",
"762 -8 CURVE SMOOTH",
"904 -223 OFFCURVE",
"1051 -353 OFFCURVE",
"1266 -353 CURVE SMOOTH",
"1433 -353 OFFCURVE",
"1537 -286 OFFCURVE",
"1595 -248 CURVE",
"1584 -229 LINE",
"1531 -265 OFFCURVE",
"1429 -330 OFFCURVE",
"1266 -330 CURVE SMOOTH",
"1072 -330 OFFCURVE",
"928 -214 OFFCURVE",
"790 -7 CURVE SMOOTH",
"672 170 OFFCURVE",
"610 225 OFFCURVE",
"405 225 CURVE SMOOTH"
);
}
);
};
guideLines = (
{
position = "{475, -263}";
}
);
layerId = "B29C398E-974A-40D0-A0A0-00935056D4B4";
name = "Light Extended";
paths = (
{
closed = 1;
nodes = (
"1413 -280 OFFCURVE",
"1508 -214 OFFCURVE",
"1566 -176 CURVE",
"1554 -156 LINE",
"1501 -192 OFFCURVE",
"1409 -257 OFFCURVE",
"1246 -257 CURVE SMOOTH",
"1052 -257 OFFCURVE",
"914 -143 OFFCURVE",
"795 13 CURVE SMOOTH",
"660 189 OFFCURVE",
"593 247 OFFCURVE",
"405 247 CURVE SMOOTH",
"251 247 LINE",
"252 233 LINE",
"403 233 LINE SMOOTH",
"566 233 OFFCURVE",
"627 187 OFFCURVE",
"762 12 CURVE SMOOTH",
"885 -147 OFFCURVE",
"1031 -280 OFFCURVE",
"1246 -280 CURVE SMOOTH"
);
},
{
closed = 1;
nodes = (
"445 0 LINE",
"445 23 LINE",
"56 23 LINE",
"56 0 LINE"
);
},
{
closed = 1;
nodes = (
"263 18 LINE",
"263 505 LINE",
"238 505 LINE",
"238 18 LINE"
);
},
{
closed = 1;
nodes = (
"631 234 LINE SMOOTH",
"755 234 OFFCURVE",
"814 303 OFFCURVE",
"814 378 CURVE SMOOTH",
"814 462 OFFCURVE",
"754 520 OFFCURVE",
"631 520 CURVE SMOOTH",
"56 520 LINE",
"56 497 LINE",
"631 497 LINE SMOOTH",
"740 497 OFFCURVE",
"789 446 OFFCURVE",
"789 378 CURVE SMOOTH",
"789 311 OFFCURVE",
"737 255 OFFCURVE",
"631 255 CURVE SMOOTH",
"258 255 LINE",
"258 234 LINE"
);
}
);
width = 926;
},
{
anchors = (
{
name = bottom;
position = "{325, 0}";
},
{
name = top;
position = "{285, 520}";
}
);
layerId = "543F9737-16F7-428D-9F96-2EBD9FC8D3B6";
name = Light;
paths = (
{
closed = 1;
nodes = (
"867 -200 OFFCURVE",
"924 -175 OFFCURVE",
"962 -148 CURVE",
"950 -129 LINE",
"915 -154 OFFCURVE",
"859 -177 OFFCURVE",
"797 -177 CURVE SMOOTH",
"691 -177 OFFCURVE",
"612 -118 OFFCURVE",
"502 70 CURVE SMOOTH",
"408 230 OFFCURVE",
"365 253 OFFCURVE",
"277 253 CURVE SMOOTH",
"203 253 LINE",
"203 241 LINE",
"277 241 LINE SMOOTH",
"341 241 OFFCURVE",
"385 224 OFFCURVE",
"480 60 CURVE SMOOTH",
"594 -138 OFFCURVE",
"678 -200 OFFCURVE",
"797 -200 CURVE SMOOTH"
);
},
{
closed = 1;
nodes = (
"281 0 LINE",
"281 23 LINE",
"30 22 LINE",
"30 -1 LINE"
);
},
{
closed = 1;
nodes = (
"168 13 LINE",
"168 507 LINE",
"143 507 LINE",
"143 13 LINE"
);
},
{
closed = 1;
nodes = (
"352 241 LINE SMOOTH",
"466 241 OFFCURVE",
"525 309 OFFCURVE",
"525 378 CURVE SMOOTH",
"525 457 OFFCURVE",
"465 520 OFFCURVE",
"352 520 CURVE SMOOTH",
"30 520 LINE",
"30 497 LINE",
"352 497 LINE SMOOTH",
"451 497 OFFCURVE",
"500 441 OFFCURVE",
"500 378 CURVE SMOOTH",
"500 317 OFFCURVE",
"448 262 OFFCURVE",
"352 262 CURVE SMOOTH",
"163 262 LINE",
"163 241 LINE"
);
}
);
width = 597;
},
{
anchors = (
{
name = bottom;
position = "{357, 0}";
},
{
name = top;
position = "{317, 520}";
}
);
layerId = "EB38A4D2-CD30-49BA-8E45-1F04A566FFE8";
name = Bold;
paths = (
{
closed = 1;
nodes = (
"933 -200 OFFCURVE",
"1018 -161 OFFCURVE",
"1079 -114 CURVE",
"1029 -29 LINE",
"975 -70 OFFCURVE",
"914 -96 OFFCURVE",
"835 -96 CURVE SMOOTH",
"739 -96 OFFCURVE",
"639 -52 OFFCURVE",
"536 72 CURVE SMOOTH",
"448 180 OFFCURVE",
"405 229 OFFCURVE",
"337 229 CURVE SMOOTH",
"202 229 LINE",
"202 210 LINE",
"249 210 LINE SMOOTH",
"305 210 OFFCURVE",
"314 156 OFFCURVE",
"427 22 CURVE SMOOTH",
"532 -98 OFFCURVE",
"657 -200 OFFCURVE",
"817 -200 CURVE SMOOTH"
);
},
{
closed = 1;
nodes = (
"318 0 LINE",
"318 96 LINE",
"25 97 LINE",
"25 0 LINE"
);
},
{
closed = 1;
nodes = (
"233 53 LINE",
"233 464 LINE",
"110 464 LINE",
"110 53 LINE"
);
},
{
closed = 1;
nodes = (
"357 210 LINE SMOOTH",
"489 210 OFFCURVE",
"554 285 OFFCURVE",
"554 366 CURVE SMOOTH",
"554 457 OFFCURVE",
"488 520 OFFCURVE",
"357 520 CURVE SMOOTH",
"25 520 LINE",
"25 424 LINE",
"350 424 LINE SMOOTH",
"387 424 OFFCURVE",
"432 415 OFFCURVE",
"432 366 CURVE SMOOTH",
"432 307 OFFCURVE",
"384 301 OFFCURVE",
"350 301 CURVE SMOOTH",
"190 301 LINE",
"190 210 LINE"
);
}
);
width = 587;
},
{
anchors = (
{
name = bottom;
position = "{479, 0}";
},
{
name = top;
position = "{479, 520}";
}
);
background = {
paths = (
{
closed = 1;
nodes = (
"636 203 LINE SMOOTH",
"778 203 OFFCURVE",
"843 279 OFFCURVE",
"843 366 CURVE SMOOTH",
"843 462 OFFCURVE",
"777 520 OFFCURVE",
"636 520 CURVE SMOOTH",
"51 520 LINE",
"51 424 LINE",
"619 424 LINE SMOOTH",
"666 424 OFFCURVE",
"721 420 OFFCURVE",
"721 366 CURVE SMOOTH",
"721 301 OFFCURVE",
"663 294 OFFCURVE",
"619 294 CURVE SMOOTH",
"285 294 LINE",
"285 203 LINE"
);
}
);
};
layerId = "C70E3B11-AF58-44B6-92D7-58C9185F522D";
name = "Bold Extended";
paths = (
{
closed = 1;
nodes = (
"1479 -285 OFFCURVE",
"1608 -203 OFFCURVE",
"1689 -140 CURVE",
"1633 -61 LINE",
"1561 -113 OFFCURVE",
"1464 -181 OFFCURVE",
"1284 -181 CURVE SMOOTH",
"1100 -181 OFFCURVE",
"977 -115 OFFCURVE",
"839 15 CURVE SMOOTH",
"715 131 OFFCURVE",
"633 223 OFFCURVE",
"465 223 CURVE SMOOTH",
"250 223 LINE",
"251 202 LINE",
"375 202 LINE SMOOTH",
"488 202 OFFCURVE",
"566 119 OFFCURVE",
"719 -26 CURVE SMOOTH",
"873 -172 OFFCURVE",
"1060 -285 OFFCURVE",
"1288 -285 CURVE SMOOTH"
);
},
{
closed = 1;
nodes = (
"482 0 LINE",
"482 96 LINE",
"51 98 LINE",
"51 1 LINE"
);
},
{
closed = 1;
nodes = (
"328 58 LINE",
"328 462 LINE",
"205 462 LINE",
"205 58 LINE"
);
},
{
closed = 1;
nodes = (
"636 211 LINE SMOOTH",
"763 212 OFFCURVE",
"843 262 OFFCURVE",
"843 364 CURVE SMOOTH",
"843 466 OFFCURVE",
"760 520 OFFCURVE",
"626 520 CURVE SMOOTH",
"51 520 LINE",
"51 424 LINE",
"629 424 LINE SMOOTH",
"688 424 OFFCURVE",
"721 404 OFFCURVE",
"721 364 CURVE SMOOTH",
"721 319 OFFCURVE",
"688 302 OFFCURVE",
"629 301 CURVE SMOOTH",
"229 297 LINE",
"229 207 LINE"
);
}
);
width = 916;
}
);
leftKerningGroup = R.alt;
leftMetricsKey = "=H";
rightKerningGroup = R.alt;
},
{
color = 4;
glyphname = S;
lastChange = "2015-11-25 16:15:17 +0000";
layers = (
{
anchors = (
{
name = bottom;
position = "{470, -10}";
},
{
name = top;
position = "{450, 530}";
}
);
background = {
paths = (
{
closed = 1;
nodes = (
"243 494 OFFCURVE",
"142 450 OFFCURVE",
"142 375 CURVE SMOOTH",
"142 305 OFFCURVE",
"227 281 OFFCURVE",
"430 258 CURVE SMOOTH",
"664 232 OFFCURVE",
"777 218 OFFCURVE",
"777 119 CURVE SMOOTH",
"777 20 OFFCURVE",
"658 -20 OFFCURVE",
"497 -20 CURVE",
"325 -20 OFFCURVE",
"171 55 OFFCURVE",
"118 120 CURVE",
"140 120 LINE",
"140 0 LINE",
"115 0 LINE",
"115 158 LINE",
"191 64 OFFCURVE",
"349 3 OFFCURVE",
"498 3 CURVE",
"642 3 OFFCURVE",
"753 43 OFFCURVE",
"753 119 CURVE SMOOTH",
"753 196 OFFCURVE",
"658 209 OFFCURVE",
"429 234 CURVE SMOOTH",
"212 257 OFFCURVE",
"117 281 OFFCURVE",
"117 375 CURVE SMOOTH",
"117 466 OFFCURVE",
"217 517 OFFCURVE",
"374 517 CURVE",
"573 517 OFFCURVE",
"686 440 OFFCURVE",
"738 375 CURVE",
"717 375 LINE",
"717 490 LINE",
"742 490 LINE",
"742 338 LINE",
"665 431 OFFCURVE",
"549 494 OFFCURVE",
"372 494 CURVE"
);
}
);
};
layerId = "B29C398E-974A-40D0-A0A0-00935056D4B4";
name = "Light Extended";
paths = (
{
closed = 1;
nodes = (
"673 -10 OFFCURVE",
"777 34 OFFCURVE",
"777 124 CURVE SMOOTH",
"777 218 OFFCURVE",
"679 249 OFFCURVE",
"440 268 CURVE SMOOTH",
"217 286 OFFCURVE",
"142 316 OFFCURVE",
"142 386 CURVE SMOOTH",
"142 468 OFFCURVE",
"233 507 OFFCURVE",
"372 507 CURVE SMOOTH",
"539 507 OFFCURVE",
"650 444 OFFCURVE",
"736 344 CURVE",
"742 346 LINE",
"742 520 LINE",
"719 520 LINE",
"719 378 LINE",
"733 378 LINE",
"666 453 OFFCURVE",
"558 530 OFFCURVE",
"374 530 CURVE SMOOTH",
"212 530 OFFCURVE",
"117 479 OFFCURVE",
"117 386 CURVE SMOOTH",
"117 305 OFFCURVE",
"194 261 OFFCURVE",
"439 244 CURVE SMOOTH",
"665 228 OFFCURVE",
"753 201 OFFCURVE",
"753 124 CURVE SMOOTH",
"753 47 OFFCURVE",
"657 13 OFFCURVE",
"533 13 CURVE SMOOTH",
"384 13 OFFCURVE",
"211 73 OFFCURVE",
"121 177 CURVE",
"115 175 LINE",
"115 0 LINE",
"138 0 LINE",
"138 140 LINE",
"123 140 LINE",
"196 65 OFFCURVE",
"360 -10 OFFCURVE",
"532 -10 CURVE SMOOTH"
);
}
);
width = 867;
},
{
anchors = (
{
name = bottom;
position = "{269, -10}";
},
{
name = top;
position = "{249, 530}";
}
);
background = {
paths = (
{
closed = 0;
nodes = (
"312 13 LINE",
"228 13 OFFCURVE",
"120 64 OFFCURVE",
"34 178 CURVE",
"34 0 LINE",
"57 0 LINE",
"57 140 LINE",
"42 140 LINE",
"105 55 OFFCURVE",
"204 -10 OFFCURVE",
"312 -10 CURVE"
);
}
);
};
layerId = "543F9737-16F7-428D-9F96-2EBD9FC8D3B6";
name = Light;
paths = (
{
closed = 1;
nodes = (
"380 -10 OFFCURVE",
"451 42 OFFCURVE",
"451 114 CURVE SMOOTH",
"451 193 OFFCURVE",
"392 234 OFFCURVE",
"259 269 CURVE SMOOTH",
"146 299 OFFCURVE",
"91 343 OFFCURVE",
"91 408 CURVE SMOOTH",
"91 470 OFFCURVE",
"145 507 OFFCURVE",
"216 507 CURVE SMOOTH",
"306 507 OFFCURVE",
"366 462 OFFCURVE",
"420 361 CURVE",
"426 362 LINE",
"426 520 LINE",
"403 520 LINE",
"403 389 LINE",
"420 388 LINE",
"380 480 OFFCURVE",
"308 530 OFFCURVE",
"216 530 CURVE SMOOTH",
"129 530 OFFCURVE",
"66 481 OFFCURVE",
"66 406 CURVE SMOOTH",
"66 333 OFFCURVE",
"123 277 OFFCURVE",
"258 244 CURVE SMOOTH",
"379 214 OFFCURVE",
"427 176 OFFCURVE",
"427 114 CURVE SMOOTH",
"427 53 OFFCURVE",
"364 13 OFFCURVE",
"287 13 CURVE SMOOTH",
"195 13 OFFCURVE",
"120 65 OFFCURVE",
"66 159 CURVE",
"60 158 LINE",
"60 0 LINE",
"83 0 LINE",
"83 131 LINE",
"66 132 LINE",
"109 45 OFFCURVE",
"193 -10 OFFCURVE",
"287 -10 CURVE SMOOTH"
);
}
);
width = 511;
},
{
anchors = (
{
name = bottom;
position = "{302, -10}";
},
{
name = top;
position = "{282, 530}";
}
);
layerId = "EB38A4D2-CD30-49BA-8E45-1F04A566FFE8";
name = Bold;
paths = (
{
closed = 1;
nodes = (
"447 -10 OFFCURVE",
"524 45 OFFCURVE",
"524 138 CURVE SMOOTH",
"524 236 OFFCURVE",
"428 281 OFFCURVE",
"313 314 CURVE SMOOTH",
"217 341 OFFCURVE",
"184 358 OFFCURVE",
"184 387 CURVE SMOOTH",
"184 417 OFFCURVE",
"218 434 OFFCURVE",
"265 434 CURVE SMOOTH",
"324 434 OFFCURVE",
"391 398 OFFCURVE",
"425 332 CURVE",
"497 336 LINE",
"497 520 LINE",
"388 520 LINE",
"388 405 LINE",
"447 395 LINE",
"398 489 OFFCURVE",
"324 530 OFFCURVE",
"234 530 CURVE SMOOTH",
"143 530 OFFCURVE",
"56 473 OFFCURVE",
"56 381 CURVE SMOOTH",
"56 299 OFFCURVE",
"110 246 OFFCURVE",
"230 212 CURVE SMOOTH",
"352 178 OFFCURVE",
"396 155 OFFCURVE",
"396 123 CURVE SMOOTH",
"396 97 OFFCURVE",
"372 84 OFFCURVE",
"336 84 CURVE SMOOTH",
"276 84 OFFCURVE",
"186 128 OFFCURVE",
"131 194 CURVE",
"55 190 LINE",
"55 1 LINE",
"165 1 LINE",
"165 114 LINE",
"98 121 LINE",
"169 50 OFFCURVE",
"247 -10 OFFCURVE",
"344 -10 CURVE SMOOTH"
);
}
);
width = 549;
},
{
anchors = (
{
name = bottom;
position = "{463, -10}";
},
{
name = top;
position = "{443, 530}";
}
);
layerId = "C70E3B11-AF58-44B6-92D7-58C9185F522D";
name = "Bold Extended";
paths = (
{
closed = 1;
nodes = (
"683 -10 OFFCURVE",
"795 35 OFFCURVE",
"795 143 CURVE SMOOTH",
"795 256 OFFCURVE",
"645 293 OFFCURVE",
"464 311 CURVE SMOOTH",
"263 331 OFFCURVE",
"225 340 OFFCURVE",
"225 377 CURVE SMOOTH",
"225 417 OFFCURVE",
"299 434 OFFCURVE",
"396 434 CURVE SMOOTH",
"539 434 OFFCURVE",
"634 380 OFFCURVE",
"686 315 CURVE",
"758 320 LINE",
"758 520 LINE",
"649 520 LINE",
"649 394 LINE",
"705 385 LINE",
"647 462 OFFCURVE",
"556 530 OFFCURVE",
"367 530 CURVE SMOOTH",
"219 530 OFFCURVE",
"97 473 OFFCURVE",
"97 363 CURVE SMOOTH",
"97 276 OFFCURVE",
"185 228 OFFCURVE",
"371 212 CURVE SMOOTH",
"598 192 OFFCURVE",
"667 175 OFFCURVE",
"667 128 CURVE SMOOTH",
"667 89 OFFCURVE",
"608 84 OFFCURVE",
"537 84 CURVE SMOOTH",
"420 84 OFFCURVE",
"253 138 OFFCURVE",
"171 212 CURVE",
"95 207 LINE",
"95 1 LINE",
"205 1 LINE",
"205 123 LINE",
"140 129 LINE",
"231 70 OFFCURVE",
"369 -10 OFFCURVE",
"544 -10 CURVE SMOOTH"
);
}
);
width = 855;
}
);
leftKerningGroup = S;
rightKerningGroup = S;
unicode = 0053;
},
{
glyphname = Germandbls;
lastChange = "2015-11-21 17:27:31 +0000";
layers = (
{
layerId = "B29C398E-974A-40D0-A0A0-00935056D4B4";
name = "Light Extended";
paths = (
{
closed = 1;
nodes = (
"391 0 LINE",
"391 130 LINE",
"376 130 LINE",
"449 55 OFFCURVE",
"568 -20 OFFCURVE",
"705 -20 CURVE SMOOTH",
"806 -20 OFFCURVE",
"885 24 OFFCURVE",
"885 98 CURVE SMOOTH",
"885 182 OFFCURVE",
"789 234 OFFCURVE",
"535 253 CURVE",
"853 499 LINE",
"840 518 LINE",
"482 238 LINE",
"797 215 OFFCURVE",
"861 160 OFFCURVE",
"861 98 CURVE SMOOTH",
"861 37 OFFCURVE",
"790 3 OFFCURVE",
"706 3 CURVE SMOOTH",
"592 3 OFFCURVE",
"470 61 OFFCURVE",
"374 165 CURVE",
"368 163 LINE",
"368 0 LINE"
);
},
{
closed = 1;
nodes = (
"267 532 OFFCURVE",
"182 443 OFFCURVE",
"182 300 CURVE SMOOTH",
"182 23 LINE",
"0 23 LINE",
"0 0 LINE",
"207 0 LINE",
"207 302 LINE SMOOTH",
"207 429 OFFCURVE",
"284 509 OFFCURVE",
"420 509 CURVE SMOOTH",
"541 509 OFFCURVE",
"628 441 OFFCURVE",
"693 385 CURVE",
"712 400 LINE",
"647 458 OFFCURVE",
"545 532 OFFCURVE",
"422 532 CURVE SMOOTH"
);
}
);
width = 935;
},
{
background = {
paths = (
{
closed = 1;
nodes = (
"495 238 LINE",
"810 215 OFFCURVE",
"874 160 OFFCURVE",
"874 98 CURVE SMOOTH",
"874 37 OFFCURVE",
"803 3 OFFCURVE",
"719 3 CURVE SMOOTH",
"605 3 OFFCURVE",
"477 64 OFFCURVE",
"381 168 CURVE",
"381 0 LINE",
"404 0 LINE",
"404 130 LINE",
"389 130 LINE",
"462 55 OFFCURVE",
"581 -20 OFFCURVE",
"718 -20 CURVE SMOOTH",
"819 -20 OFFCURVE",
"898 24 OFFCURVE",
"898 98 CURVE SMOOTH",
"898 182 OFFCURVE",
"802 234 OFFCURVE",
"548 253 CURVE",
"866 499 LINE",
"853 518 LINE"
);
},
{
closed = 1;
nodes = (
"212 0 LINE",
"212 23 LINE",
"13 23 LINE",
"13 0 LINE"
);
},
{
closed = 1;
nodes = (
"725 400 LINE",
"660 458 OFFCURVE",
"568 518 OFFCURVE",
"445 518 CURVE SMOOTH",
"290 518 OFFCURVE",
"195 424 OFFCURVE",
"195 286 CURVE SMOOTH",
"195 0 LINE",
"220 0 LINE",
"220 288 LINE SMOOTH",
"220 410 OFFCURVE",
"307 495 OFFCURVE",
"443 495 CURVE SMOOTH",
"564 495 OFFCURVE",
"641 441 OFFCURVE",
"706 385 CURVE"
);
}
);
};
layerId = "543F9737-16F7-428D-9F96-2EBD9FC8D3B6";
name = Light;
paths = (
{
closed = 1;
nodes = (
"250 0 LINE",
"250 111 LINE",
"233 122 LINE",
"276 38 OFFCURVE",
"355 -10 OFFCURVE",
"434 -10 CURVE SMOOTH",
"514 -10 OFFCURVE",
"578 39 OFFCURVE",
"578 109 CURVE SMOOTH",
"578 183 OFFCURVE",
"515 232 OFFCURVE",
"359 262 CURVE",
"549 513 LINE",
"532 525 LINE",
"323 248 LINE",
"504 215 OFFCURVE",
"554 166 OFFCURVE",
"554 109 CURVE SMOOTH",
"554 52 OFFCURVE",
"498 13 OFFCURVE",
"434 13 CURVE SMOOTH",
"357 13 OFFCURVE",
"287 61 OFFCURVE",
"233 149 CURVE",
"227 148 LINE",
"227 0 LINE"
);
},
{
closed = 1;
nodes = (
"177 532 OFFCURVE",
"113 466 OFFCURVE",
"113 353 CURVE SMOOTH",
"113 23 LINE",
"0 23 LINE",
"0 0 LINE",
"138 0 LINE",
"138 355 LINE SMOOTH",
"138 457 OFFCURVE",
"196 509 OFFCURVE",
"273 509 CURVE SMOOTH",
"336 509 OFFCURVE",
"401 478 OFFCURVE",
"468 414 CURVE",
"484 432 LINE",
"415 498 OFFCURVE",
"346 532 OFFCURVE",
"273 532 CURVE SMOOTH"
);
}
);
width = 608;
},
{
layerId = "EB38A4D2-CD30-49BA-8E45-1F04A566FFE8";
name = Bold;
paths = (
{
closed = 1;
nodes = (
"371 0 LINE",
"371 118 LINE",
"316 123 LINE",
"379 27 OFFCURVE",
"423 -10 OFFCURVE",
"503 -10 CURVE SMOOTH",
"591 -10 OFFCURVE",
"674 50 OFFCURVE",
"674 146 CURVE SMOOTH",
"674 237 OFFCURVE",
"605 296 OFFCURVE",
"543 345 CURVE",
"659 492 LINE",
"580 557 LINE",
"381 297 LINE",
"528 228 OFFCURVE",
"546 178 OFFCURVE",
"546 146 CURVE SMOOTH",
"546 111 OFFCURVE",
"518 84 OFFCURVE",
"479 84 CURVE SMOOTH",
"436 84 OFFCURVE",
"381 117 OFFCURVE",
"337 197 CURVE",
"261 192 LINE",
"261 0 LINE"
);
},
{
closed = 1;
nodes = (
"170 536 OFFCURVE",
"82 467 OFFCURVE",
"82 318 CURVE SMOOTH",
"82 96 LINE",
"6 96 LINE",
"6 0 LINE",
"203 0 LINE",
"203 320 LINE SMOOTH",
"203 402 OFFCURVE",
"247 434 OFFCURVE",
"310 434 CURVE SMOOTH",
"381 434 OFFCURVE",
"439 395 OFFCURVE",
"499 341 CURVE",
"564 414 LINE",
"471 496 OFFCURVE",
"392 536 OFFCURVE",
"306 536 CURVE SMOOTH"
);
}
);
width = 698;
},
{
layerId = "C70E3B11-AF58-44B6-92D7-58C9185F522D";
name = "Bold Extended";
paths = (
{
closed = 1;
nodes = (
"512 0 LINE",
"512 137 LINE",
"459 131 LINE",
"552 44 OFFCURVE",
"636 -20 OFFCURVE",
"774 -20 CURVE SMOOTH",
"883 -20 OFFCURVE",
"981 35 OFFCURVE",
"981 135 CURVE SMOOTH",
"981 234 OFFCURVE",
"883 294 OFFCURVE",
"757 325 CURVE",
"952 476 LINE",
"888 550 LINE",
"540 287 LINE",
"801 237 OFFCURVE",
"853 187 OFFCURVE",
"853 143 CURVE SMOOTH",
"853 102 OFFCURVE",
"816 74 OFFCURVE",
"757 74 CURVE SMOOTH",
"677 74 OFFCURVE",
"564 117 OFFCURVE",
"478 213 CURVE",
"402 207 LINE",
"402 0 LINE"
);
},
{
closed = 1;
nodes = (
"260 536 OFFCURVE",
"151 444 OFFCURVE",
"151 265 CURVE SMOOTH",
"151 96 LINE",
"6 96 LINE",
"6 0 LINE",
"272 0 LINE",
"272 267 LINE SMOOTH",
"272 374 OFFCURVE",
"335 434 OFFCURVE",
"437 434 CURVE SMOOTH",
"566 434 OFFCURVE",
"666 358 OFFCURVE",
"724 312 CURVE",
"792 382 LINE",
"703 456 OFFCURVE",
"591 536 OFFCURVE",
"425 536 CURVE SMOOTH"
);
}
);
width = 1025;
}
);
leftKerningGroup = Germandbls;
rightKerningGroup = Germandbls;
unicode = 1E9E;
},
{
glyphname = T;
lastChange = "2015-11-25 15:54:22 +0000";
layers = (
{
anchors = (
{
name = bottom;
position = "{461, 0}";
},
{
name = center;
position = "{461, 245}";
},
{
name = top;
position = "{461, 520}";
}
);
layerId = "B29C398E-974A-40D0-A0A0-00935056D4B4";
name = "Light Extended";
paths = (
{
closed = 1;
nodes = (
"115 337 LINE",
"115 497 LINE",
"806 497 LINE",
"806 337 LINE",
"831 337 LINE",
"831 520 LINE",
"90 520 LINE",
"90 337 LINE"
);
},
{
closed = 1;
nodes = (
"665 0 LINE",
"665 23 LINE",
"256 23 LINE",
"256 0 LINE"
);
},
{
closed = 1;
nodes = (
"473 13 LINE",
"473 507 LINE",
"448 507 LINE",
"448 13 LINE"
);
}
);
width = 921;
},
{
anchors = (
{
name = bottom;
position = "{285, 0}";
},
{
name = center;
position = "{285, 245}";
},
{
name = top;
position = "{285, 490}";
}
);
layerId = "543F9737-16F7-428D-9F96-2EBD9FC8D3B6";
name = Light;
paths = (
{
closed = 1;
nodes = (
"65 384 LINE",
"65 497 LINE",
"514 497 LINE",
"514 384 LINE",
"539 384 LINE",
"539 520 LINE",
"40 520 LINE",
"40 384 LINE"
);
},
{
closed = 1;
nodes = (
"420 0 LINE",
"420 23 LINE",
"159 23 LINE",
"159 0 LINE"
);
},
{
closed = 1;
nodes = (
"302 13 LINE",
"302 507 LINE",
"277 507 LINE",
"277 13 LINE"
);
}
);
width = 579;
},
{
anchors = (
{
name = bottom;
position = "{298, 0}";
},
{
name = center;
position = "{298, 245}";
},
{
name = top;
position = "{298, 527}";
}
);
layerId = "EB38A4D2-CD30-49BA-8E45-1F04A566FFE8";
name = Bold;
paths = (
{
closed = 1;
nodes = (
"128 320 LINE",
"128 424 LINE",
"470 424 LINE",
"470 320 LINE",
"578 320 LINE",
"578 520 LINE",
"20 520 LINE",
"20 320 LINE"
);
},
{
closed = 1;
nodes = (
"443 0 LINE",
"443 96 LINE",
"154 96 LINE",
"154 0 LINE"
);
},
{
closed = 1;
nodes = (
"360 62 LINE",
"360 467 LINE",
"238 467 LINE",
"238 62 LINE"
);
}
);
width = 598;
},
{
anchors = (
{
name = bottom;
position = "{452, 0}";
},
{
name = center;
position = "{452, 245}";
},
{
name = top;
position = "{452, 557}";
}
);
layerId = "C70E3B11-AF58-44B6-92D7-58C9185F522D";
name = "Bold Extended";
paths = (
{
closed = 1;
nodes = (
"156 310 LINE",
"156 424 LINE",
"740 424 LINE",
"740 310 LINE",
"848 310 LINE",
"848 520 LINE",
"48 520 LINE",
"48 310 LINE"
);
},
{
closed = 1;
nodes = (
"666 0 LINE",
"666 96 LINE",
"229 96 LINE",
"229 0 LINE"
);
},
{
closed = 1;
nodes = (
"509 62 LINE",
"509 467 LINE",
"387 467 LINE",
"387 62 LINE"
);
}
);
width = 896;
}
);
leftKerningGroup = T;
rightKerningGroup = T;
unicode = 0054;
},
{
glyphname = U;
lastChange = "2015-11-25 16:18:51 +0000";
layers = (
{
anchors = (
{
name = bottom;
position = "{501, -10}";
},
{
name = ogonek;
position = "{501, -10}";
},
{
name = top;
position = "{501, 510}";
},
{
name = topright;
position = "{992, 490}";
}
);
background = {
paths = (
{
closed = 1;
nodes = (
"835 160 LINE SMOOTH",
"835 133 OFFCURVE",
"827 108 OFFCURVE",
"810 85 CURVE SMOOTH",
"786 51 OFFCURVE",
"745 22 OFFCURVE",
"693 1 CURVE SMOOTH",
"642 -19 OFFCURVE",
"581 -31 OFFCURVE",
"518 -31 CURVE SMOOTH",
"440 -31 OFFCURVE",
"362 -10 OFFCURVE",
"305 25 CURVE SMOOTH",
"276 41 OFFCURVE",
"252 62 OFFCURVE",
"236 85 CURVE SMOOTH",
"220 108 OFFCURVE",
"212 133 OFFCURVE",
"211 160 CURVE",
"211 477 LINE",
"186 477 LINE",
"186 160 LINE SMOOTH",
"186 127 OFFCURVE",
"196 97 OFFCURVE",
"215 70 CURVE SMOOTH",
"243 31 OFFCURVE",
"288 -1 OFFCURVE",
"341 -22 CURVE SMOOTH",
"395 -44 OFFCURVE",
"456 -57 OFFCURVE",
"518 -57 CURVE SMOOTH",
"606 -57 OFFCURVE",
"690 -35 OFFCURVE",
"754 2 CURVE SMOOTH",
"786 21 OFFCURVE",
"813 43 OFFCURVE",
"831 70 CURVE SMOOTH",
"851 97 OFFCURVE",
"861 127 OFFCURVE",
"861 160 CURVE SMOOTH",
"861 477 LINE",
"835 477 LINE"
);
},
{
closed = 1;
nodes = (
"409 464 LINE",
"409 490 LINE",
"-26 490 LINE",
"-26 464 LINE"
);
},
{
closed = 1;
nodes = (
"1071 464 LINE",
"1071 490 LINE",
"636 490 LINE",
"636 464 LINE"
);
}
);
};
layerId = "B29C398E-974A-40D0-A0A0-00935056D4B4";
name = "Light Extended";
paths = (
{
closed = 1;
nodes = (
"694 -10 OFFCURVE",
"819 79 OFFCURVE",
"819 254 CURVE SMOOTH",
"819 507 LINE",
"797 507 LINE",
"794 242 LINE SMOOTH",
"792 89 OFFCURVE",
"675 13 OFFCURVE",
"501 13 CURVE",
"326 13 OFFCURVE",
"209 89 OFFCURVE",
"207 243 CURVE SMOOTH",
"204 507 LINE",
"182 507 LINE",
"182 254 LINE SMOOTH",
"182 79 OFFCURVE",
"308 -10 OFFCURVE",
"501 -10 CURVE"
);
},
{
closed = 1;
nodes = (
"386 497 LINE",
"386 520 LINE",
"0 520 LINE",
"0 497 LINE"
);
},
{
closed = 1;
nodes = (
"1001 497 LINE",
"1001 520 LINE",
"615 520 LINE",
"615 497 LINE"
);
}
);
width = 1001;
},
{
anchors = (
{
name = bottom;
position = "{337, -10}";
},
{
name = ogonek;
position = "{342, -10}";
},
{
name = top;
position = "{342, 510}";
},
{
name = topright;
position = "{658, 490}";
}
);
background = {
paths = (
{
closed = 1;
nodes = (
"533 242 LINE",
"533 265 LINE",
"137 265 LINE",
"137 242 LINE"
);
},
{
closed = 1;
nodes = (
"246 0 LINE",
"246 23 LINE",
"5 23 LINE",
"5 0 LINE"
);
},
{
closed = 1;
nodes = (
"142 13 LINE",
"142 509 LINE",
"118 509 LINE",
"118 13 LINE"
);
},
{
closed = 1;
nodes = (
"246 497 LINE",
"246 520 LINE",
"5 520 LINE",
"5 497 LINE"
);
},
{
closed = 1;
nodes = (
"664 0 LINE",
"664 23 LINE",
"423 23 LINE",
"423 0 LINE"
);
},
{
closed = 1;
nodes = (
"552 13 LINE",
"552 509 LINE",
"527 509 LINE",
"527 13 LINE"
);
},
{
closed = 1;
nodes = (
"664 497 LINE",
"664 520 LINE",
"423 520 LINE",
"423 497 LINE"
);
}
);
};
layerId = "543F9737-16F7-428D-9F96-2EBD9FC8D3B6";
name = Light;
paths = (
{
closed = 1;
nodes = (
"475 -10 OFFCURVE",
"555 79 OFFCURVE",
"555 194 CURVE SMOOTH",
"555 507 LINE",
"529 507 LINE",
"529 189 LINE SMOOTH",
"529 89 OFFCURVE",
"453 13 OFFCURVE",
"337 13 CURVE SMOOTH",
"220 13 OFFCURVE",
"144 89 OFFCURVE",
"144 190 CURVE SMOOTH",
"144 507 LINE",
"118 507 LINE",
"118 194 LINE SMOOTH",
"118 79 OFFCURVE",
"199 -10 OFFCURVE",
"337 -10 CURVE SMOOTH"
);
},
{
closed = 1;
nodes = (
"257 497 LINE",
"257 520 LINE",
"5 520 LINE",
"5 497 LINE"
);
},
{
closed = 1;
nodes = (
"668 497 LINE",
"668 520 LINE",
"416 520 LINE",
"416 497 LINE"
);
}
);
width = 673;
},
{
anchors = (
{
name = bottom;
position = "{336, -10}";
},
{
name = ogonek;
position = "{356, -9}";
},
{
name = top;
position = "{337, 510}";
},
{
name = topright;
position = "{657, 490}";
}
);
layerId = "EB38A4D2-CD30-49BA-8E45-1F04A566FFE8";
name = Bold;
paths = (
{
closed = 1;
nodes = (
"475 -10 OFFCURVE",
"582 79 OFFCURVE",
"582 206 CURVE SMOOTH",
"582 468 LINE",
"460 468 LINE",
"462 215 LINE SMOOTH",
"462 140 OFFCURVE",
"406 91 OFFCURVE",
"336 91 CURVE SMOOTH",
"265 91 OFFCURVE",
"213 139 OFFCURVE",
"213 213 CURVE SMOOTH",
"214 468 LINE",
"90 468 LINE",
"90 206 LINE SMOOTH",
"90 79 OFFCURVE",
"191 -10 OFFCURVE",
"336 -10 CURVE SMOOTH"
);
},
{
closed = 1;
nodes = (
"294 424 LINE",
"294 520 LINE",
"5 520 LINE",
"5 424 LINE"
);
},
{
closed = 1;
nodes = (
"666 424 LINE",
"666 520 LINE",
"380 520 LINE",
"380 424 LINE"
);
}
);
width = 671;
},
{
anchors = (
{
name = bottom;
position = "{515, -10}";
},
{
name = ogonek;
position = "{561, -8}";
},
{
name = top;
position = "{511, 510}";
},
{
name = topright;
position = "{1006, 490}";
}
);
layerId = "C70E3B11-AF58-44B6-92D7-58C9185F522D";
name = "Bold Extended";
paths = (
{
closed = 1;
nodes = (
"709 -10 OFFCURVE",
"861 79 OFFCURVE",
"861 266 CURVE SMOOTH",
"861 468 LINE",
"743 468 LINE",
"742 268 LINE SMOOTH",
"740 140 OFFCURVE",
"643 91 OFFCURVE",
"515 91 CURVE SMOOTH",
"386 91 OFFCURVE",
"293 139 OFFCURVE",
"291 266 CURVE SMOOTH",
"289 468 LINE",
"169 468 LINE",
"169 266 LINE SMOOTH",
"169 79 OFFCURVE",
"315 -10 OFFCURVE",
"515 -10 CURVE SMOOTH"
);
},
{
closed = 1;
nodes = (
"438 424 LINE",
"438 520 LINE",
"15 520 LINE",
"15 424 LINE"
);
},
{
closed = 1;
nodes = (
"1014 424 LINE",
"1014 520 LINE",
"594 520 LINE",
"594 424 LINE"
);
}
);
width = 1029;
}
);
leftKerningGroup = U;
rightKerningGroup = U;
unicode = 0055;
},
{
color = 0;
glyphname = V;
lastChange = "2015-11-25 02:16:44 +0000";
layers = (
{
anchors = (
{
name = bottom;
position = "{469, -10}";
},
{
name = top;
position = "{469, 490}";
}
);
layerId = "B29C398E-974A-40D0-A0A0-00935056D4B4";
name = "Light Extended";
paths = (
{
closed = 1;
nodes = (
"-5 520 LINE",
"-5 497 LINE",
"332 497 LINE",
"332 520 LINE"
);
},
{
closed = 1;
nodes = (
"604 520 LINE",
"604 497 LINE",
"941 497 LINE",
"941 520 LINE"
);
},
{
closed = 1;
nodes = (
"471 -10 LINE",
"787 507 LINE",
"758 507 LINE",
"469 28 LINE",
"181 507 LINE",
"150 507 LINE",
"465 -10 LINE"
);
}
);
width = 936;
},
{
anchors = (
{
name = bottom;
position = "{323, 0}";
},
{
name = top;
position = "{323, 490}";
}
);
layerId = "543F9737-16F7-428D-9F96-2EBD9FC8D3B6";
name = Light;
paths = (
{
closed = 1;
nodes = (
"0 520 LINE",
"0 497 LINE",
"227 497 LINE",
"227 520 LINE"
);
},
{
closed = 1;
nodes = (
"409 520 LINE",
"409 497 LINE",
"646 497 LINE",
"646 520 LINE"
);
},
{
closed = 1;
nodes = (
"327 -10 LINE",
"552 507 LINE",
"523 507 LINE",
"324 40 LINE",
"124 507 LINE",
"95 507 LINE",
"319 -10 LINE"
);
}
);
width = 646;
},
{
anchors = (
{
name = bottom;
position = "{314, 0}";
},
{
name = top;
position = "{314, 490}";
}
);
layerId = "EB38A4D2-CD30-49BA-8E45-1F04A566FFE8";
name = Bold;
paths = (
{
closed = 1;
nodes = (
"0 520 LINE",
"0 424 LINE",
"273 424 LINE",
"273 520 LINE"
);
},
{
closed = 1;
nodes = (
"358 520 LINE",
"358 424 LINE",
"629 424 LINE",
"629 520 LINE"
);
},
{
closed = 1;
nodes = (
"346 -10 LINE",
"590 507 LINE",
"470 507 LINE",
"322 152 LINE",
"169 507 LINE",
"39 507 LINE",
"282 -10 LINE"
);
}
);
width = 629;
},
{
anchors = (
{
name = bottom;
position = "{470, -10}";
},
{
name = top;
position = "{470, 490}";
}
);
layerId = "C70E3B11-AF58-44B6-92D7-58C9185F522D";
name = "Bold Extended";
paths = (
{
closed = 1;
nodes = (
"0 520 LINE",
"0 424 LINE",
"366 424 LINE",
"366 520 LINE"
);
},
{
closed = 1;
nodes = (
"585 520 LINE",
"585 424 LINE",
"939 424 LINE",
"939 520 LINE"
);
},
{
closed = 1;
nodes = (
"500 -10 LINE",
"860 507 LINE",
"738 507 LINE",
"483 120 LINE",
"225 507 LINE",
"71 507 LINE",
"433 -10 LINE"
);
}
);
width = 939;
}
);
leftKerningGroup = V;
rightKerningGroup = V;
unicode = 0056;
},
{
color = 0;
glyphname = W;
lastChange = "2015-11-25 16:19:10 +0000";
layers = (
{
anchors = (
{
name = bottom;
position = "{628, 0}";
},
{
name = top;
position = "{635, 520}";
}
);
background = {
paths = (
{
closed = 1;
nodes = (
"757 477 LINE",
"449 13 LINE",
"181 477 LINE",
"152 477 LINE",
"446 -31 LINE",
"784 477 LINE"
);
},
{
closed = 1;
nodes = (
"-5 490 LINE",
"-5 468 LINE",
"318 468 LINE",
"318 490 LINE"
);
},
{
closed = 1;
nodes = (
"392 490 LINE",
"392 468 LINE",
"862 468 LINE",
"862 490 LINE"
);
},
{
closed = 1;
nodes = (
"1079 477 LINE",
"810 13 LINE",
"502 477 LINE",
"474 477 LINE",
"810 -31 LINE",
"1104 477 LINE"
);
},
{
closed = 1;
nodes = (
"938 490 LINE",
"938 468 LINE",
"1261 468 LINE",
"1261 490 LINE"
);
}
);
};
layerId = "B29C398E-974A-40D0-A0A0-00935056D4B4";
name = "Light Extended";
paths = (
{
closed = 1;
nodes = (
"450 -10 LINE",
"784 507 LINE",
"757 507 LINE",
"449 28 LINE",
"181 507 LINE",
"152 507 LINE",
"443 -10 LINE"
);
},
{
closed = 1;
nodes = (
"318 498 LINE",
"318 520 LINE",
"-5 520 LINE",
"-5 498 LINE"
);
},
{
closed = 1;
nodes = (
"813 -10 LINE",
"1104 507 LINE",
"1079 507 LINE",
"810 28 LINE",
"502 507 LINE",
"474 507 LINE",
"806 -10 LINE"
);
},
{
closed = 1;
nodes = (
"862 498 LINE",
"862 520 LINE",
"392 520 LINE",
"392 498 LINE"
);
},
{
closed = 1;
nodes = (
"1261 498 LINE",
"1261 520 LINE",
"938 520 LINE",
"938 498 LINE"
);
}
);
width = 1256;
},
{
anchors = (
{
name = bottom;
position = "{444, 0}";
},
{
name = top;
position = "{444, 520}";
}
);
background = {
anchors = (
{
name = top;
position = "{447, 520}";
}
);
};
layerId = "543F9737-16F7-428D-9F96-2EBD9FC8D3B6";
name = Light;
paths = (
{
closed = 1;
nodes = (
"292 -10 LINE",
"557 507 LINE",
"531 507 LINE",
"292 40 LINE",
"129 507 LINE",
"100 507 LINE",
"284 -10 LINE"
);
},
{
closed = 1;
nodes = (
"232 497 LINE",
"232 520 LINE",
"5 520 LINE",
"5 497 LINE"
);
},
{
closed = 1;
nodes = (
"597 -10 LINE",
"782 507 LINE",
"755 507 LINE",
"592 40 LINE",
"354 507 LINE",
"325 507 LINE",
"589 -10 LINE"
);
},
{
closed = 1;
nodes = (
"616 497 LINE",
"616 520 LINE",
"260 520 LINE",
"260 497 LINE"
);
},
{
closed = 1;
nodes = (
"876 497 LINE",
"876 520 LINE",
"639 520 LINE",
"639 497 LINE"
);
}
);
width = 881;
},
{
anchors = (
{
name = bottom;
position = "{423, 0}";
},
{
name = top;
position = "{434, 520}";
}
);
background = {
paths = (
{
closed = 1;
nodes = (
"300 -10 LINE",
"544 507 LINE",
"430 507 LINE",
"278 154 LINE",
"142 507 LINE",
"10 507 LINE",
"235 -10 LINE"
);
},
{
closed = 1;
nodes = (
"241 424 LINE",
"241 520 LINE",
"-10 520 LINE",
"-10 424 LINE"
);
},
{
closed = 1;
nodes = (
"612 -10 LINE",
"863 507 LINE",
"749 507 LINE",
"590 154 LINE",
"433 508 LINE",
"377 370 LINE",
"548 -10 LINE"
);
},
{
closed = 1;
nodes = (
"579 424 LINE",
"579 520 LINE",
"312 520 LINE",
"312 424 LINE"
);
},
{
closed = 1;
nodes = (
"883 424 LINE",
"883 520 LINE",
"650 520 LINE",
"650 424 LINE"
);
}
);
};
layerId = "EB38A4D2-CD30-49BA-8E45-1F04A566FFE8";
name = Bold;
paths = (
{
closed = 1;
nodes = (
"300 -10 LINE",
"544 507 LINE",
"430 507 LINE",
"278 154 LINE",
"152 507 LINE",
"20 507 LINE",
"235 -10 LINE"
);
},
{
closed = 1;
nodes = (
"251 424 LINE",
"251 520 LINE",
"0 520 LINE",
"0 424 LINE"
);
},
{
closed = 1;
nodes = (
"612 -10 LINE",
"853 507 LINE",
"739 507 LINE",
"590 154 LINE",
"434 507 LINE",
"316 507 LINE",
"548 -10 LINE"
);
},
{
closed = 1;
nodes = (
"579 424 LINE",
"579 520 LINE",
"312 520 LINE",
"312 424 LINE"
);
},
{
closed = 1;
nodes = (
"873 424 LINE",
"873 520 LINE",
"640 520 LINE",
"640 424 LINE"
);
}
);
width = 873;
},
{
anchors = (
{
name = bottom;
position = "{637, 0}";
},
{
name = top;
position = "{642, 520}";
}
);
background = {
paths = (
{
closed = 1;
nodes = (
"453 -10 LINE",
"791 507 LINE",
"676 507 LINE",
"439 127 LINE",
"214 507 LINE",
"72 507 LINE",
"389 -10 LINE"
);
},
{
closed = 1;
nodes = (
"347 425 LINE",
"347 520 LINE",
"0 520 LINE",
"0 425 LINE"
);
},
{
closed = 1;
nodes = (
"873 -10 LINE",
"1205 507 LINE",
"1093 507 LINE",
"862 127 LINE",
"650 459 LINE",
"580 345 LINE",
"810 -10 LINE"
);
},
{
closed = 1;
nodes = (
"825 425 LINE",
"825 520 LINE",
"464 520 LINE",
"464 425 LINE"
);
},
{
closed = 1;
nodes = (
"1288 425 LINE",
"1288 520 LINE",
"928 520 LINE",
"928 425 LINE"
);
}
);
};
layerId = "C70E3B11-AF58-44B6-92D7-58C9185F522D";
name = "Bold Extended";
paths = (
{
closed = 1;
nodes = (
"453 -10 LINE",
"791 507 LINE",
"676 507 LINE",
"439 127 LINE",
"214 507 LINE",
"72 507 LINE",
"389 -10 LINE"
);
},
{
closed = 1;
nodes = (
"347 424 LINE",
"347 520 LINE",
"0 520 LINE",
"0 424 LINE"
);
},
{
closed = 1;
nodes = (
"873 -10 LINE",
"1205 507 LINE",
"1093 507 LINE",
"862 127 LINE",
"621 505 LINE",
"523 434 LINE",
"810 -10 LINE"
);
},
{
closed = 1;
nodes = (
"825 424 LINE",
"825 520 LINE",
"464 520 LINE",
"464 424 LINE"
);
},
{
closed = 1;
nodes = (
"1288 424 LINE",
"1288 520 LINE",
"928 520 LINE",
"928 424 LINE"
);
}
);
width = 1288;
},
{
anchors = (
{
name = bottom;
position = "{444, 0}";
},
{
name = top;
position = "{444, 520}";
}
);
associatedMasterId = "543F9737-16F7-428D-9F96-2EBD9FC8D3B6";
background = {
paths = (
{
closed = 1;
nodes = (
"292 -10 LINE",
"557 507 LINE",
"531 507 LINE",
"292 40 LINE",
"129 507 LINE",
"100 507 LINE",
"284 -10 LINE"
);
},
{
closed = 1;
nodes = (
"232 497 LINE",
"232 520 LINE",
"5 520 LINE",
"5 497 LINE"
);
},
{
closed = 1;
nodes = (
"597 -10 LINE",
"782 507 LINE",
"755 507 LINE",
"592 40 LINE",
"354 507 LINE",
"325 507 LINE",
"589 -10 LINE"
);
},
{
closed = 1;
nodes = (
"616 497 LINE",
"616 520 LINE",
"260 520 LINE",
"260 497 LINE"
);
},
{
closed = 1;
nodes = (
"876 497 LINE",
"876 520 LINE",
"639 520 LINE",
"639 497 LINE"
);
}
);
};
layerId = "3856FD84-2D81-4E35-A863-4CC7E6C2238C";
name = "Light [400]";
paths = (
{
closed = 1;
nodes = (
"292 -10 LINE",
"557 507 LINE",
"531 507 LINE",
"292 40 LINE",
"129 507 LINE",
"100 507 LINE",
"284 -10 LINE"
);
},
{
closed = 1;
nodes = (
"232 497 LINE",
"232 520 LINE",
"5 520 LINE",
"5 497 LINE"
);
},
{
closed = 1;
nodes = (
"597 -10 LINE",
"782 507 LINE",
"755 507 LINE",
"592 40 LINE",
"444 330 LINE",
"429 303 LINE",
"589 -10 LINE"
);
},
{
closed = 1;
nodes = (
"616 497 LINE",
"616 520 LINE",
"260 520 LINE",
"260 497 LINE"
);
},
{
closed = 1;
nodes = (
"876 497 LINE",
"876 520 LINE",
"639 520 LINE",
"639 497 LINE"
);
}
);
width = 881;
},
{
anchors = (
{
name = bottom;
position = "{423, 0}";
},
{
name = top;
position = "{423, 520}";
}
);
associatedMasterId = "EB38A4D2-CD30-49BA-8E45-1F04A566FFE8";
layerId = "38145D12-24A6-49A8-A4FC-3BBC9F940F09";
name = "Bold [400]";
paths = (
{
closed = 1;
nodes = (
"300 -10 LINE",
"544 507 LINE",
"430 507 LINE",
"278 154 LINE",
"152 507 LINE",
"20 507 LINE",
"235 -10 LINE"
);
},
{
closed = 1;
nodes = (
"251 424 LINE",
"251 520 LINE",
"0 520 LINE",
"0 424 LINE"
);
},
{
closed = 1;
nodes = (
"612 -10 LINE",
"853 507 LINE",
"739 507 LINE",
"590 154 LINE",
"467 432 LINE",
"411 294 LINE",
"548 -10 LINE"
);
},
{
closed = 1;
nodes = (
"579 424 LINE",
"579 520 LINE",
"312 520 LINE",
"312 424 LINE"
);
},
{
closed = 1;
nodes = (
"873 424 LINE",
"873 520 LINE",
"640 520 LINE",
"640 424 LINE"
);
}
);
width = 873;
},
{
anchors = (
{
name = bottom;
position = "{633, 0}";
},
{
name = top;
position = "{633, 520}";
}
);
associatedMasterId = "B29C398E-974A-40D0-A0A0-00935056D4B4";
background = {
paths = (
{
closed = 1;
nodes = (
"455 -10 LINE",
"789 507 LINE",
"762 507 LINE",
"454 28 LINE",
"186 507 LINE",
"157 507 LINE",
"448 -10 LINE"
);
},
{
closed = 1;
nodes = (
"323 498 LINE",
"323 520 LINE",
"0 520 LINE",
"0 498 LINE"
);
},
{
closed = 1;
nodes = (
"818 -10 LINE",
"1109 507 LINE",
"1084 507 LINE",
"815 28 LINE",
"507 507 LINE",
"479 507 LINE",
"811 -10 LINE"
);
},
{
closed = 1;
nodes = (
"867 498 LINE",
"867 520 LINE",
"397 520 LINE",
"397 498 LINE"
);
},
{
closed = 1;
nodes = (
"1266 498 LINE",
"1266 520 LINE",
"943 520 LINE",
"943 498 LINE"
);
}
);
};
layerId = "5FEE2DDE-3D09-4933-B657-3C7EDC55AC59";
name = "Light Extended [400]";
paths = (
{
closed = 1;
nodes = (
"455 -10 LINE",
"789 507 LINE",
"762 507 LINE",
"454 28 LINE",
"186 507 LINE",
"157 507 LINE",
"448 -10 LINE"
);
},
{
closed = 1;
nodes = (
"323 498 LINE",
"323 520 LINE",
"0 520 LINE",
"0 498 LINE"
);
},
{
closed = 1;
nodes = (
"818 -10 LINE",
"1109 507 LINE",
"1084 507 LINE",
"815 28 LINE",
"636 306 LINE",
"622 284 LINE",
"811 -10 LINE"
);
},
{
closed = 1;
nodes = (
"867 498 LINE",
"867 520 LINE",
"397 520 LINE",
"397 498 LINE"
);
},
{
closed = 1;
nodes = (
"1266 498 LINE",
"1266 520 LINE",
"943 520 LINE",
"943 498 LINE"
);
}
);
width = 1266;
},
{
anchors = (
{
name = bottom;
position = "{627, 0}";
},
{
name = top;
position = "{627, 520}";
}
);
associatedMasterId = "C70E3B11-AF58-44B6-92D7-58C9185F522D";
layerId = "39DC1A47-4532-4B41-9582-3D8BA7AE5E1D";
name = "Bold Extended [400]";
paths = (
{
closed = 1;
nodes = (
"453 -10 LINE",
"791 507 LINE",
"676 507 LINE",
"439 127 LINE",
"214 507 LINE",
"72 507 LINE",
"389 -10 LINE"
);
},
{
closed = 1;
nodes = (
"347 424 LINE",
"347 520 LINE",
"0 520 LINE",
"0 424 LINE"
);
},
{
closed = 1;
nodes = (
"873 -10 LINE",
"1205 507 LINE",
"1093 507 LINE",
"862 127 LINE",
"655 452 LINE",
"600 314 LINE",
"810 -10 LINE"
);
},
{
closed = 1;
nodes = (
"825 424 LINE",
"825 520 LINE",
"464 520 LINE",
"464 424 LINE"
);
},
{
closed = 1;
nodes = (
"1288 424 LINE",
"1288 520 LINE",
"928 520 LINE",
"928 424 LINE"
);
}
);
width = 1288;
visible = 1;
}
);
leftKerningGroup = V;
rightKerningGroup = V;
unicode = 0057;
},
{
color = 0;
glyphname = X;
lastChange = "2015-11-25 02:22:21 +0000";
layers = (
{
anchors = (
{
name = bottom;
position = "{475, 0}";
},
{
name = top;
position = "{475, 490}";
}
);
layerId = "B29C398E-974A-40D0-A0A0-00935056D4B4";
name = "Light Extended";
paths = (
{
closed = 1;
nodes = (
"905 0 LINE",
"905 23 LINE",
"569 23 LINE",
"569 0 LINE"
);
},
{
closed = 1;
nodes = (
"381 0 LINE",
"381 23 LINE",
"45 23 LINE",
"45 0 LINE"
);
},
{
closed = 1;
nodes = (
"759 12 LINE",
"486 261 LINE",
"483 261 LINE",
"214 507 LINE",
"177 507 LINE",
"464 246 LINE",
"467 246 LINE",
"722 12 LINE"
);
},
{
closed = 1;
nodes = (
"228 12 LINE",
"483 246 LINE",
"486 246 LINE",
"773 507 LINE",
"738 507 LINE",
"469 261 LINE",
"466 261 LINE",
"193 12 LINE"
);
},
{
closed = 1;
nodes = (
"382 497 LINE",
"382 520 LINE SMOOTH",
"45 520 LINE",
"45 497 LINE"
);
},
{
closed = 1;
nodes = (
"905 497 LINE",
"905 520 LINE",
"568 520 LINE SMOOTH",
"568 497 LINE"
);
}
);
width = 950;
},
{
anchors = (
{
name = bottom;
position = "{315, 0}";
},
{
name = top;
position = "{315, 490}";
}
);
background = {
anchors = (
{
name = bottom;
position = "{320, 0}";
},
{
name = top;
position = "{320, 490}";
}
);
paths = (
{
closed = 1;
nodes = (
"519 12 LINE",
"129 507 LINE",
"92 507 LINE",
"482 12 LINE"
);
},
{
closed = 1;
nodes = (
"246 0 LINE",
"246 23 LINE",
"10 23 LINE",
"10 0 LINE"
);
},
{
closed = 1;
nodes = (
"615 0 LINE",
"615 23 LINE",
"379 23 LINE",
"379 0 LINE"
);
},
{
closed = 1;
nodes = (
"143 12 LINE",
"320 240 LINE",
"324 240 LINE",
"533 507 LINE",
"498 507 LINE",
"309 263 LINE",
"305 263 LINE",
"108 12 LINE"
);
},
{
closed = 1;
nodes = (
"247 497 LINE",
"247 520 LINE SMOOTH",
"10 520 LINE",
"10 497 LINE"
);
},
{
closed = 1;
nodes = (
"615 497 LINE",
"615 520 LINE",
"378 520 LINE SMOOTH",
"378 497 LINE"
);
}
);
};
layerId = "543F9737-16F7-428D-9F96-2EBD9FC8D3B6";
name = Light;
paths = (
{
closed = 1;
nodes = (
"516 12 LINE",
"321 263 LINE",
"317 263 LINE",
"126 507 LINE",
"95 507 LINE",
"304 240 LINE",
"308 240 LINE",
"485 12 LINE"
);
},
{
closed = 1;
nodes = (
"246 0 LINE",
"246 23 LINE",
"138 23 LINE",
"128 23 LINE",
"10 23 LINE",
"10 0 LINE"
);
},
{
closed = 1;
nodes = (
"615 0 LINE",
"615 23 LINE",
"499 23 LINE",
"486 23 LINE",
"379 23 LINE",
"379 0 LINE"
);
},
{
closed = 1;
nodes = (
"139 12 LINE",
"318 239 LINE",
"322 245 LINE",
"529 507 LINE",
"502 507 LINE",
"310 264 LINE",
"306 258 LINE",
"112 12 LINE"
);
},
{
closed = 1;
nodes = (
"111 497 LINE",
"121 497 LINE",
"247 497 LINE",
"247 520 LINE SMOOTH",
"10 520 LINE",
"10 497 LINE"
);
},
{
closed = 1;
nodes = (
"501 497 LINE",
"511 497 LINE",
"615 497 LINE",
"615 520 LINE",
"378 520 LINE SMOOTH",
"378 497 LINE"
);
}
);
width = 625;
},
{
anchors = (
{
name = bottom;
position = "{305, 0}";
},
{
name = top;
position = "{305, 490}";
}
);
layerId = "EB38A4D2-CD30-49BA-8E45-1F04A566FFE8";
name = Bold;
paths = (
{
closed = 1;
nodes = (
"565 79 LINE",
"361 292 LINE",
"348 292 LINE",
"207 442 LINE",
"44 442 LINE",
"258 225 LINE",
"272 225 LINE",
"402 79 LINE"
);
},
{
closed = 1;
nodes = (
"258 0 LINE",
"258 86 LINE",
"101 86 LINE",
"101 96 LINE",
"10 96 LINE",
"10 0 LINE"
);
},
{
closed = 1;
nodes = (
"602 0 LINE",
"602 96 LINE",
"511 96 LINE",
"511 86 LINE",
"330 86 LINE",
"330 0 LINE"
);
},
{
closed = 1;
nodes = (
"185 79 LINE",
"326 233 LINE",
"344 232 LINE",
"552 442 LINE",
"423 442 LINE",
"287 299 LINE",
"268 301 LINE",
"55 79 LINE"
);
},
{
closed = 1;
nodes = (
"105 424 LINE",
"105 434 LINE",
"279 434 LINE",
"279 520 LINE",
"10 520 LINE",
"10 424 LINE"
);
},
{
closed = 1;
nodes = (
"602 424 LINE",
"602 520 LINE",
"351 520 LINE",
"351 434 LINE",
"507 434 LINE",
"507 424 LINE"
);
}
);
width = 612;
},
{
anchors = (
{
name = bottom;
position = "{472, 0}";
},
{
name = top;
position = "{472, 490}";
}
);
layerId = "C70E3B11-AF58-44B6-92D7-58C9185F522D";
name = "Bold Extended";
paths = (
{
closed = 1;
nodes = (
"909 0 LINE",
"909 96 LINE",
"530 96 LINE",
"530 0 LINE"
);
},
{
closed = 1;
nodes = (
"401 0 LINE",
"401 96 LINE",
"42 96 LINE",
"42 0 LINE"
);
},
{
closed = 1;
nodes = (
"835 79 LINE",
"535 290 LINE",
"523 290 LINE",
"306 442 LINE",
"119 442 LINE",
"423 231 LINE",
"436 231 LINE",
"653 79 LINE"
);
},
{
closed = 1;
nodes = (
"269 79 LINE",
"497 240 LINE",
"514 233 LINE",
"812 442 LINE",
"672 442 LINE",
"454 296 LINE",
"436 304 LINE",
"128 79 LINE"
);
},
{
closed = 1;
nodes = (
"422 424 LINE",
"422 520 LINE SMOOTH",
"42 520 LINE",
"42 424 LINE"
);
},
{
closed = 1;
nodes = (
"909 424 LINE",
"909 520 LINE",
"549 520 LINE SMOOTH",
"549 424 LINE"
);
}
);
width = 951;
}
);
leftKerningGroup = X;
rightKerningGroup = X;
unicode = 0058;
},
{
color = 0;
glyphname = Y;
lastChange = "2015-11-25 15:13:42 +0000";
layers = (
{
anchors = (
{
name = bottom;
position = "{460, 0}";
},
{
name = top;
position = "{460, 510}";
}
);
background = {
paths = (
{
closed = 1;
nodes = (
"321 18 LINE",
"116 18 LINE",
"116 0 LINE",
"339 0 LINE",
"339 106 LINE",
"321 106 LINE"
);
},
{
closed = 1;
nodes = (
"547 0 LINE",
"547 18 LINE",
"329 18 LINE",
"329 0 LINE"
);
},
{
closed = 1;
nodes = (
"516 350 LINE",
"323 112 LINE",
"337 100 LINE",
"524 332 LINE",
"695 332 LINE",
"695 350 LINE"
);
},
{
closed = 1;
nodes = (
"145 350 LINE",
"-35 350 LINE",
"-35 332 LINE",
"136 332 LINE",
"324 100 LINE",
"338 112 LINE"
);
}
);
};
layerId = "B29C398E-974A-40D0-A0A0-00935056D4B4";
name = "Light Extended";
paths = (
{
closed = 1;
nodes = (
"469 178 LINE",
"764 508 LINE",
"731 508 LINE",
"461 206 LINE",
"194 505 LINE",
"158 505 LINE",
"451 178 LINE"
);
},
{
closed = 1;
nodes = (
"655 0 LINE",
"655 23 LINE",
"266 23 LINE",
"266 0 LINE"
);
},
{
closed = 1;
nodes = (
"473 0 LINE",
"473 204 LINE",
"448 204 LINE",
"448 0 LINE"
);
},
{
closed = 1;
nodes = (
"342 497 LINE",
"342 520 LINE",
"5 520 LINE",
"5 497 LINE"
);
},
{
closed = 1;
nodes = (
"915 497 LINE",
"915 520 LINE",
"579 520 LINE",
"579 497 LINE"
);
}
);
width = 920;
},
{
anchors = (
{
name = bottom;
position = "{311, 0}";
},
{
name = top;
position = "{311, 510}";
}
);
layerId = "543F9737-16F7-428D-9F96-2EBD9FC8D3B6";
name = Light;
paths = (
{
closed = 1;
nodes = (
"319 178 LINE",
"530 510 LINE",
"502 510 LINE",
"311 207 LINE",
"117 511 LINE",
"88 511 LINE",
"301 178 LINE"
);
},
{
closed = 1;
nodes = (
"441 0 LINE",
"441 23 LINE",
"180 23 LINE",
"180 0 LINE"
);
},
{
closed = 1;
nodes = (
"323 0 LINE",
"323 204 LINE",
"298 204 LINE",
"298 0 LINE"
);
},
{
closed = 1;
nodes = (
"232 497 LINE",
"232 520 LINE",
"5 520 LINE",
"5 497 LINE"
);
},
{
closed = 1;
nodes = (
"615 497 LINE",
"615 520 LINE",
"389 520 LINE",
"389 497 LINE"
);
}
);
width = 620;
},
{
anchors = (
{
name = bottom;
position = "{303, 0}";
},
{
name = top;
position = "{302, 510}";
}
);
layerId = "EB38A4D2-CD30-49BA-8E45-1F04A566FFE8";
name = Bold;
paths = (
{
closed = 1;
nodes = (
"332 174 LINE",
"550 449 LINE",
"415 449 LINE",
"309 290 LINE",
"192 450 LINE",
"47 450 LINE",
"270 174 LINE"
);
},
{
closed = 1;
nodes = (
"450 0 LINE",
"450 96 LINE",
"154 96 LINE",
"154 0 LINE"
);
},
{
closed = 1;
nodes = (
"363 50 LINE",
"363 250 LINE",
"241 250 LINE",
"241 50 LINE"
);
},
{
closed = 1;
nodes = (
"259 424 LINE",
"259 520 LINE",
"10 520 LINE",
"10 424 LINE"
);
},
{
closed = 1;
nodes = (
"593 424 LINE",
"593 520 LINE",
"344 520 LINE",
"344 424 LINE"
);
}
);
width = 603;
},
{
anchors = (
{
name = bottom;
position = "{439, 0}";
},
{
name = top;
position = "{439, 510}";
}
);
layerId = "C70E3B11-AF58-44B6-92D7-58C9185F522D";
name = "Bold Extended";
paths = (
{
closed = 1;
nodes = (
"467 174 LINE",
"764 447 LINE",
"639 447 LINE",
"449 269 LINE",
"254 444 LINE",
"97 444 LINE",
"405 174 LINE"
);
},
{
closed = 1;
nodes = (
"649 0 LINE",
"649 96 LINE",
"225 96 LINE",
"225 0 LINE"
);
},
{
closed = 1;
nodes = (
"499 50 LINE",
"499 250 LINE",
"375 250 LINE",
"375 50 LINE"
);
},
{
closed = 1;
nodes = (
"344 424 LINE",
"344 520 LINE",
"10 520 LINE",
"10 424 LINE"
);
},
{
closed = 1;
nodes = (
"863 424 LINE",
"863 520 LINE",
"529 520 LINE",
"529 424 LINE"
);
}
);
width = 873;
}
);
leftKerningGroup = V;
rightKerningGroup = V;
unicode = 0059;
},
{
glyphname = Z;
lastChange = "2015-11-25 15:52:50 +0000";
layers = (
{
anchors = (
{
name = bottom;
position = "{434, 0}";
},
{
name = top;
position = "{434, 520}";
}
);
background = {
paths = (
{
closed = 1;
nodes = (
"763 0 LINE",
"763 183 LINE",
"738 183 LINE",
"738 23 LINE",
"177 23 LINE",
"147 20 LINE",
"147 21 LINE",
"173 31 LINE",
"759 507 LINE",
"759 520 LINE",
"105 520 LINE",
"105 337 LINE",
"130 337 LINE",
"130 497 LINE",
"690 497 LINE",
"720 500 LINE",
"720 499 LINE",
"694 487 LINE",
"108 13 LINE",
"108 0 LINE"
);
}
);
};
layerId = "B29C398E-974A-40D0-A0A0-00935056D4B4";
name = "Light Extended";
paths = (
{
closed = 1;
nodes = (
"763 0 LINE",
"763 183 LINE",
"738 183 LINE",
"738 23 LINE",
"150 23 LINE",
"143 18 LINE",
"144 14 LINE",
"152 16 LINE",
"759 507 LINE",
"759 520 LINE",
"105 520 LINE",
"105 337 LINE",
"130 337 LINE",
"130 497 LINE",
"717 497 LINE",
"722 502 LINE",
"721 504 LINE",
"715 502 LINE",
"108 13 LINE",
"108 0 LINE"
);
}
);
width = 863;
},
{
anchors = (
{
name = bottom;
position = "{277, 0}";
},
{
name = top;
position = "{277, 520}";
}
);
layerId = "543F9737-16F7-428D-9F96-2EBD9FC8D3B6";
name = Light;
paths = (
{
closed = 1;
nodes = (
"493 0 LINE",
"493 136 LINE",
"468 136 LINE",
"468 23 LINE",
"97 23 LINE",
"77 20 LINE",
"77 21 LINE",
"97 32 LINE",
"489 507 LINE",
"489 520 LINE",
"45 520 LINE",
"45 384 LINE",
"70 384 LINE",
"70 497 LINE",
"440 497 LINE",
"460 500 LINE",
"460 499 LINE",
"440 488 LINE",
"48 13 LINE",
"48 0 LINE"
);
}
);
width = 538;
},
{
anchors = (
{
name = bottom;
position = "{309, 0}";
},
{
name = top;
position = "{309, 520}";
}
);
layerId = "EB38A4D2-CD30-49BA-8E45-1F04A566FFE8";
name = Bold;
paths = (
{
closed = 1;
nodes = (
"539 0 LINE",
"539 200 LINE",
"431 200 LINE",
"431 96 LINE",
"121 96 LINE",
"83 31 LINE",
"89 21 LINE",
"146 32 LINE",
"535 434 LINE",
"535 520 LINE",
"45 520 LINE",
"45 320 LINE",
"153 320 LINE",
"153 424 LINE",
"462 424 LINE",
"499 493 LINE",
"494 499 LINE",
"437 488 LINE",
"48 86 LINE",
"48 0 LINE"
);
}
);
width = 579;
},
{
anchors = (
{
name = bottom;
position = "{456, 0}";
},
{
name = top;
position = "{456, 520}";
}
);
background = {
paths = (
{
closed = 1;
nodes = (
"799 0 LINE",
"799 247 LINE",
"691 247 LINE",
"691 96 LINE",
"191 96 LINE",
"143 31 LINE",
"149 21 LINE",
"216 32 LINE",
"795 434 LINE",
"795 520 LINE",
"95 520 LINE",
"95 273 LINE",
"203 273 LINE",
"203 424 LINE",
"702 424 LINE",
"749 493 LINE",
"744 499 LINE",
"677 488 LINE",
"98 86 LINE",
"98 0 LINE"
);
}
);
};
layerId = "C70E3B11-AF58-44B6-92D7-58C9185F522D";
name = "Bold Extended";
paths = (
{
closed = 1;
nodes = (
"799 0 LINE",
"799 247 LINE",
"691 247 LINE",
"691 96 LINE",
"340 96 LINE",
"287 89 LINE",
"286 95 LINE",
"334 114 LINE",
"795 434 LINE",
"795 520 LINE",
"95 520 LINE",
"95 273 LINE",
"203 273 LINE",
"203 424 LINE",
"554 424 LINE",
"607 431 LINE",
"608 425 LINE",
"560 406 LINE SMOOTH",
"98 86 LINE",
"98 0 LINE"
);
}
);
width = 889;
}
);
leftKerningGroup = Z;
rightKerningGroup = Z;
unicode = 005A;
},
{
color = 4;
glyphname = a;
lastChange = "2015-11-25 19:34:59 +0000";
layers = (
{
anchors = (
{
name = bottom;
position = "{287, -10}";
},
{
name = ogonek;
position = "{792, 19}";
},
{
name = top;
position = "{384, 367}";
}
);
background = {
paths = (
{
closed = 1;
nodes = (
"647 98 LINE",
"647 32 OFFCURVE",
"694 -16 OFFCURVE",
"757 -16 CURVE SMOOTH",
"847 -16 OFFCURVE",
"875 63 OFFCURVE",
"875 116 CURVE",
"850 116 LINE",
"850 60 OFFCURVE",
"823 8 OFFCURVE",
"759 8 CURVE SMOOTH",
"713 8 OFFCURVE",
"671 43 OFFCURVE",
"671 98 CURVE",
"671 207 LINE",
"671 307 OFFCURVE",
"614 377 OFFCURVE",
"470 377 CURVE",
"357 377 OFFCURVE",
"244 364 OFFCURVE",
"119 336 CURVE",
"119 310 LINE",
"245 339 OFFCURVE",
"357 353 OFFCURVE",
"470 353 CURVE",
"601 353 OFFCURVE",
"647 291 OFFCURVE",
"647 207 CURVE"
);
},
{
closed = 1;
nodes = (
"90 15 OFFCURVE",
"164 -20 OFFCURVE",
"264 -20 CURVE",
"393 -20 OFFCURVE",
"535 22 OFFCURVE",
"657 77 CURVE",
"657 100 LINE",
"530 46 OFFCURVE",
"391 4 OFFCURVE",
"264 4 CURVE",
"179 4 OFFCURVE",
"115 32 OFFCURVE",
"115 99 CURVE",
"115 167 OFFCURVE",
"206 205 OFFCURVE",
"322 205 CURVE",
"427 205 OFFCURVE",
"548 185 OFFCURVE",
"657 157 CURVE",
"657 181 LINE",
"548 207 OFFCURVE",
"442 229 OFFCURVE",
"322 229 CURVE",
"192 229 OFFCURVE",
"90 185 OFFCURVE",
"90 99 CURVE"
);
}
);
};
layerId = "B29C398E-974A-40D0-A0A0-00935056D4B4";
name = "Light Extended";
paths = (
{
closed = 1;
nodes = (
"741 -10 OFFCURVE",
"768 2 OFFCURVE",
"792 19 CURVE",
"782 39 LINE",
"759 22 OFFCURVE",
"738 13 OFFCURVE",
"711 13 CURVE SMOOTH",
"678 13 OFFCURVE",
"647 38 OFFCURVE",
"647 93 CURVE SMOOTH",
"647 197 LINE SMOOTH",
"647 297 OFFCURVE",
"572 367 OFFCURVE",
"414 367 CURVE SMOOTH",
"315 367 OFFCURVE",
"213 346 OFFCURVE",
"104 310 CURVE",
"112 287 LINE",
"214 319 OFFCURVE",
"311 344 OFFCURVE",
"414 344 CURVE SMOOTH",
"559 344 OFFCURVE",
"622 281 OFFCURVE",
"622 197 CURVE SMOOTH",
"622 93 LINE SMOOTH",
"622 28 OFFCURVE",
"659 -10 OFFCURVE",
"710 -10 CURVE SMOOTH"
);
},
{
closed = 1;
nodes = (
"397 -10 OFFCURVE",
"524 20 OFFCURVE",
"633 76 CURVE",
"633 98 LINE",
"519 44 OFFCURVE",
"395 13 OFFCURVE",
"287 13 CURVE SMOOTH",
"177 13 OFFCURVE",
"115 39 OFFCURVE",
"115 92 CURVE SMOOTH",
"115 148 OFFCURVE",
"196 186 OFFCURVE",
"328 186 CURVE SMOOTH",
"442 186 OFFCURVE",
"548 171 OFFCURVE",
"633 153 CURVE",
"633 173 LINE",
"548 192 OFFCURVE",
"449 209 OFFCURVE",
"328 209 CURVE SMOOTH",
"180 209 OFFCURVE",
"90 164 OFFCURVE",
"90 90 CURVE SMOOTH",
"90 24 OFFCURVE",
"161 -10 OFFCURVE",
"287 -10 CURVE SMOOTH"
);
}
);
width = 805;
},
{
anchors = (
{
name = bottom;
position = "{175, -10}";
},
{
name = ogonek;
position = "{427, 7}";
},
{
name = top;
position = "{218, 367}";
}
);
background = {
paths = (
{
closed = 1;
nodes = (
"205 -11 OFFCURVE",
"268 18 OFFCURVE",
"313 61 CURVE",
"315 126 LINE",
"265 87 OFFCURVE",
"207 70 OFFCURVE",
"175 70 CURVE SMOOTH",
"145 70 OFFCURVE",
"126 79 OFFCURVE",
"126 105 CURVE SMOOTH",
"126 140 OFFCURVE",
"167 147 OFFCURVE",
"204 147 CURVE SMOOTH",
"235 147 OFFCURVE",
"268 143 OFFCURVE",
"315 131 CURVE",
"315 193 LINE",
"271 209 OFFCURVE",
"228 218 OFFCURVE",
"177 218 CURVE SMOOTH",
"98 218 OFFCURVE",
"17 180 OFFCURVE",
"17 101 CURVE SMOOTH",
"17 23 OFFCURVE",
"82 -11 OFFCURVE",
"146 -11 CURVE SMOOTH"
);
},
{
closed = 1;
nodes = (
"59 248 LINE",
"111 270 OFFCURVE",
"161 283 OFFCURVE",
"206 283 CURVE SMOOTH",
"253 283 OFFCURVE",
"294 266 OFFCURVE",
"294 225 CURVE SMOOTH",
"294 90 LINE SMOOTH",
"294 27 OFFCURVE",
"334 -6 OFFCURVE",
"386 -6 CURVE SMOOTH",
"404 -6 OFFCURVE",
"420 -3 OFFCURVE",
"435 1 CURVE",
"435 82 LINE",
"428 79 OFFCURVE",
"423 78 OFFCURVE",
"416 78 CURVE SMOOTH",
"404 78 OFFCURVE",
"392 84 OFFCURVE",
"392 110 CURVE SMOOTH",
"392 221 LINE SMOOTH",
"392 310 OFFCURVE",
"334 366 OFFCURVE",
"225 366 CURVE SMOOTH",
"158 366 OFFCURVE",
"101 351 OFFCURVE",
"37 323 CURVE"
);
}
);
};
layerId = "543F9737-16F7-428D-9F96-2EBD9FC8D3B6";
name = Light;
paths = (
{
closed = 1;
nodes = (
"404 -5 OFFCURVE",
"418 1 OFFCURVE",
"427 7 CURVE",
"419 28 LINE",
"411 23 OFFCURVE",
"401 18 OFFCURVE",
"389 18 CURVE SMOOTH",
"366 18 OFFCURVE",
"355 37 OFFCURVE",
"355 73 CURVE SMOOTH",
"355 233 LINE SMOOTH",
"355 333 OFFCURVE",
"294 367 OFFCURVE",
"224 367 CURVE SMOOTH",
"166 367 OFFCURVE",
"112 350 OFFCURVE",
"65 329 CURVE",
"72 306 LINE",
"118 327 OFFCURVE",
"166 343 OFFCURVE",
"224 343 CURVE SMOOTH",
"281 343 OFFCURVE",
"331 317 OFFCURVE",
"331 233 CURVE SMOOTH",
"331 73 LINE SMOOTH",
"331 23 OFFCURVE",
"350 -5 OFFCURVE",
"387 -5 CURVE SMOOTH"
);
},
{
closed = 1;
nodes = (
"229 -10 OFFCURVE",
"291 25 OFFCURVE",
"346 67 CURVE",
"346 90 LINE",
"291 46 OFFCURVE",
"232 13 OFFCURVE",
"175 13 CURVE SMOOTH",
"120 13 OFFCURVE",
"70 43 OFFCURVE",
"70 100 CURVE SMOOTH",
"70 161 OFFCURVE",
"130 191 OFFCURVE",
"194 190 CURVE SMOOTH",
"245 189 OFFCURVE",
"291 180 OFFCURVE",
"346 160 CURVE",
"346 183 LINE",
"295 201 OFFCURVE",
"250 213 OFFCURVE",
"194 213 CURVE SMOOTH",
"107 213 OFFCURVE",
"45 168 OFFCURVE",
"45 100 CURVE SMOOTH",
"45 29 OFFCURVE",
"106 -10 OFFCURVE",
"175 -10 CURVE SMOOTH"
);
}
);
width = 444;
},
{
anchors = (
{
name = bottom;
position = "{160, -10}";
},
{
name = ogonek;
position = "{462, 11}";
},
{
name = top;
position = "{227, 367}";
}
);
background = {
paths = (
{
closed = 1;
nodes = (
"70 235 LINE",
"124 257 OFFCURVE",
"168 270 OFFCURVE",
"210 270 CURVE SMOOTH",
"255 270 OFFCURVE",
"293 255 OFFCURVE",
"293 223 CURVE SMOOTH",
"293 100 LINE SMOOTH",
"293 31 OFFCURVE",
"337 -6 OFFCURVE",
"388 -6 CURVE SMOOTH",
"421 -6 OFFCURVE",
"448 3 OFFCURVE",
"462 11 CURVE",
"439 92 LINE",
"435 90 OFFCURVE",
"429 88 OFFCURVE",
"421 88 CURVE SMOOTH",
"411 88 OFFCURVE",
"402 94 OFFCURVE",
"402 111 CURVE SMOOTH",
"402 218 LINE SMOOTH",
"402 305 OFFCURVE",
"345 366 OFFCURVE",
"227 366 CURVE SMOOTH",
"161 366 OFFCURVE",
"113 351 OFFCURVE",
"45 322 CURVE"
);
},
{
closed = 1;
nodes = (
"211 -11 OFFCURVE",
"265 16 OFFCURVE",
"308 60 CURVE",
"310 134 LINE",
"265 99 OFFCURVE",
"222 83 OFFCURVE",
"189 83 CURVE SMOOTH",
"165 83 OFFCURVE",
"153 93 OFFCURVE",
"153 106 CURVE SMOOTH",
"153 128 OFFCURVE",
"183 140 OFFCURVE",
"209 140 CURVE SMOOTH",
"242 140 OFFCURVE",
"267 135 OFFCURVE",
"310 125 CURVE",
"310 195 LINE",
"268 208 OFFCURVE",
"221 219 OFFCURVE",
"172 219 CURVE SMOOTH",
"100 219 OFFCURVE",
"25 179 OFFCURVE",
"25 101 CURVE SMOOTH",
"25 25 OFFCURVE",
"88 -11 OFFCURVE",
"154 -11 CURVE SMOOTH"
);
}
);
};
layerId = "EB38A4D2-CD30-49BA-8E45-1F04A566FFE8";
name = Bold;
paths = (
{
closed = 1;
nodes = (
"421 -6 OFFCURVE",
"448 3 OFFCURVE",
"462 11 CURVE",
"439 92 LINE",
"435 90 OFFCURVE",
"429 88 OFFCURVE",
"421 88 CURVE SMOOTH",
"411 88 OFFCURVE",
"402 94 OFFCURVE",
"402 111 CURVE SMOOTH",
"402 218 LINE SMOOTH",
"402 305 OFFCURVE",
"345 366 OFFCURVE",
"227 366 CURVE SMOOTH",
"161 366 OFFCURVE",
"113 351 OFFCURVE",
"45 322 CURVE",
"70 235 LINE",
"124 257 OFFCURVE",
"168 270 OFFCURVE",
"210 270 CURVE SMOOTH",
"255 270 OFFCURVE",
"293 255 OFFCURVE",
"293 223 CURVE SMOOTH",
"293 100 LINE SMOOTH",
"293 31 OFFCURVE",
"337 -6 OFFCURVE",
"388 -6 CURVE SMOOTH"
);
},
{
closed = 1;
nodes = (
"222 -11 OFFCURVE",
"278 22 OFFCURVE",
"330 82 CURVE",
"332 156 LINE",
"275 101 OFFCURVE",
"221 83 OFFCURVE",
"196 83 CURVE SMOOTH",
"173 83 OFFCURVE",
"153 91 OFFCURVE",
"153 110 CURVE SMOOTH",
"153 133 OFFCURVE",
"186 143 OFFCURVE",
"217 144 CURVE SMOOTH",
"244 144 OFFCURVE",
"279 142 OFFCURVE",
"332 115 CURVE",
"332 185 LINE",
"288 208 OFFCURVE",
"247 225 OFFCURVE",
"185 225 CURVE SMOOTH",
"113 225 OFFCURVE",
"26 186 OFFCURVE",
"25 105 CURVE SMOOTH",
"24 25 OFFCURVE",
"90 -11 OFFCURVE",
"160 -11 CURVE SMOOTH"
);
}
);
width = 467;
},
{
anchors = (
{
name = bottom;
position = "{265, -10}";
},
{
name = ogonek;
position = "{799, 17}";
},
{
name = top;
position = "{415, 367}";
}
);
background = {
paths = (
{
closed = 1;
nodes = (
"693 0 LINE",
"693 90 LINE SMOOTH",
"693 239 OFFCURVE",
"643 366 OFFCURVE",
"465 366 CURVE SMOOTH",
"331 366 OFFCURVE",
"222 269 OFFCURVE",
"142 184 CURVE",
"142 94 LINE",
"204 162 OFFCURVE",
"315 258 OFFCURVE",
"437 258 CURVE SMOOTH",
"552 258 OFFCURVE",
"578 191 OFFCURVE",
"578 95 CURVE SMOOTH",
"578 0 LINE"
);
}
);
};
layerId = "C70E3B11-AF58-44B6-92D7-58C9185F522D";
name = "Bold Extended";
paths = (
{
closed = 1;
nodes = (
"752 -9 OFFCURVE",
"778 3 OFFCURVE",
"799 17 CURVE",
"772 96 LINE",
"760 89 OFFCURVE",
"750 86 OFFCURVE",
"735 86 CURVE SMOOTH",
"715 86 OFFCURVE",
"696 98 OFFCURVE",
"696 129 CURVE SMOOTH",
"696 174 LINE SMOOTH",
"696 294 OFFCURVE",
"597 369 OFFCURVE",
"427 369 CURVE SMOOTH",
"307 369 OFFCURVE",
"206 354 OFFCURVE",
"93 329 CURVE",
"111 244 LINE",
"221 265 OFFCURVE",
"293 275 OFFCURVE",
"403 275 CURVE SMOOTH",
"519 275 OFFCURVE",
"586 239 OFFCURVE",
"586 169 CURVE SMOOTH",
"586 118 LINE SMOOTH",
"586 34 OFFCURVE",
"642 -9 OFFCURVE",
"705 -9 CURVE SMOOTH"
);
},
{
closed = 1;
nodes = (
"387 -9 OFFCURVE",
"526 29 OFFCURVE",
"618 73 CURVE",
"620 126 LINE",
"526 98 OFFCURVE",
"375 80 OFFCURVE",
"299 80 CURVE SMOOTH",
"229 80 OFFCURVE",
"199 91 OFFCURVE",
"199 116 CURVE SMOOTH",
"199 143 OFFCURVE",
"240 155 OFFCURVE",
"320 155 CURVE SMOOTH",
"416 155 OFFCURVE",
"516 145 OFFCURVE",
"620 130 CURVE",
"620 185 LINE",
"535 207 OFFCURVE",
"414 229 OFFCURVE",
"299 229 CURVE SMOOTH",
"163 229 OFFCURVE",
"71 196 OFFCURVE",
"71 108 CURVE SMOOTH",
"71 25 OFFCURVE",
"156 -8 OFFCURVE",
"268 -8 CURVE SMOOTH"
);
}
);
width = 809;
}
);
leftKerningGroup = a;
rightKerningGroup = n;
rightMetricsKey = "=n";
unicode = 0061;
},
{
color = 4;
glyphname = a.alt;
lastChange = "2015-11-25 15:16:05 +0000";
layers = (
{
anchors = (
{
name = bottom;
position = "{287, -10}";
},
{
name = ogonek;
position = "{764, 18}";
},
{
name = top;
position = "{384, 367}";
}
);
layerId = "B29C398E-974A-40D0-A0A0-00935056D4B4";
name = "Light Extended";
paths = (
{
closed = 1;
nodes = (
"773 -5 OFFCURVE",
"796 54 OFFCURVE",
"796 103 CURVE SMOOTH",
"796 117 LINE",
"771 117 LINE",
"771 103 LINE SMOOTH",
"771 54 OFFCURVE",
"750 18 OFFCURVE",
"708 18 CURVE SMOOTH",
"662 18 OFFCURVE",
"642 54 OFFCURVE",
"642 113 CURVE",
"642 197 LINE SMOOTH",
"642 297 OFFCURVE",
"567 367 OFFCURVE",
"409 367 CURVE SMOOTH",
"310 367 OFFCURVE",
"208 346 OFFCURVE",
"99 310 CURVE",
"107 287 LINE",
"209 319 OFFCURVE",
"306 344 OFFCURVE",
"409 344 CURVE SMOOTH",
"554 344 OFFCURVE",
"617 281 OFFCURVE",
"617 197 CURVE SMOOTH",
"617 113 LINE",
"617 44 OFFCURVE",
"643 -5 OFFCURVE",
"706 -5 CURVE SMOOTH"
);
},
{
closed = 1;
nodes = (
"392 -10 OFFCURVE",
"519 20 OFFCURVE",
"628 76 CURVE",
"628 98 LINE",
"514 44 OFFCURVE",
"390 13 OFFCURVE",
"282 13 CURVE SMOOTH",
"189 13 OFFCURVE",
"110 33 OFFCURVE",
"110 96 CURVE",
"110 162 OFFCURVE",
"202 183 OFFCURVE",
"326 183 CURVE SMOOTH",
"429 183 OFFCURVE",
"541 168 OFFCURVE",
"628 153 CURVE",
"628 176 LINE",
"541 191 OFFCURVE",
"431 206 OFFCURVE",
"310 206 CURVE SMOOTH",
"188 206 OFFCURVE",
"85 178 OFFCURVE",
"85 96 CURVE",
"85 16 OFFCURVE",
"161 -10 OFFCURVE",
"282 -10 CURVE SMOOTH"
);
}
);
width = 811;
},
{
anchors = (
{
name = bottom;
position = "{170, -10}";
},
{
name = ogonek;
position = "{411, -13}";
},
{
name = top;
position = "{210, 377}";
}
);
background = {
paths = (
{
closed = 1;
nodes = (
"452 -5 OFFCURVE",
"481 28 OFFCURVE",
"481 70 CURVE SMOOTH",
"481 89 LINE",
"458 89 LINE",
"458 70 LINE SMOOTH",
"458 39 OFFCURVE",
"444 19 OFFCURVE",
"412 19 CURVE SMOOTH",
"383 19 OFFCURVE",
"364 37 OFFCURVE",
"364 70 CURVE SMOOTH",
"364 256 LINE",
"364 321 OFFCURVE",
"320 377 OFFCURVE",
"225 377 CURVE",
"182 377 OFFCURVE",
"128 369 OFFCURVE",
"59 350 CURVE",
"59 326 LINE",
"128 346 OFFCURVE",
"182 353 OFFCURVE",
"225 353 CURVE",
"307 353 OFFCURVE",
"340 305 OFFCURVE",
"340 256 CURVE",
"340 70 LINE SMOOTH",
"340 26 OFFCURVE",
"367 -5 OFFCURVE",
"411 -5 CURVE SMOOTH"
);
},
{
closed = 1;
nodes = (
"222 -10 OFFCURVE",
"283 9 OFFCURVE",
"350 77 CURVE",
"350 96 LINE",
"283 35 OFFCURVE",
"220 14 OFFCURVE",
"171 14 CURVE SMOOTH",
"131 14 OFFCURVE",
"69 39 OFFCURVE",
"69 107 CURVE SMOOTH",
"69 168 OFFCURVE",
"129 201 OFFCURVE",
"187 201 CURVE SMOOTH",
"229 201 OFFCURVE",
"283 197 OFFCURVE",
"350 175 CURVE",
"350 194 LINE",
"287 214 OFFCURVE",
"244 225 OFFCURVE",
"187 225 CURVE SMOOTH",
"122 225 OFFCURVE",
"45 185 OFFCURVE",
"45 107 CURVE SMOOTH",
"45 22 OFFCURVE",
"116 -10 OFFCURVE",
"171 -10 CURVE SMOOTH"
);
}
);
};
layerId = "543F9737-16F7-428D-9F96-2EBD9FC8D3B6";
name = Light;
paths = (
{
closed = 1;
nodes = (
"434 -5 OFFCURVE",
"459 26 OFFCURVE",
"459 68 CURVE SMOOTH",
"459 87 LINE",
"436 87 LINE",
"436 68 LINE SMOOTH",
"436 39 OFFCURVE",
"422 18 OFFCURVE",
"396 18 CURVE SMOOTH",
"371 18 OFFCURVE",
"355 37 OFFCURVE",
"355 70 CURVE SMOOTH",
"355 233 LINE SMOOTH",
"355 333 OFFCURVE",
"294 367 OFFCURVE",
"224 367 CURVE SMOOTH",
"166 367 OFFCURVE",
"112 350 OFFCURVE",
"65 329 CURVE",
"72 306 LINE",
"118 327 OFFCURVE",
"166 343 OFFCURVE",
"224 343 CURVE SMOOTH",
"281 343 OFFCURVE",
"331 317 OFFCURVE",
"331 233 CURVE SMOOTH",
"331 70 LINE SMOOTH",
"331 26 OFFCURVE",
"357 -5 OFFCURVE",
"396 -5 CURVE SMOOTH"
);
},
{
closed = 1;
nodes = (
"229 -10 OFFCURVE",
"291 25 OFFCURVE",
"346 67 CURVE",
"346 90 LINE",
"291 46 OFFCURVE",
"232 13 OFFCURVE",
"175 13 CURVE SMOOTH",
"120 13 OFFCURVE",
"70 43 OFFCURVE",
"70 100 CURVE SMOOTH",
"70 161 OFFCURVE",
"130 191 OFFCURVE",
"194 190 CURVE SMOOTH",
"245 189 OFFCURVE",
"291 180 OFFCURVE",
"346 160 CURVE",
"346 183 LINE",
"295 201 OFFCURVE",
"250 213 OFFCURVE",
"194 213 CURVE SMOOTH",
"107 213 OFFCURVE",
"45 168 OFFCURVE",
"45 100 CURVE SMOOTH",
"45 29 OFFCURVE",
"106 -10 OFFCURVE",
"175 -10 CURVE SMOOTH"
);
}
);
width = 464;
},
{
anchors = (
{
name = bottom;
position = "{162, -11}";
},
{
name = ogonek;
position = "{453, 9}";
},
{
name = top;
position = "{221, 365}";
}
);
layerId = "EB38A4D2-CD30-49BA-8E45-1F04A566FFE8";
name = Bold;
paths = (
{
closed = 1;
nodes = (
"453 -6 OFFCURVE",
"496 27 OFFCURVE",
"496 90 CURVE SMOOTH",
"496 143 LINE",
"439 143 LINE",
"439 89 LINE SMOOTH",
"439 78 OFFCURVE",
"436 68 OFFCURVE",
"424 68 CURVE SMOOTH",
"413 68 OFFCURVE",
"410 79 OFFCURVE",
"410 88 CURVE SMOOTH",
"410 218 LINE SMOOTH",
"410 305 OFFCURVE",
"353 366 OFFCURVE",
"235 366 CURVE SMOOTH",
"169 366 OFFCURVE",
"121 351 OFFCURVE",
"53 322 CURVE",
"78 235 LINE",
"132 257 OFFCURVE",
"176 270 OFFCURVE",
"218 270 CURVE SMOOTH",
"263 270 OFFCURVE",
"301 255 OFFCURVE",
"301 223 CURVE SMOOTH",
"301 90 LINE SMOOTH",
"301 32 OFFCURVE",
"338 -6 OFFCURVE",
"400 -6 CURVE SMOOTH"
);
},
{
closed = 1;
nodes = (
"219 -11 OFFCURVE",
"273 16 OFFCURVE",
"316 60 CURVE",
"318 134 LINE",
"273 99 OFFCURVE",
"230 83 OFFCURVE",
"197 83 CURVE SMOOTH",
"173 83 OFFCURVE",
"161 93 OFFCURVE",
"161 106 CURVE SMOOTH",
"161 128 OFFCURVE",
"185 137 OFFCURVE",
"210 137 CURVE SMOOTH",
"243 138 OFFCURVE",
"275 135 OFFCURVE",
"318 125 CURVE",
"318 195 LINE",
"276 208 OFFCURVE",
"229 219 OFFCURVE",
"180 219 CURVE SMOOTH",
"108 219 OFFCURVE",
"33 179 OFFCURVE",
"33 101 CURVE SMOOTH",
"33 25 OFFCURVE",
"96 -11 OFFCURVE",
"162 -11 CURVE SMOOTH"
);
}
);
width = 488;
},
{
anchors = (
{
name = bottom;
position = "{436, -11}";
},
{
name = ogonek;
position = "{777, 9}";
},
{
name = top;
position = "{436, 369}";
}
);
background = {
paths = (
{
closed = 1;
nodes = (
"792 -6 OFFCURVE",
"833 55 OFFCURVE",
"833 125 CURVE SMOOTH",
"833 173 LINE",
"774 173 LINE",
"774 124 LINE SMOOTH",
"774 93 OFFCURVE",
"764 68 OFFCURVE",
"736 68 CURVE SMOOTH",
"704 68 OFFCURVE",
"697 96 OFFCURVE",
"697 131 CURVE SMOOTH",
"697 182 LINE SMOOTH",
"697 269 OFFCURVE",
"626 366 OFFCURVE",
"420 366 CURVE SMOOTH",
"313 366 OFFCURVE",
"217 347 OFFCURVE",
"87 303 CURVE",
"113 216 LINE",
"223 249 OFFCURVE",
"316 271 OFFCURVE",
"403 271 CURVE SMOOTH",
"536 271 OFFCURVE",
"587 219 OFFCURVE",
"587 187 CURVE SMOOTH",
"587 133 LINE SMOOTH",
"587 50 OFFCURVE",
"624 -6 OFFCURVE",
"710 -6 CURVE SMOOTH"
);
},
{
closed = 1;
nodes = (
"382 -11 OFFCURVE",
"501 11 OFFCURVE",
"598 69 CURVE",
"600 142 LINE",
"496 97 OFFCURVE",
"388 83 OFFCURVE",
"304 83 CURVE SMOOTH",
"242 83 OFFCURVE",
"201 83 OFFCURVE",
"201 102 CURVE SMOOTH",
"201 129 OFFCURVE",
"257 129 OFFCURVE",
"342 130 CURVE SMOOTH",
"427 132 OFFCURVE",
"525 123 OFFCURVE",
"600 118 CURVE",
"600 188 LINE",
"522 198 OFFCURVE",
"410 212 OFFCURVE",
"296 212 CURVE SMOOTH",
"189 212 OFFCURVE",
"73 189 OFFCURVE",
"73 97 CURVE SMOOTH",
"73 12 OFFCURVE",
"151 -11 OFFCURVE",
"269 -11 CURVE SMOOTH"
);
}
);
};
layerId = "C70E3B11-AF58-44B6-92D7-58C9185F522D";
name = "Bold Extended";
paths = (
{
closed = 1;
nodes = (
"798 -5 OFFCURVE",
"833 56 OFFCURVE",
"833 126 CURVE SMOOTH",
"833 174 LINE",
"774 174 LINE",
"774 125 LINE SMOOTH",
"774 93 OFFCURVE",
"764 69 OFFCURVE",
"736 69 CURVE SMOOTH",
"704 69 OFFCURVE",
"696 96 OFFCURVE",
"696 132 CURVE",
"696 174 LINE SMOOTH",
"696 294 OFFCURVE",
"597 369 OFFCURVE",
"437 369 CURVE SMOOTH",
"316 369 OFFCURVE",
"203 354 OFFCURVE",
"93 329 CURVE",
"111 239 LINE",
"221 262 OFFCURVE",
"309 274 OFFCURVE",
"409 274 CURVE SMOOTH",
"510 274 OFFCURVE",
"586 239 OFFCURVE",
"586 169 CURVE SMOOTH",
"586 134 LINE",
"586 51 OFFCURVE",
"624 -5 OFFCURVE",
"715 -5 CURVE SMOOTH"
);
},
{
closed = 1;
nodes = (
"387 -9 OFFCURVE",
"526 29 OFFCURVE",
"618 73 CURVE",
"620 126 LINE",
"526 98 OFFCURVE",
"375 80 OFFCURVE",
"299 80 CURVE SMOOTH",
"229 80 OFFCURVE",
"199 91 OFFCURVE",
"199 116 CURVE SMOOTH",
"199 143 OFFCURVE",
"240 155 OFFCURVE",
"320 155 CURVE SMOOTH",
"416 155 OFFCURVE",
"516 145 OFFCURVE",
"620 130 CURVE",
"620 185 LINE",
"535 207 OFFCURVE",
"414 229 OFFCURVE",
"299 229 CURVE SMOOTH",
"163 229 OFFCURVE",
"71 196 OFFCURVE",
"71 108 CURVE SMOOTH",
"71 25 OFFCURVE",
"156 -8 OFFCURVE",
"268 -8 CURVE SMOOTH"
);
}
);
width = 835;
}
);
leftKerningGroup = a;
rightKerningGroup = n;
},
{
color = 4;
glyphname = a.alt2;
lastChange = "2015-11-25 03:14:34 +0000";
layers = (
{
anchors = (
{
name = bottom;
position = "{424, -20}";
},
{
name = ogonek;
position = "{794, -2}";
},
{
name = top;
position = "{424, 377}";
}
);
background = {
paths = (
{
closed = 1;
nodes = (
"795 -20 OFFCURVE",
"818 -8 OFFCURVE",
"842 9 CURVE",
"833 29 LINE",
"809 12 OFFCURVE",
"791 3 OFFCURVE",
"765 3 CURVE SMOOTH",
"732 3 OFFCURVE",
"697 28 OFFCURVE",
"697 84 CURVE",
"697 207 LINE",
"672 207 LINE",
"672 84 LINE",
"672 18 OFFCURVE",
"713 -20 OFFCURVE",
"763 -20 CURVE SMOOTH"
);
},
{
closed = 1;
nodes = (
"697 181 LINE",
"697 357 LINE",
"672 357 LINE",
"672 181 LINE"
);
},
{
closed = 1;
nodes = (
"616 334 OFFCURVE",
"512 376 OFFCURVE",
"382 375 CURVE",
"230 376 OFFCURVE",
"80 300 OFFCURVE",
"80 164 CURVE",
"80 48 OFFCURVE",
"175 -20 OFFCURVE",
"318 -20 CURVE",
"448 -20 OFFCURVE",
"570 44 OFFCURVE",
"686 127 CURVE",
"686 151 LINE",
"561 62 OFFCURVE",
"432 3 OFFCURVE",
"318 3 CURVE",
"185 3 OFFCURVE",
"105 69 OFFCURVE",
"105 164 CURVE",
"105 283 OFFCURVE",
"240 353 OFFCURVE",
"382 352 CURVE",
"501 353 OFFCURVE",
"615 310 OFFCURVE",
"688 270 CURVE",
"688 293 LINE"
);
}
);
};
layerId = "B29C398E-974A-40D0-A0A0-00935056D4B4";
name = "Light Extended";
paths = (
{
closed = 1;
nodes = (
"448 -11 OFFCURVE",
"570 53 OFFCURVE",
"686 137 CURVE",
"686 160 LINE",
"561 72 OFFCURVE",
"432 12 OFFCURVE",
"318 12 CURVE",
"185 12 OFFCURVE",
"105 73 OFFCURVE",
"105 161 CURVE",
"105 271 OFFCURVE",
"231 344 OFFCURVE",
"383 343 CURVE",
"502 344 OFFCURVE",
"615 301 OFFCURVE",
"689 261 CURVE",
"689 283 LINE",
"617 324 OFFCURVE",
"512 366 OFFCURVE",
"383 366 CURVE",
"220 366 OFFCURVE",
"80 289 OFFCURVE",
"80 161 CURVE",
"80 53 OFFCURVE",
"175 -11 OFFCURVE",
"318 -11 CURVE"
);
},
{
closed = 1;
nodes = (
"792 -10 OFFCURVE",
"819 2 OFFCURVE",
"843 19 CURVE",
"833 39 LINE",
"810 22 OFFCURVE",
"789 13 OFFCURVE",
"762 13 CURVE SMOOTH",
"729 13 OFFCURVE",
"698 38 OFFCURVE",
"698 94 CURVE SMOOTH",
"698 357 LINE",
"673 352 LINE",
"673 94 LINE SMOOTH",
"673 28 OFFCURVE",
"710 -10 OFFCURVE",
"761 -10 CURVE SMOOTH"
);
}
);
width = 858;
},
{
anchors = (
{
name = bottom;
position = "{214, -10}";
},
{
name = ogonek;
position = "{448, -2}";
},
{
name = top;
position = "{214, 367}";
}
);
background = {
paths = (
{
closed = 1;
nodes = (
"382 83 LINE SMOOTH",
"382 39 OFFCURVE",
"412 8 OFFCURVE",
"456 8 CURVE SMOOTH",
"497 8 OFFCURVE",
"523 45 OFFCURVE",
"523 83 CURVE SMOOTH",
"523 102 LINE",
"501 102 LINE",
"501 83 LINE SMOOTH",
"501 55 OFFCURVE",
"490 32 OFFCURVE",
"457 32 CURVE SMOOTH",
"428 32 OFFCURVE",
"407 50 OFFCURVE",
"407 83 CURVE SMOOTH",
"407 221 LINE",
"382 221 LINE"
);
}
);
};
layerId = "543F9737-16F7-428D-9F96-2EBD9FC8D3B6";
name = Light;
paths = (
{
closed = 1;
nodes = (
"280 -10 OFFCURVE",
"335 31 OFFCURVE",
"372 67 CURVE",
"372 94 LINE",
"330 52 OFFCURVE",
"280 14 OFFCURVE",
"211 13 CURVE SMOOTH",
"133 12 OFFCURVE",
"70 72 OFFCURVE",
"70 171 CURVE SMOOTH",
"70 272 OFFCURVE",
"140 345 OFFCURVE",
"223 345 CURVE SMOOTH",
"290 345 OFFCURVE",
"338 311 OFFCURVE",
"379 268 CURVE",
"379 291 LINE",
"338 333 OFFCURVE",
"290 367 OFFCURVE",
"223 367 CURVE SMOOTH",
"129 367 OFFCURVE",
"45 290 OFFCURVE",
"45 170 CURVE SMOOTH",
"45 59 OFFCURVE",
"120 -10 OFFCURVE",
"211 -10 CURVE SMOOTH"
);
},
{
closed = 1;
nodes = (
"431 -10 OFFCURVE",
"445 -5 OFFCURVE",
"455 2 CURVE",
"449 24 LINE",
"442 18 OFFCURVE",
"429 14 OFFCURVE",
"416 14 CURVE SMOOTH",
"396 14 OFFCURVE",
"383 29 OFFCURVE",
"383 68 CURVE SMOOTH",
"383 357 LINE",
"359 352 LINE",
"359 68 LINE SMOOTH",
"359 18 OFFCURVE",
"378 -10 OFFCURVE",
"415 -10 CURVE SMOOTH"
);
}
);
width = 460;
},
{
anchors = (
{
name = bottom;
position = "{198, -12}";
},
{
name = ogonek;
position = "{491, 12}";
},
{
name = top;
position = "{195, 367}";
}
);
layerId = "EB38A4D2-CD30-49BA-8E45-1F04A566FFE8";
name = Bold;
paths = (
{
closed = 1;
nodes = (
"292 -11 OFFCURVE",
"345 58 OFFCURVE",
"383 98 CURVE",
"383 181 LINE",
"341 139 OFFCURVE",
"286 87 OFFCURVE",
"232 86 CURVE SMOOTH",
"173 85 OFFCURVE",
"140 125 OFFCURVE",
"140 177 CURVE SMOOTH",
"140 232 OFFCURVE",
"178 272 OFFCURVE",
"241 272 CURVE SMOOTH",
"294 272 OFFCURVE",
"349 225 OFFCURVE",
"381 182 CURVE",
"381 259 LINE",
"350 301 OFFCURVE",
"302 367 OFFCURVE",
"211 367 CURVE SMOOTH",
"100 367 OFFCURVE",
"20 285 OFFCURVE",
"20 177 CURVE SMOOTH",
"20 69 OFFCURVE",
"104 -11 OFFCURVE",
"198 -11 CURVE SMOOTH"
);
},
{
closed = 1;
nodes = (
"450 -5 OFFCURVE",
"472 4 OFFCURVE",
"491 12 CURVE",
"468 92 LINE",
"463 91 OFFCURVE",
"461 90 OFFCURVE",
"454 90 CURVE SMOOTH",
"443 90 OFFCURVE",
"432 94 OFFCURVE",
"432 113 CURVE SMOOTH",
"432 369 LINE",
"316 347 LINE",
"316 101 LINE SMOOTH",
"316 35 OFFCURVE",
"361 -5 OFFCURVE",
"417 -5 CURVE SMOOTH"
);
}
);
width = 483;
},
{
anchors = (
{
name = bottom;
position = "{403, -22}";
},
{
name = ogonek;
position = "{832, 12}";
},
{
name = top;
position = "{400, 377}";
}
);
background = {
paths = (
{
closed = 1;
nodes = (
"455 -12 OFFCURVE",
"575 80 OFFCURVE",
"692 168 CURVE",
"692 247 LINE",
"567 159 OFFCURVE",
"433 85 OFFCURVE",
"334 85 CURVE SMOOTH",
"220 85 OFFCURVE",
"170 126 OFFCURVE",
"170 167 CURVE SMOOTH",
"170 231 OFFCURVE",
"264 271 OFFCURVE",
"396 270 CURVE SMOOTH",
"501 271 OFFCURVE",
"621 215 OFFCURVE",
"686 175 CURVE",
"686 251 LINE",
"624 292 OFFCURVE",
"519 366 OFFCURVE",
"366 366 CURVE SMOOTH",
"186 366 OFFCURVE",
"50 284 OFFCURVE",
"50 168 CURVE SMOOTH",
"50 63 OFFCURVE",
"154 -12 OFFCURVE",
"300 -12 CURVE SMOOTH"
);
},
{
closed = 1;
nodes = (
"806 -5 OFFCURVE",
"841 11 OFFCURVE",
"874 29 CURVE",
"847 107 LINE",
"826 95 OFFCURVE",
"816 89 OFFCURVE",
"795 89 CURVE SMOOTH",
"771 89 OFFCURVE",
"742 103 OFFCURVE",
"742 139 CURVE SMOOTH",
"742 369 LINE",
"625 347 LINE",
"625 127 LINE SMOOTH",
"625 45 OFFCURVE",
"688 -5 OFFCURVE",
"758 -5 CURVE SMOOTH"
);
}
);
};
layerId = "C70E3B11-AF58-44B6-92D7-58C9185F522D";
name = "Bold Extended";
paths = (
{
closed = 1;
nodes = (
"453 -12 OFFCURVE",
"575 60 OFFCURVE",
"692 138 CURVE",
"692 217 LINE",
"564 134 OFFCURVE",
"423 85 OFFCURVE",
"319 85 CURVE SMOOTH",
"223 85 OFFCURVE",
"170 117 OFFCURVE",
"170 173 CURVE SMOOTH",
"170 230 OFFCURVE",
"239 271 OFFCURVE",
"351 271 CURVE SMOOTH",
"466 271 OFFCURVE",
"600 247 OFFCURVE",
"686 210 CURVE",
"686 286 LINE",
"606 322 OFFCURVE",
"486 366 OFFCURVE",
"335 366 CURVE SMOOTH",
"180 366 OFFCURVE",
"50 291 OFFCURVE",
"50 167 CURVE SMOOTH",
"50 49 OFFCURVE",
"155 -12 OFFCURVE",
"298 -12 CURVE SMOOTH"
);
},
{
closed = 1;
nodes = (
"799 -9 OFFCURVE",
"825 3 OFFCURVE",
"846 17 CURVE",
"819 96 LINE",
"808 90 OFFCURVE",
"797 86 OFFCURVE",
"782 86 CURVE SMOOTH",
"762 86 OFFCURVE",
"743 98 OFFCURVE",
"743 139 CURVE SMOOTH",
"743 368 LINE",
"626 347 LINE",
"626 118 LINE SMOOTH",
"626 34 OFFCURVE",
"682 -9 OFFCURVE",
"752 -9 CURVE SMOOTH"
);
}
);
width = 848;
}
);
leftKerningGroup = "0";
leftMetricsKey = "=d";
rightKerningGroup = u;
rightMetricsKey = d.alt;
},
{
color = 4;
glyphname = ae;
lastChange = "2015-11-25 03:14:34 +0000";
layers = (
{
anchors = (
{
name = bottom;
position = "{599, -10}";
},
{
name = ogonek;
position = "{1130, 55}";
},
{
name = top;
position = "{594, 367}";
}
);
layerId = "B29C398E-974A-40D0-A0A0-00935056D4B4";
name = "Light Extended";
paths = (
{
closed = 1;
nodes = (
"956 -20 OFFCURVE",
"1053 9 OFFCURVE",
"1130 55 CURVE",
"1119 74 LINE",
"1043 30 OFFCURVE",
"952 2 OFFCURVE",
"855 3 CURVE",
"745 2 OFFCURVE",
"605 62 OFFCURVE",
"605 167 CURVE SMOOTH",
"605 290 OFFCURVE",
"766 353 OFFCURVE",
"892 353 CURVE SMOOTH",
"1002 353 OFFCURVE",
"1104 324 OFFCURVE",
"1104 258 CURVE SMOOTH",
"1104 184 OFFCURVE",
"995 165 OFFCURVE",
"900 165 CURVE SMOOTH",
"802 165 OFFCURVE",
"703 176 OFFCURVE",
"599 188 CURVE",
"598 165 LINE",
"703 152 OFFCURVE",
"803 142 OFFCURVE",
"900 142 CURVE SMOOTH",
"1010 142 OFFCURVE",
"1129 171 OFFCURVE",
"1129 260 CURVE SMOOTH",
"1129 340 OFFCURVE",
"1015 376 OFFCURVE",
"896 376 CURVE SMOOTH",
"746 376 OFFCURVE",
"607 306 OFFCURVE",
"591 197 CURVE",
"601 197 LINE",
"601 297 OFFCURVE",
"536 377 OFFCURVE",
"394 377 CURVE SMOOTH",
"297 377 OFFCURVE",
"206 356 OFFCURVE",
"112 322 CURVE",
"119 300 LINE",
"207 331 OFFCURVE",
"293 354 OFFCURVE",
"394 354 CURVE SMOOTH",
"529 354 OFFCURVE",
"582 276 OFFCURVE",
"582 197 CURVE SMOOTH",
"582 167 LINE",
"582 41 OFFCURVE",
"736 -20 OFFCURVE",
"855 -20 CURVE"
);
},
{
closed = 1;
nodes = (
"372 -20 OFFCURVE",
"511 21 OFFCURVE",
"610 92 CURVE",
"610 114 LINE",
"506 45 OFFCURVE",
"370 3 OFFCURVE",
"267 3 CURVE",
"194 3 OFFCURVE",
"115 28 OFFCURVE",
"115 89 CURVE",
"115 158 OFFCURVE",
"202 188 OFFCURVE",
"306 188 CURVE SMOOTH",
"409 188 OFFCURVE",
"500 176 OFFCURVE",
"593 165 CURVE",
"593 188 LINE",
"500 199 OFFCURVE",
"411 211 OFFCURVE",
"306 211 CURVE SMOOTH",
"188 211 OFFCURVE",
"90 174 OFFCURVE",
"90 89 CURVE",
"90 11 OFFCURVE",
"166 -20 OFFCURVE",
"267 -20 CURVE"
);
}
);
width = 1225;
},
{
anchors = (
{
name = bottom;
position = "{359, -10}";
},
{
name = ogonek;
position = "{658, 49}";
},
{
name = top;
position = "{354, 367}";
}
);
layerId = "543F9737-16F7-428D-9F96-2EBD9FC8D3B6";
name = Light;
paths = (
{
closed = 1;
nodes = (
"577 -10 OFFCURVE",
"620 16 OFFCURVE",
"658 49 CURVE",
"644 67 LINE",
"610 36 OFFCURVE",
"573 14 OFFCURVE",
"514 13 CURVE SMOOTH",
"433 12 OFFCURVE",
"355 72 OFFCURVE",
"355 167 CURVE SMOOTH",
"355 282 OFFCURVE",
"441 343 OFFCURVE",
"518 343 CURVE SMOOTH",
"581 343 OFFCURVE",
"632 315 OFFCURVE",
"632 260 CURVE SMOOTH",
"632 205 OFFCURVE",
"572 176 OFFCURVE",
"511 176 CURVE SMOOTH",
"454 176 OFFCURVE",
"402 184 OFFCURVE",
"350 194 CURVE",
"351 173 LINE",
"402 163 OFFCURVE",
"454 153 OFFCURVE",
"511 153 CURVE SMOOTH",
"587 153 OFFCURVE",
"657 192 OFFCURVE",
"657 260 CURVE SMOOTH",
"657 326 OFFCURVE",
"594 366 OFFCURVE",
"518 366 CURVE SMOOTH",
"445 366 OFFCURVE",
"364 320 OFFCURVE",
"344 217 CURVE",
"351 217 LINE",
"351 333 OFFCURVE",
"295 367 OFFCURVE",
"219 367 CURVE SMOOTH",
"163 367 OFFCURVE",
"112 350 OFFCURVE",
"65 329 CURVE",
"72 306 LINE",
"118 327 OFFCURVE",
"163 343 OFFCURVE",
"219 343 CURVE SMOOTH",
"285 343 OFFCURVE",
"332 317 OFFCURVE",
"332 207 CURVE SMOOTH",
"332 177 LINE",
"332 51 OFFCURVE",
"423 -10 OFFCURVE",
"514 -10 CURVE SMOOTH"
);
},
{
closed = 1;
nodes = (
"249 -10 OFFCURVE",
"301 25 OFFCURVE",
"367 80 CURVE",
"358 98 LINE",
"301 49 OFFCURVE",
"244 13 OFFCURVE",
"175 13 CURVE SMOOTH",
"120 13 OFFCURVE",
"70 43 OFFCURVE",
"70 100 CURVE SMOOTH",
"70 161 OFFCURVE",
"130 191 OFFCURVE",
"194 190 CURVE SMOOTH",
"245 189 OFFCURVE",
"295 182 OFFCURVE",
"346 173 CURVE",
"346 194 LINE",
"295 203 OFFCURVE",
"250 213 OFFCURVE",
"194 213 CURVE SMOOTH",
"107 213 OFFCURVE",
"45 168 OFFCURVE",
"45 100 CURVE SMOOTH",
"45 29 OFFCURVE",
"106 -10 OFFCURVE",
"175 -10 CURVE SMOOTH"
);
}
);
width = 698;
},
{
anchors = (
{
name = bottom;
position = "{344, -10}";
},
{
name = ogonek;
position = "{693, 56}";
},
{
name = top;
position = "{339, 367}";
}
);
background = {
paths = (
{
closed = 1;
nodes = (
"585 -11 OFFCURVE",
"649 20 OFFCURVE",
"693 56 CURVE",
"651 139 LINE",
"613 107 OFFCURVE",
"568 85 OFFCURVE",
"518 85 CURVE SMOOTH",
"468 85 OFFCURVE",
"402 117 OFFCURVE",
"402 187 CURVE SMOOTH",
"402 247 OFFCURVE",
"459 281 OFFCURVE",
"500 281 CURVE SMOOTH",
"533 281 OFFCURVE",
"555 265 OFFCURVE",
"555 244 CURVE SMOOTH",
"555 223 OFFCURVE",
"536 204 OFFCURVE",
"489 204 CURVE SMOOTH",
"449 204 OFFCURVE",
"395 211 OFFCURVE",
"330 229 CURVE",
"329 169 LINE",
"393 146 OFFCURVE",
"449 126 OFFCURVE",
"520 126 CURVE SMOOTH",
"587 126 OFFCURVE",
"679 157 OFFCURVE",
"679 240 CURVE SMOOTH",
"679 311 OFFCURVE",
"619 367 OFFCURVE",
"521 367 CURVE SMOOTH",
"424 367 OFFCURVE",
"342 311 OFFCURVE",
"322 218 CURVE",
"384 222 LINE",
"385 305 OFFCURVE",
"339 366 OFFCURVE",
"228 366 CURVE SMOOTH",
"161 366 OFFCURVE",
"113 351 OFFCURVE",
"45 322 CURVE",
"70 235 LINE",
"124 257 OFFCURVE",
"169 270 OFFCURVE",
"211 270 CURVE SMOOTH",
"254 270 OFFCURVE",
"299 255 OFFCURVE",
"299 229 CURVE SMOOTH",
"299 175 LINE",
"299 60 OFFCURVE",
"396 -11 OFFCURVE",
"509 -11 CURVE SMOOTH"
);
},
{
closed = 1;
nodes = (
"219 -11 OFFCURVE",
"281 16 OFFCURVE",
"332 78 CURVE",
"307 132 LINE",
"263 98 OFFCURVE",
"219 83 OFFCURVE",
"189 83 CURVE SMOOTH",
"165 83 OFFCURVE",
"153 93 OFFCURVE",
"153 106 CURVE SMOOTH",
"153 128 OFFCURVE",
"177 137 OFFCURVE",
"202 137 CURVE SMOOTH",
"235 138 OFFCURVE",
"266 134 OFFCURVE",
"310 122 CURVE",
"310 193 LINE",
"268 208 OFFCURVE",
"221 219 OFFCURVE",
"172 219 CURVE SMOOTH",
"100 219 OFFCURVE",
"25 179 OFFCURVE",
"25 101 CURVE SMOOTH",
"25 25 OFFCURVE",
"88 -11 OFFCURVE",
"154 -11 CURVE SMOOTH"
);
}
);
};
layerId = "EB38A4D2-CD30-49BA-8E45-1F04A566FFE8";
name = Bold;
paths = (
{
closed = 1;
nodes = (
"580 -11 OFFCURVE",
"647 17 OFFCURVE",
"692 56 CURVE",
"646 135 LINE",
"612 109 OFFCURVE",
"567 90 OFFCURVE",
"513 90 CURVE SMOOTH",
"456 90 OFFCURVE",
"408 117 OFFCURVE",
"408 177 CURVE SMOOTH",
"408 234 OFFCURVE",
"464 278 OFFCURVE",
"520 278 CURVE SMOOTH",
"547 278 OFFCURVE",
"565 266 OFFCURVE",
"565 250 CURVE SMOOTH",
"565 229 OFFCURVE",
"542 217 OFFCURVE",
"501 216 CURVE SMOOTH",
"474 216 OFFCURVE",
"439 218 OFFCURVE",
"383 245 CURVE",
"383 180 LINE",
"427 157 OFFCURVE",
"469 140 OFFCURVE",
"531 140 CURVE SMOOTH",
"607 140 OFFCURVE",
"680 176 OFFCURVE",
"680 250 CURVE SMOOTH",
"680 321 OFFCURVE",
"610 367 OFFCURVE",
"521 367 CURVE",
"434 367 OFFCURVE",
"335 311 OFFCURVE",
"334 220 CURVE",
"385 220 LINE",
"385 317 OFFCURVE",
"325 366 OFFCURVE",
"227 366 CURVE SMOOTH",
"161 366 OFFCURVE",
"105 349 OFFCURVE",
"45 322 CURVE",
"70 235 LINE",
"124 257 OFFCURVE",
"163 270 OFFCURVE",
"215 270 CURVE SMOOTH",
"260 270 OFFCURVE",
"299 255 OFFCURVE",
"299 193 CURVE SMOOTH",
"299 177 LINE",
"299 60 OFFCURVE",
"397 -11 OFFCURVE",
"503 -11 CURVE SMOOTH"
);
},
{
closed = 1;
nodes = (
"222 -11 OFFCURVE",
"278 22 OFFCURVE",
"351 99 CURVE",
"332 156 LINE",
"275 101 OFFCURVE",
"221 83 OFFCURVE",
"196 83 CURVE SMOOTH",
"173 83 OFFCURVE",
"153 91 OFFCURVE",
"153 110 CURVE SMOOTH",
"153 133 OFFCURVE",
"186 143 OFFCURVE",
"217 144 CURVE SMOOTH",
"244 144 OFFCURVE",
"279 142 OFFCURVE",
"332 115 CURVE",
"332 185 LINE",
"288 208 OFFCURVE",
"247 225 OFFCURVE",
"185 225 CURVE SMOOTH",
"113 225 OFFCURVE",
"26 186 OFFCURVE",
"25 105 CURVE SMOOTH",
"24 25 OFFCURVE",
"90 -11 OFFCURVE",
"160 -11 CURVE SMOOTH"
);
}
);
width = 704;
},
{
anchors = (
{
name = bottom;
position = "{622, -10}";
},
{
name = ogonek;
position = "{1203, 62}";
},
{
name = top;
position = "{617, 367}";
}
);
background = {
paths = (
{
closed = 1;
nodes = (
"1002 -21 OFFCURVE",
"1120 13 OFFCURVE",
"1203 62 CURVE",
"1164 146 LINE",
"1084 101 OFFCURVE",
"985 73 OFFCURVE",
"897 75 CURVE SMOOTH",
"818 75 OFFCURVE",
"690 107 OFFCURVE",
"690 187 CURVE SMOOTH",
"690 255 OFFCURVE",
"822 291 OFFCURVE",
"912 291 CURVE SMOOTH",
"992 291 OFFCURVE",
"1065 274 OFFCURVE",
"1065 242 CURVE SMOOTH",
"1065 202 OFFCURVE",
"997 193 OFFCURVE",
"916 193 CURVE SMOOTH",
"835 193 OFFCURVE",
"734 203 OFFCURVE",
"617 223 CURVE",
"614 161 LINE",
"732 135 OFFCURVE",
"836 115 OFFCURVE",
"947 115 CURVE SMOOTH",
"1048 115 OFFCURVE",
"1189 136 OFFCURVE",
"1189 240 CURVE SMOOTH",
"1189 325 OFFCURVE",
"1078 377 OFFCURVE",
"937 377 CURVE SMOOTH",
"763 377 OFFCURVE",
"623 297 OFFCURVE",
"607 198 CURVE",
"672 202 LINE",
"673 269 OFFCURVE",
"618 376 OFFCURVE",
"441 376 CURVE SMOOTH",
"333 376 OFFCURVE",
"245 357 OFFCURVE",
"130 315 CURVE",
"155 229 LINE",
"251 261 OFFCURVE",
"337 281 OFFCURVE",
"424 281 CURVE SMOOTH",
"536 281 OFFCURVE",
"587 214 OFFCURVE",
"587 219 CURVE SMOOTH",
"587 165 LINE",
"587 50 OFFCURVE",
"747 -21 OFFCURVE",
"888 -21 CURVE SMOOTH"
);
},
{
closed = 1;
nodes = (
"380 -21 OFFCURVE",
"529 12 OFFCURVE",
"613 90 CURVE",
"597 148 LINE",
"506 94 OFFCURVE",
"383 73 OFFCURVE",
"319 73 CURVE SMOOTH",
"277 73 OFFCURVE",
"236 78 OFFCURVE",
"236 95 CURVE SMOOTH",
"236 125 OFFCURVE",
"287 134 OFFCURVE",
"352 135 CURVE SMOOTH",
"437 137 OFFCURVE",
"509 128 OFFCURVE",
"595 114 CURVE",
"595 187 LINE",
"511 204 OFFCURVE",
"420 217 OFFCURVE",
"322 217 CURVE SMOOTH",
"219 217 OFFCURVE",
"108 185 OFFCURVE",
"108 90 CURVE SMOOTH",
"108 7 OFFCURVE",
"186 -21 OFFCURVE",
"284 -21 CURVE SMOOTH"
);
}
);
};
layerId = "C70E3B11-AF58-44B6-92D7-58C9185F522D";
name = "Bold Extended";
paths = (
{
closed = 1;
nodes = (
"1043 -11 OFFCURVE",
"1141 18 OFFCURVE",
"1225 66 CURVE",
"1181 142 LINE",
"1102 99 OFFCURVE",
"1023 78 OFFCURVE",
"904 80 CURVE SMOOTH",
"786 82 OFFCURVE",
"697 117 OFFCURVE",
"697 176 CURVE SMOOTH",
"697 247 OFFCURVE",
"820 279 OFFCURVE",
"933 279 CURVE SMOOTH",
"1030 279 OFFCURVE",
"1085 263 OFFCURVE",
"1085 235 CURVE SMOOTH",
"1085 208 OFFCURVE",
"1033 200 OFFCURVE",
"958 200 CURVE SMOOTH",
"879 200 OFFCURVE",
"763 209 OFFCURVE",
"667 244 CURVE",
"667 184 LINE",
"763 153 OFFCURVE",
"854 128 OFFCURVE",
"964 128 CURVE SMOOTH",
"1084 128 OFFCURVE",
"1200 157 OFFCURVE",
"1200 241 CURVE SMOOTH",
"1200 324 OFFCURVE",
"1089 367 OFFCURVE",
"918 367 CURVE SMOOTH",
"785 367 OFFCURVE",
"664 325 OFFCURVE",
"613 250 CURVE",
"678 246 LINE",
"642 327 OFFCURVE",
"557 369 OFFCURVE",
"437 369 CURVE SMOOTH",
"316 369 OFFCURVE",
"203 354 OFFCURVE",
"93 329 CURVE",
"111 239 LINE",
"221 262 OFFCURVE",
"309 274 OFFCURVE",
"409 274 CURVE SMOOTH",
"510 274 OFFCURVE",
"586 239 OFFCURVE",
"586 169 CURVE SMOOTH",
"586 151 LINE SMOOTH",
"586 45 OFFCURVE",
"760 -11 OFFCURVE",
"913 -11 CURVE SMOOTH"
);
},
{
closed = 1;
nodes = (
"397 -9 OFFCURVE",
"536 29 OFFCURVE",
"640 83 CURVE",
"620 126 LINE",
"517 98 OFFCURVE",
"422 80 OFFCURVE",
"299 80 CURVE SMOOTH",
"229 80 OFFCURVE",
"199 91 OFFCURVE",
"199 116 CURVE SMOOTH",
"199 143 OFFCURVE",
"240 155 OFFCURVE",
"320 155 CURVE SMOOTH",
"416 155 OFFCURVE",
"516 145 OFFCURVE",
"620 130 CURVE",
"620 185 LINE",
"535 207 OFFCURVE",
"414 229 OFFCURVE",
"299 229 CURVE SMOOTH",
"163 229 OFFCURVE",
"71 196 OFFCURVE",
"71 108 CURVE SMOOTH",
"71 25 OFFCURVE",
"156 -7 OFFCURVE",
"268 -8 CURVE SMOOTH"
);
}
);
width = 1279;
}
);
leftKerningGroup = a;
leftMetricsKey = "=a";
rightKerningGroup = e;
rightMetricsKey = "=e";
unicode = 00E6;
},
{
color = 4;
glyphname = b;
lastChange = "2015-11-25 17:38:45 +0000";
layers = (
{
anchors = (
{
name = bottom;
position = "{442, -10}";
},
{
name = top;
position = "{442, 367}";
}
);
layerId = "B29C398E-974A-40D0-A0A0-00935056D4B4";
name = "Light Extended";
paths = (
{
closed = 1;
nodes = (
"639 -10 OFFCURVE",
"779 67 OFFCURVE",
"779 195 CURVE",
"779 303 OFFCURVE",
"684 367 OFFCURVE",
"541 367 CURVE",
"411 367 OFFCURVE",
"289 303 OFFCURVE",
"173 219 CURVE",
"173 196 LINE",
"298 284 OFFCURVE",
"427 344 OFFCURVE",
"541 344 CURVE",
"674 344 OFFCURVE",
"754 283 OFFCURVE",
"754 195 CURVE",
"754 85 OFFCURVE",
"628 12 OFFCURVE",
"476 13 CURVE",
"357 12 OFFCURVE",
"244 55 OFFCURVE",
"170 95 CURVE",
"170 73 LINE",
"242 32 OFFCURVE",
"347 -10 OFFCURVE",
"476 -10 CURVE"
);
},
{
closed = 1;
nodes = (
"187 -11 LINE",
"187 520 LINE",
"162 520 LINE",
"162 -11 LINE"
);
},
{
closed = 1;
nodes = (
"178 497 LINE",
"178 520 LINE",
"-20 520 LINE",
"-20 497 LINE"
);
}
);
width = 859;
},
{
anchors = (
{
name = bottom;
position = "{272, 0}";
},
{
name = top;
position = "{272, 377}";
}
);
background = {
paths = (
{
closed = 1;
nodes = (
"200 367 OFFCURVE",
"145 326 OFFCURVE",
"108 290 CURVE",
"108 263 LINE",
"150 305 OFFCURVE",
"200 343 OFFCURVE",
"269 344 CURVE SMOOTH",
"347 345 OFFCURVE",
"410 285 OFFCURVE",
"410 186 CURVE SMOOTH",
"410 85 OFFCURVE",
"340 12 OFFCURVE",
"257 12 CURVE SMOOTH",
"190 12 OFFCURVE",
"142 46 OFFCURVE",
"101 89 CURVE",
"101 66 LINE",
"142 24 OFFCURVE",
"190 -10 OFFCURVE",
"257 -10 CURVE SMOOTH",
"351 -10 OFFCURVE",
"435 67 OFFCURVE",
"435 187 CURVE SMOOTH",
"435 298 OFFCURVE",
"360 367 OFFCURVE",
"269 367 CURVE SMOOTH"
);
}
);
};
layerId = "543F9737-16F7-428D-9F96-2EBD9FC8D3B6";
name = Light;
paths = (
{
closed = 1;
nodes = (
"121 497 LINE",
"121 520 LINE",
"5 520 LINE",
"5 497 LINE"
);
},
{
closed = 1;
nodes = (
"200 367 OFFCURVE",
"145 326 OFFCURVE",
"108 290 CURVE",
"108 263 LINE",
"150 305 OFFCURVE",
"200 343 OFFCURVE",
"269 344 CURVE SMOOTH",
"347 345 OFFCURVE",
"410 285 OFFCURVE",
"410 186 CURVE SMOOTH",
"410 85 OFFCURVE",
"340 12 OFFCURVE",
"257 12 CURVE SMOOTH",
"190 12 OFFCURVE",
"142 46 OFFCURVE",
"101 89 CURVE",
"101 66 LINE",
"142 24 OFFCURVE",
"190 -10 OFFCURVE",
"257 -10 CURVE SMOOTH",
"351 -10 OFFCURVE",
"435 67 OFFCURVE",
"435 187 CURVE SMOOTH",
"435 298 OFFCURVE",
"360 367 OFFCURVE",
"269 367 CURVE SMOOTH"
);
},
{
closed = 1;
nodes = (
"121 0 LINE",
"121 519 LINE",
"97 519 LINE",
"97 0 LINE"
);
}
);
width = 480;
},
{
anchors = (
{
name = bottom;
position = "{305, -12}";
},
{
name = top;
position = "{305, 365}";
}
);
layerId = "EB38A4D2-CD30-49BA-8E45-1F04A566FFE8";
name = Bold;
paths = (
{
closed = 1;
nodes = (
"167 430 LINE",
"167 520 LINE",
"0 520 LINE",
"0 430 LINE"
);
},
{
closed = 1;
nodes = (
"235 367 OFFCURVE",
"150 292 OFFCURVE",
"115 173 CURVE",
"115 89 LINE",
"148 197 OFFCURVE",
"219 268 OFFCURVE",
"272 269 CURVE SMOOTH",
"325 270 OFFCURVE",
"358 231 OFFCURVE",
"358 179 CURVE SMOOTH",
"358 124 OFFCURVE",
"320 84 OFFCURVE",
"257 84 CURVE SMOOTH",
"204 84 OFFCURVE",
"149 130 OFFCURVE",
"117 173 CURVE",
"117 97 LINE",
"148 55 OFFCURVE",
"196 -11 OFFCURVE",
"287 -11 CURVE SMOOTH",
"398 -11 OFFCURVE",
"478 71 OFFCURVE",
"478 178 CURVE SMOOTH",
"478 287 OFFCURVE",
"401 367 OFFCURVE",
"313 367 CURVE SMOOTH"
);
},
{
closed = 1;
nodes = (
"177 -13 LINE",
"177 520 LINE",
"61 520 LINE",
"61 -13 LINE"
);
}
);
width = 498;
},
{
anchors = (
{
name = bottom;
position = "{469, -22}";
},
{
name = top;
position = "{469, 355}";
}
);
layerId = "C70E3B11-AF58-44B6-92D7-58C9185F522D";
name = "Bold Extended";
paths = (
{
closed = 1;
nodes = (
"683 -11 OFFCURVE",
"813 64 OFFCURVE",
"813 188 CURVE SMOOTH",
"813 306 OFFCURVE",
"708 367 OFFCURVE",
"565 367 CURVE SMOOTH",
"410 367 OFFCURVE",
"288 295 OFFCURVE",
"171 217 CURVE",
"171 138 LINE",
"299 221 OFFCURVE",
"440 270 OFFCURVE",
"544 270 CURVE SMOOTH",
"640 270 OFFCURVE",
"693 238 OFFCURVE",
"693 182 CURVE SMOOTH",
"693 125 OFFCURVE",
"624 84 OFFCURVE",
"512 84 CURVE SMOOTH",
"397 84 OFFCURVE",
"263 108 OFFCURVE",
"177 145 CURVE",
"177 69 LINE",
"257 33 OFFCURVE",
"377 -11 OFFCURVE",
"528 -11 CURVE SMOOTH"
);
},
{
closed = 1;
nodes = (
"237 -24 LINE",
"237 521 LINE",
"120 521 LINE",
"120 -24 LINE"
);
},
{
closed = 1;
nodes = (
"218 430 LINE",
"218 520 LINE",
"-20 520 LINE",
"-20 430 LINE"
);
}
);
width = 863;
}
);
leftKerningGroup = b;
rightKerningGroup = o;
rightMetricsKey = "=o";
unicode = 0062;
},
{
glyphname = c;
lastChange = "2015-11-25 15:10:58 +0000";
layers = (
{
anchors = (
{
name = bottom;
position = "{366, -10}";
},
{
name = top;
position = "{377, 367}";
}
);
layerId = "B29C398E-974A-40D0-A0A0-00935056D4B4";
name = "Light Extended";
paths = (
{
closed = 1;
nodes = (
"500 -9 OFFCURVE",
"599 33 OFFCURVE",
"678 96 CURVE",
"663 114 LINE",
"589 56 OFFCURVE",
"489 13 OFFCURVE",
"365 14 CURVE SMOOTH",
"218 15 OFFCURVE",
"105 78 OFFCURVE",
"105 172 CURVE SMOOTH",
"105 286 OFFCURVE",
"242 345 OFFCURVE",
"375 344 CURVE SMOOTH",
"484 344 OFFCURVE",
"599 306 OFFCURVE",
"666 220 CURVE",
"672 221 LINE",
"672 357 LINE",
"649 357 LINE",
"649 257 LINE",
"661 252 LINE",
"610 315 OFFCURVE",
"501 367 OFFCURVE",
"377 367 CURVE SMOOTH",
"232 368 OFFCURVE",
"80 303 OFFCURVE",
"80 172 CURVE SMOOTH",
"80 58 OFFCURVE",
"208 -9 OFFCURVE",
"365 -9 CURVE SMOOTH"
);
}
);
width = 773;
},
{
anchors = (
{
name = bottom;
position = "{226, -10}";
},
{
name = top;
position = "{226, 367}";
}
);
background = {
paths = (
{
closed = 1;
nodes = (
"358 67 LINE",
"324 36 OFFCURVE",
"287 14 OFFCURVE",
"228 13 CURVE SMOOTH",
"147 12 OFFCURVE",
"70 72 OFFCURVE",
"70 167 CURVE SMOOTH",
"70 282 OFFCURVE",
"155 343 OFFCURVE",
"232 343 CURVE SMOOTH",
"300 343 OFFCURVE",
"346 311 OFFCURVE",
"346 257 CURVE SMOOTH",
"346 204 OFFCURVE",
"285 180 OFFCURVE",
"229 180 CURVE SMOOTH",
"169 180 OFFCURVE",
"115 197 OFFCURVE",
"64 215 CURVE",
"65 192 LINE",
"115 174 OFFCURVE",
"169 157 OFFCURVE",
"229 157 CURVE SMOOTH",
"300 157 OFFCURVE",
"371 191 OFFCURVE",
"371 257 CURVE SMOOTH",
"371 322 OFFCURVE",
"313 366 OFFCURVE",
"232 366 CURVE SMOOTH",
"144 366 OFFCURVE",
"45 299 OFFCURVE",
"45 167 CURVE SMOOTH",
"45 51 OFFCURVE",
"137 -10 OFFCURVE",
"228 -10 CURVE SMOOTH",
"291 -10 OFFCURVE",
"335 14 OFFCURVE",
"373 47 CURVE"
);
}
);
};
layerId = "543F9737-16F7-428D-9F96-2EBD9FC8D3B6";
name = Light;
paths = (
{
closed = 1;
nodes = (
"302 -10 OFFCURVE",
"347 23 OFFCURVE",
"383 60 CURVE",
"367 77 LINE",
"334 42 OFFCURVE",
"292 12 OFFCURVE",
"226 13 CURVE SMOOTH",
"151 14 OFFCURVE",
"70 74 OFFCURVE",
"70 174 CURVE SMOOTH",
"70 273 OFFCURVE",
"137 344 OFFCURVE",
"226 344 CURVE SMOOTH",
"298 344 OFFCURVE",
"346 309 OFFCURVE",
"373 237 CURVE",
"385 238 LINE",
"385 357 LINE",
"362 357 LINE",
"362 271 LINE",
"374 264 LINE",
"352 325 OFFCURVE",
"300 366 OFFCURVE",
"226 367 CURVE SMOOTH",
"125 368 OFFCURVE",
"45 285 OFFCURVE",
"45 174 CURVE SMOOTH",
"45 54 OFFCURVE",
"141 -10 OFFCURVE",
"226 -10 CURVE SMOOTH"
);
}
);
width = 430;
},
{
anchors = (
{
name = bottom;
position = "{224, -11}";
},
{
name = top;
position = "{198, 367}";
}
);
layerId = "EB38A4D2-CD30-49BA-8E45-1F04A566FFE8";
name = Bold;
paths = (
{
closed = 1;
nodes = (
"281 -9 OFFCURVE",
"342 14 OFFCURVE",
"387 60 CURVE",
"333 138 LINE",
"297 108 OFFCURVE",
"268 90 OFFCURVE",
"224 90 CURVE SMOOTH",
"178 90 OFFCURVE",
"140 125 OFFCURVE",
"140 179 CURVE SMOOTH",
"140 238 OFFCURVE",
"183 271 OFFCURVE",
"228 271 CURVE SMOOTH",
"270 271 OFFCURVE",
"293 250 OFFCURVE",
"317 224 CURVE",
"373 227 LINE",
"373 357 LINE",
"294 357 LINE",
"294 288 LINE",
"335 284 LINE",
"303 329 OFFCURVE",
"271 367 OFFCURVE",
"198 367 CURVE SMOOTH",
"116 367 OFFCURVE",
"20 292 OFFCURVE",
"20 179 CURVE SMOOTH",
"20 69 OFFCURVE",
"111 -14 OFFCURVE",
"224 -11 CURVE SMOOTH"
);
}
);
width = 402;
},
{
anchors = (
{
name = bottom;
position = "{398, -10}";
},
{
name = top;
position = "{373, 367}";
}
);
layerId = "C70E3B11-AF58-44B6-92D7-58C9185F522D";
name = "Bold Extended";
paths = (
{
closed = 1;
nodes = (
"474 -8 OFFCURVE",
"580 14 OFFCURVE",
"672 66 CURVE",
"631 149 LINE",
"550 110 OFFCURVE",
"460 91 OFFCURVE",
"358 91 CURVE SMOOTH",
"240 91 OFFCURVE",
"170 129 OFFCURVE",
"170 177 CURVE SMOOTH",
"170 251 OFFCURVE",
"283 271 OFFCURVE",
"372 271 CURVE SMOOTH",
"461 271 OFFCURVE",
"551 252 OFFCURVE",
"610 213 CURVE",
"655 230 LINE",
"655 357 LINE",
"576 357 LINE",
"576 274 LINE",
"617 277 LINE",
"566 319 OFFCURVE",
"477 368 OFFCURVE",
"344 367 CURVE SMOOTH",
"218 366 OFFCURVE",
"50 310 OFFCURVE",
"50 177 CURVE SMOOTH",
"50 73 OFFCURVE",
"173 -13 OFFCURVE",
"358 -10 CURVE SMOOTH"
);
}
);
width = 730;
}
);
leftKerningGroup = o;
leftMetricsKey = "=o";
rightKerningGroup = c;
unicode = 0063;
},
